<svg width="48" height="48" viewBox="0 0 48 48" fill="none" xmlns="http://www.w3.org/2000/svg">
<path fill-rule="evenodd" clip-rule="evenodd" d="M19.7783 13.371L19.2922 11.04C19.0677 9.96305 18.0303 9.25766 16.9463 9.44479L13.9174 9.96764C12.7725 10.1653 12.023 11.2773 12.2696 12.4128L12.7414 14.5858L19.7783 13.371ZM34.2444 27.9348V34.9327L36.942 34.9344C37.1742 34.9346 37.3969 34.8424 37.561 34.6784C37.7253 34.5142 37.8176 34.2916 37.8176 34.0594V28.808C37.8176 28.5759 37.7253 28.3532 37.561 28.1891C37.3969 28.025 37.1742 27.9328 36.942 27.933L34.2444 27.9348ZM20.9674 14.9417C21.5869 14.8347 22.1797 15.2378 22.308 15.8532L24.5284 26.5025L31.3264 26.4945C31.9713 26.4938 32.4944 27.0164 32.4944 27.6612V35.2055C32.4944 35.8504 31.9713 36.3729 31.3264 36.3721L28.7484 36.3692V33.4423C28.7484 32.7979 28.226 32.2756 27.5817 32.2756C26.9374 32.2756 26.4151 32.7979 26.4151 33.4423V36.3736H23.6988V33.4423C23.6988 32.7979 23.1765 32.2756 22.5322 32.2756C21.8879 32.2756 21.3655 32.7979 21.3655 33.4423V36.3736H19.4633C17.4973 36.3736 15.7972 35.0032 15.3801 33.0819L12.0439 17.7168C11.9031 17.0679 12.3313 16.4325 12.9856 16.3195L20.9674 14.9417Z" fill="#3880D1"/>
<circle cx="24" cy="24" r="22.5" stroke="#104B8E" stroke-width="3"/>
</svg>
