<svg width="180" height="180" viewBox="0 0 180 180" fill="none" xmlns="http://www.w3.org/2000/svg">
<path fill-rule="evenodd" clip-rule="evenodd" d="M93.6636 64.6368C93.3262 64.6472 92.9534 64.6537 92.5498 64.6537C90.6418 64.6537 87.9993 64.5077 85.0503 63.9179C80.1885 62.9455 74.2846 60.7167 69.5836 55.7594C64.8827 60.7167 58.9787 62.9455 54.1168 63.9179C51.1679 64.5077 48.5254 64.6537 46.6177 64.6537C46.2138 64.6537 45.8411 64.6472 45.5037 64.6368C45.1481 66.3025 44.9609 68.0306 44.9609 69.8024C44.9609 83.401 55.9849 94.425 69.5836 94.425C72.4093 94.425 75.1238 93.9493 77.6513 93.073C76.4048 95.4523 75.41 97.9839 74.702 100.633C73.0366 100.907 71.3268 101.05 69.5836 101.05C52.326 101.05 38.3359 87.0602 38.3359 69.8024C38.3359 58.3121 44.5378 48.2702 53.7768 42.8418C57.8413 40.3192 63.0361 38.5547 69.5836 38.5547C74.2147 38.5547 78.1764 39.4712 81.5421 40.9245C92.866 45.6191 100.831 56.7805 100.831 69.8024C100.831 71.4318 100.706 73.032 100.466 74.5941C97.8259 75.33 95.3049 76.3517 92.938 77.6238C93.7608 75.1665 94.2065 72.5365 94.2065 69.8024C94.2065 68.0306 94.0192 66.3025 93.6636 64.6368ZM59.6989 75.3259C62.0374 75.3259 63.9332 73.4302 63.9332 71.0916C63.9332 68.7531 62.0374 66.8573 59.6989 66.8573C57.3603 66.8573 55.4646 68.7531 55.4646 71.0916C55.4646 73.4302 57.3603 75.3259 59.6989 75.3259ZM79.0385 75.3259C81.3769 75.3259 83.273 73.4302 83.273 71.0916C83.273 68.7531 81.3769 66.8573 79.0385 66.8573C76.6999 66.8573 74.8042 68.7531 74.8042 71.0916C74.8042 73.4302 76.6999 75.3259 79.0385 75.3259ZM59.6318 79.3738C60.9916 78.15 63.086 78.2602 64.3099 79.62C66.7968 82.3834 71.471 82.5702 74.5475 79.4937C75.8411 78.2001 77.9385 78.2001 79.2321 79.4937C80.5257 80.7873 80.5257 82.8847 79.2321 84.1783C73.7131 89.6974 64.6345 89.8842 59.3855 84.052C58.1617 82.6921 58.272 80.5976 59.6318 79.3738ZM100.89 119.772C102.25 118.548 104.344 118.659 105.568 120.019C108.055 122.782 112.729 122.969 115.806 119.892C117.099 118.599 119.196 118.599 120.49 119.892C121.784 121.186 121.784 123.283 120.49 124.577C114.971 130.096 105.893 130.283 100.644 124.45C99.4199 123.091 99.5303 120.996 100.89 119.772ZM79.1643 110.201C79.1643 98.5409 85.5511 88.3719 95.0169 83.0026C95.1441 82.9302 95.2722 82.8591 95.4007 82.7884C97.6333 81.5632 100.032 80.6024 102.556 79.9491C102.558 79.5319 102.565 79.0817 102.577 78.6033C102.646 75.9272 102.895 72.3206 103.627 68.6828C104.352 65.0787 105.589 61.2514 107.753 58.2775C109.98 55.2176 113.229 53.0314 117.718 53.0314C125.908 53.0314 131.618 57.4469 135.19 61.7463C136.979 63.899 138.272 66.065 139.124 67.7389C139.551 68.5776 139.873 69.3044 140.095 69.8593C140.206 70.1354 140.296 70.38 140.363 70.5824C140.396 70.6823 140.429 70.7865 140.456 70.8876L140.457 70.8924C140.474 70.953 140.529 71.1563 140.548 71.3918C140.589 71.8854 140.458 72.3018 140.418 72.4279C140.353 72.6379 140.266 72.8485 140.175 73.0423C139.99 73.4343 139.73 73.8782 139.399 74.3352C138.736 75.2485 137.718 76.3078 136.292 77.1214C133.286 78.8364 128.997 79.1744 123.508 76.0722C120.693 74.4812 119.322 74.5578 118.78 74.7487C118.32 74.9111 117.833 75.3908 117.485 76.624C117.224 77.5529 117.127 78.6428 117.119 79.6747C119.819 80.2651 122.388 81.2046 124.776 82.4434C125.201 82.6638 125.62 82.8935 126.033 83.1324C135.375 88.5349 141.66 98.6341 141.66 110.201C141.66 127.459 127.67 141.449 110.412 141.449C93.1544 141.449 79.1643 127.459 79.1643 110.201ZM85.7892 110.201C85.7892 108.435 85.9751 106.712 86.3284 105.051C88.9179 105.032 92.6054 104.779 96.5517 103.777C101.149 102.61 106.302 100.371 110.41 96.1227C114.588 100.455 119.836 102.7 124.477 103.848C128.368 104.811 131.98 105.043 134.496 105.052C134.849 106.713 135.035 108.435 135.035 110.201C135.035 123.8 124.011 134.824 110.412 134.824C96.8132 134.824 85.7892 123.8 85.7892 110.201ZM105.192 111.491C105.192 113.829 103.296 115.725 100.957 115.725C98.6187 115.725 96.7226 113.829 96.7226 111.491C96.7226 109.152 98.6187 107.256 100.957 107.256C103.296 107.256 105.192 109.152 105.192 111.491ZM120.297 115.725C122.635 115.725 124.531 113.829 124.531 111.491C124.531 109.152 122.635 107.256 120.297 107.256C117.958 107.256 116.062 109.152 116.062 111.491C116.062 113.829 117.958 115.725 120.297 115.725Z" fill="#104B8E"/>
<circle cx="90" cy="90" r="85" stroke="#104B8E" stroke-width="10"/>
</svg>
