<svg width="160" height="160" viewBox="0 0 160 160" fill="none" xmlns="http://www.w3.org/2000/svg">
<g clip-path="url(#clip0_1851_3823)">
<path d="M59.8618 85.6857C59.2259 85.3331 58.5107 85.148 57.7835 85.148C57.0564 85.148 56.3412 85.3331 55.7052 85.6857C55.0307 86.0498 54.4584 86.5773 54.0406 87.22C53.6229 87.8626 53.3732 88.5999 53.3143 89.3641C53.3143 90.3021 53.1488 91.2033 53.0752 92.1597C53.0651 92.2445 53.0325 92.325 52.9807 92.3929C52.929 92.4608 52.86 92.5137 52.7809 92.5459C52.711 92.5863 52.6317 92.6075 52.551 92.6075C52.4703 92.6075 52.391 92.5863 52.3211 92.5459L50.4819 91.0378C50.4306 90.995 50.3892 90.9416 50.3607 90.8813C50.3321 90.8209 50.317 90.7551 50.3164 90.6883V77.299C50.3164 76.6893 50.0742 76.1045 49.6431 75.6734C49.2119 75.2422 48.6272 75 48.0174 75C47.4077 75 46.8229 75.2422 46.3918 75.6734C45.9606 76.1045 45.7184 76.6893 45.7184 77.299V90.3757C45.7222 90.4431 45.709 90.5104 45.6801 90.5714C45.6512 90.6325 45.6075 90.6853 45.5529 90.7251L43.7137 92.2516C43.6452 92.296 43.5654 92.3196 43.4838 92.3196C43.4022 92.3196 43.3224 92.296 43.2539 92.2516C43.1751 92.2244 43.1057 92.1753 43.0536 92.1103C43.0015 92.0452 42.9689 91.9666 42.9596 91.8838C42.9596 91.001 42.7941 90.0446 42.7389 89.2721C42.6801 88.5079 42.4303 87.7707 42.0126 87.128C41.5949 86.4853 41.0225 85.9578 40.348 85.5938C39.7121 85.2411 38.9969 85.0561 38.2697 85.0561C37.5425 85.0561 36.8273 85.2411 36.1914 85.5938C29.4783 89.5664 26.4069 98.1922 26.0023 114.487C25.9816 115.139 26.1024 115.787 26.3564 116.387C26.6104 116.987 26.9916 117.525 27.4736 117.964C28.2824 118.718 29.3469 119.139 30.4531 119.141H30.8945L41.6722 118.037C42.2665 117.976 42.8421 117.795 43.3638 117.504C43.8856 117.213 44.3426 116.819 44.7069 116.345C45.0886 115.859 45.3671 115.3 45.5252 114.702C45.6833 114.104 45.7178 113.48 45.6265 112.869L44.6517 106.266C44.1367 102.809 43.8241 99.9762 43.585 97.6221C43.5592 97.5751 43.5431 97.5234 43.5375 97.4701C43.5319 97.4168 43.537 97.3629 43.5524 97.3116C43.5678 97.2603 43.5932 97.2125 43.6272 97.1711C43.6612 97.1297 43.7031 97.0954 43.7505 97.0703L47.6496 93.7414C47.7388 93.6797 47.8446 93.6466 47.953 93.6466C48.0615 93.6466 48.1673 93.6797 48.2565 93.7414L52.3763 97.2542C52.4381 97.3002 52.4862 97.3622 52.5154 97.4335C52.5446 97.5048 52.5537 97.5827 52.5418 97.6589C52.3027 99.9579 51.9901 102.735 51.4935 106.101L50.5187 112.777C50.4274 113.389 50.4618 114.012 50.62 114.61C50.7781 115.208 51.0566 115.767 51.4383 116.253C51.8026 116.727 52.2596 117.121 52.7814 117.412C53.3031 117.703 53.8787 117.884 54.473 117.945L65.2507 119.049H65.6921C66.7983 119.047 67.8628 118.626 68.6716 117.872C69.1536 117.433 69.5347 116.895 69.7888 116.295C70.0428 115.695 70.1636 115.047 70.1429 114.396C69.7383 98.1922 66.6668 89.5664 59.8618 85.6857ZM41.0285 106.873C40.9501 107.036 40.84 107.182 40.7046 107.302C40.5693 107.422 40.4113 107.514 40.2401 107.572C40.0689 107.63 39.8877 107.654 39.7073 107.641C39.5269 107.628 39.3508 107.58 39.1893 107.499L38.8766 107.315C38.7774 107.264 38.6629 107.25 38.5546 107.277C38.4464 107.304 38.3516 107.37 38.2881 107.462L37.3501 108.878C37.224 109.064 37.0542 109.217 36.8554 109.323C36.6566 109.429 36.435 109.484 36.2098 109.485C35.934 109.485 35.6647 109.402 35.4373 109.246C35.1555 109.042 34.9609 108.739 34.8927 108.398C34.8245 108.057 34.8877 107.703 35.0695 107.407L36.3569 105.457C36.3923 105.392 36.4109 105.319 36.4109 105.246C36.4109 105.172 36.3923 105.099 36.3569 105.034L35.75 103.544C35.7264 103.478 35.6874 103.419 35.6362 103.371C35.585 103.323 35.5232 103.288 35.4557 103.268C35.3918 103.241 35.323 103.227 35.2534 103.227C35.1839 103.227 35.1151 103.241 35.0511 103.268L33.359 104.611C33.1128 104.789 32.8169 104.886 32.513 104.887C32.2945 104.908 32.074 104.877 31.8695 104.798C31.665 104.718 31.4822 104.591 31.3359 104.427C31.2126 104.283 31.1193 104.116 31.0617 103.936C31.004 103.755 30.9832 103.565 31.0003 103.377C31.0175 103.188 31.0723 103.005 31.1615 102.838C31.2508 102.671 31.3726 102.523 31.5199 102.404L35.1982 99.7004C35.2506 99.6614 35.2942 99.6117 35.3259 99.5547C35.3576 99.4976 35.3768 99.4344 35.3822 99.3693C35.3782 99.3013 35.3597 99.235 35.328 99.1747C35.2962 99.1145 35.252 99.0617 35.1982 99.0199L33.359 97.0703C33.1599 96.9752 32.9865 96.8337 32.8534 96.6577C32.7203 96.4817 32.6313 96.2764 32.594 96.0589C32.5567 95.8414 32.5721 95.6181 32.6389 95.4078C32.7058 95.1975 32.8221 95.0063 32.9781 94.8502C33.1342 94.6942 33.3254 94.5779 33.5357 94.511C33.746 94.4442 33.9693 94.4288 34.1868 94.4661C34.4043 94.5034 34.6096 94.5923 34.7856 94.7255C34.9616 94.8586 35.1031 95.032 35.1982 95.2311L37.4421 97.4566C37.4576 97.4758 37.4772 97.4912 37.4995 97.5019C37.5217 97.5125 37.5461 97.518 37.5708 97.518C37.5955 97.518 37.6199 97.5125 37.6421 97.5019C37.6644 97.4912 37.684 97.4758 37.6995 97.4566L37.8467 97.3278C38.0287 97.1503 38.2729 97.051 38.5272 97.051C38.7814 97.051 39.0256 97.1503 39.2077 97.3278C39.2551 97.3821 39.2925 97.4444 39.318 97.5117L39.4836 98.1554C39.4531 98.4263 39.3218 98.6758 39.1157 98.8543L37.6812 100.068C37.4953 100.228 37.37 100.447 37.3265 100.688C37.2829 100.929 37.3237 101.178 37.4421 101.392L38.9134 104.151C38.9627 104.256 39.0473 104.341 39.1525 104.39L40.3664 104.997C40.5373 105.072 40.6911 105.181 40.8181 105.318C40.9452 105.454 41.0428 105.616 41.1049 105.791C41.167 105.967 41.1922 106.154 41.1791 106.34C41.1659 106.526 41.1147 106.708 41.0285 106.873ZM64.8093 104.427C64.6779 104.594 64.5103 104.729 64.3191 104.821C64.1279 104.914 63.9181 104.961 63.7057 104.96C63.3679 104.954 63.0427 104.831 62.7861 104.611L61.0573 103.268C60.9934 103.241 60.9245 103.227 60.855 103.227C60.7855 103.227 60.7166 103.241 60.6527 103.268C60.5852 103.288 60.5234 103.323 60.4722 103.371C60.421 103.419 60.382 103.478 60.3584 103.544L59.7515 105.034C59.7161 105.099 59.6975 105.172 59.6975 105.246C59.6975 105.319 59.7161 105.392 59.7515 105.457L61.0389 107.407C61.2208 107.703 61.2839 108.057 61.2157 108.398C61.1475 108.739 60.953 109.042 60.6711 109.246C60.4438 109.402 60.1744 109.485 59.8986 109.485C59.6734 109.484 59.4518 109.429 59.253 109.323C59.0543 109.217 58.8844 109.064 58.7583 108.878L57.8203 107.462C57.7568 107.37 57.6621 107.304 57.5538 107.277C57.4455 107.25 57.331 107.264 57.2318 107.315L56.8456 107.499C56.5187 107.664 56.1394 107.694 55.7911 107.58C55.4427 107.466 55.1538 107.218 54.988 106.892C54.8221 106.565 54.7929 106.185 54.9067 105.837C55.0205 105.489 55.2681 105.2 55.5949 105.034L56.8088 104.427C56.914 104.378 56.9986 104.293 57.0479 104.188L58.5192 101.429C58.6375 101.215 58.6784 100.966 58.6348 100.725C58.5913 100.483 58.466 100.265 58.2801 100.105L56.9743 98.9095C56.8652 98.8152 56.7763 98.6998 56.7131 98.5702C56.6499 98.4406 56.6136 98.2995 56.6065 98.1554C56.5959 98.0146 56.6151 97.873 56.6626 97.74C56.7101 97.607 56.785 97.4853 56.8823 97.383C57.0644 97.2055 57.3086 97.1061 57.5628 97.1061C57.8171 97.1061 58.0613 97.2055 58.2433 97.383L58.3905 97.5117C58.406 97.5309 58.4256 97.5464 58.4479 97.5571C58.4702 97.5677 58.4945 97.5732 58.5192 97.5732C58.5439 97.5732 58.5683 97.5677 58.5905 97.5571C58.6128 97.5464 58.6324 97.5309 58.648 97.5117L60.947 95.2311C61.2044 95.1082 61.4935 95.0681 61.7747 95.1163C62.0558 95.1646 62.3151 95.2988 62.5168 95.5005C62.7185 95.7022 62.8527 95.9615 62.901 96.2426C62.9492 96.5237 62.9091 96.8129 62.7861 97.0703L60.947 98.9095C60.9032 98.9562 60.8693 99.0112 60.8472 99.0712C60.8251 99.1312 60.8152 99.1951 60.8182 99.259C60.8236 99.324 60.8428 99.3872 60.8745 99.4443C60.9062 99.5014 60.9497 99.5511 61.0021 99.59L64.6253 102.404C64.7726 102.523 64.8944 102.671 64.9837 102.838C65.0729 103.005 65.1277 103.188 65.1449 103.377C65.162 103.565 65.1412 103.755 65.0835 103.936C65.0259 104.116 64.9326 104.283 64.8093 104.427Z" fill="#104B8E"/>
</g>
<circle cx="80" cy="80" r="75" transform="matrix(1 0 0 -1 0 160)" stroke="#104B8E" stroke-width="10"/>
<path d="M82.0234 77.9766L145.821 41.8584" stroke="#104B8E" stroke-width="4"/>
<path d="M81.6884 155.613V78.3137L16.2031 39.1576" stroke="#104B8E" stroke-width="4"/>
<g clip-path="url(#clip1_1851_3823)">
<path d="M129.591 99.2188C128.432 99.2041 127.305 99.604 126.414 100.346L124.091 102.328C123.855 102.524 123.56 102.632 123.254 102.635C122.991 102.636 122.735 102.557 122.519 102.407C122.304 102.258 122.139 102.046 122.048 101.8C121.957 101.554 121.943 101.286 122.009 101.032C122.075 100.778 122.217 100.551 122.416 100.38L124.74 98.3988C126.101 97.2686 127.822 96.6627 129.591 96.6904H133.709C133.766 96.6896 133.823 96.6771 133.876 96.6536C133.929 96.6302 133.977 96.5962 134.016 96.5537C134.057 96.5104 134.088 96.4593 134.109 96.4036C134.129 96.3478 134.138 96.2885 134.136 96.2292C134.039 93.8789 133.168 91.6266 131.659 89.8229L134.016 83.6388C134.066 83.5319 134.092 83.4152 134.092 83.2971C134.092 83.179 134.066 83.0623 134.016 82.9554C133.965 82.8473 133.892 82.7515 133.8 82.6748C133.709 82.5981 133.602 82.5423 133.486 82.5113L127.746 80.8883C127.543 80.8315 127.325 80.8525 127.135 80.9472C126.946 81.0419 126.798 81.2036 126.721 81.4008L125.338 85.125H125.235C125.155 85.0903 125.064 85.0849 124.98 85.1099C124.896 85.1348 124.823 85.1885 124.774 85.2617L123.066 87.585C122.677 88.1243 122.477 88.7773 122.499 89.4419C122.521 90.1064 122.762 90.7451 123.185 91.2579C123.365 91.5213 123.44 91.8424 123.396 92.1584C123.352 92.4743 123.191 92.7624 122.946 92.9663C122.725 93.1485 122.446 93.2455 122.16 93.2396C121.966 93.239 121.774 93.194 121.599 93.1082C121.424 93.0224 121.272 92.8979 121.152 92.7442C120.397 91.7961 119.972 90.6276 119.941 89.4159C119.91 88.2043 120.276 87.0156 120.981 86.0304L122.126 84.3221V84.1854C122.122 84.1613 122.109 84.1394 122.091 84.1237C122.072 84.1081 122.048 84.0997 122.024 84.1V80.8542C122.024 80.6276 121.934 80.4104 121.773 80.2502C121.613 80.09 121.396 80 121.169 80H115.276C115.049 80 114.832 80.09 114.672 80.2502C114.511 80.4104 114.421 80.6276 114.421 80.8542V83.7925C114.419 83.8964 114.38 83.9961 114.311 84.0741C114.242 84.1521 114.148 84.2036 114.046 84.2196C112.75 84.3831 111.504 84.8198 110.39 85.5008C110.299 85.5591 110.189 85.5792 110.083 85.5568C109.978 85.5344 109.885 85.4713 109.826 85.3813L107.605 82.0842C107.49 81.9107 107.315 81.7855 107.114 81.732C106.912 81.6785 106.698 81.7005 106.512 81.7937L101.387 84.3562C101.28 84.4123 101.185 84.4897 101.108 84.5837C101.032 84.6777 100.976 84.7863 100.943 84.9029C100.911 85.0214 100.906 85.1453 100.926 85.2661C100.947 85.387 100.993 85.502 101.062 85.6033L104.291 90.4892C102.506 93.1464 101.803 96.3852 102.326 99.5433C102.33 99.6041 102.348 99.6631 102.377 99.7163C102.407 99.7695 102.448 99.8155 102.497 99.8508C102.551 99.8754 102.609 99.8881 102.668 99.8881C102.727 99.8881 102.785 99.8754 102.839 99.8508L105.401 99.2529C108.476 98.5354 108.818 98.45 110.373 96.6733C110.455 96.5777 110.553 96.4968 110.663 96.4342C110.663 96.3146 110.834 96.2292 110.936 96.1096C111.586 95.375 112.406 94.4013 113.533 93.2567C113.635 93.1005 113.769 92.9682 113.927 92.8692C114.084 92.7701 114.262 92.7067 114.446 92.6832C114.631 92.6597 114.819 92.6768 114.996 92.7333C115.174 92.7897 115.337 92.8842 115.474 93.0101C115.611 93.136 115.719 93.2903 115.791 93.4623C115.862 93.6343 115.896 93.8197 115.888 94.0058C115.881 94.1919 115.833 94.3741 115.747 94.5398C115.662 94.7054 115.542 94.8505 115.395 94.965C114.524 95.9046 113.841 96.6733 113.277 97.3054C113.228 97.3787 113.201 97.4649 113.201 97.5531C113.201 97.6414 113.228 97.7276 113.277 97.8008L114.456 99.8167C114.628 100.111 114.676 100.462 114.589 100.792C114.503 101.122 114.289 101.404 113.994 101.576C113.7 101.748 113.349 101.797 113.019 101.71C112.689 101.624 112.407 101.41 112.235 101.115L111.569 99.9704C111.54 99.9158 111.498 99.8688 111.448 99.8332C111.397 99.7976 111.339 99.7744 111.278 99.7654C111.216 99.7531 111.151 99.7544 111.09 99.7691C111.028 99.7839 110.97 99.8117 110.919 99.8508C109.498 100.915 107.816 101.577 106.051 101.764C105.299 101.935 104.342 102.14 103.317 102.413C103.205 102.442 103.108 102.513 103.047 102.612C102.986 102.711 102.967 102.83 102.993 102.943C103.372 104.46 103.869 105.945 104.479 107.385L114.216 108.597C114.383 108.617 114.544 108.668 114.69 108.75C114.837 108.832 114.965 108.942 115.068 109.074C115.172 109.206 115.248 109.357 115.292 109.519C115.337 109.68 115.348 109.849 115.327 110.015C115.289 110.325 115.14 110.61 114.908 110.818C114.675 111.025 114.375 111.141 114.063 111.143H113.841L106.512 110.22C106.435 110.212 106.358 110.225 106.288 110.258C106.219 110.291 106.16 110.343 106.119 110.408C106.074 110.474 106.05 110.551 106.05 110.63C106.05 110.71 106.074 110.787 106.119 110.852C109.04 116.165 113.533 121 117.941 121C120.794 121 123.783 118.95 126.482 115.995C126.532 115.937 126.566 115.867 126.581 115.792C126.596 115.717 126.591 115.64 126.568 115.568C126.545 115.494 126.502 115.429 126.445 115.378C126.388 115.327 126.318 115.292 126.243 115.277L124.535 115.004C122.694 114.712 121.042 113.705 119.939 112.202L117.787 108.888C117.695 108.747 117.632 108.589 117.601 108.423C117.57 108.257 117.572 108.087 117.607 107.922C117.677 107.589 117.877 107.297 118.163 107.111C118.448 106.925 118.796 106.861 119.129 106.931C119.462 107.002 119.754 107.202 119.939 107.487L122.041 110.75C122.741 111.676 123.778 112.29 124.928 112.458L128.344 113.039C128.424 113.054 128.507 113.046 128.583 113.016C128.659 112.986 128.724 112.935 128.771 112.868C130.116 110.897 131.261 108.797 132.188 106.599C133.114 104.384 133.746 102.058 134.067 99.68C134.07 99.5635 134.034 99.4494 133.965 99.3554C133.925 99.3078 133.876 99.2693 133.819 99.2428C133.763 99.2162 133.702 99.2022 133.64 99.2017L129.591 99.2188Z" fill="#104B8E"/>
</g>
<g clip-path="url(#clip2_1851_3823)">
<path fill-rule="evenodd" clip-rule="evenodd" d="M81.8605 28.6392C81.7185 28.6436 81.5615 28.6463 81.3915 28.6463C80.5881 28.6463 79.4753 28.5848 78.2335 28.3365C76.1863 27.927 73.7002 26.9885 71.7206 24.901C69.7411 26.9885 67.255 27.927 65.2077 28.3365C63.9659 28.5848 62.8532 28.6463 62.0499 28.6463C61.8798 28.6463 61.7229 28.6436 61.5808 28.6392C61.431 29.3406 61.3522 30.0683 61.3522 30.8144C61.3522 36.5407 65.9943 41.1828 71.7206 41.1828C72.9105 41.1828 74.0536 40.9825 75.1179 40.6135C74.593 41.6154 74.1741 42.6814 73.8759 43.7969C73.1747 43.9124 72.4547 43.9725 71.7206 43.9725C64.4536 43.9725 58.5625 38.0815 58.5625 30.8144C58.5625 25.9759 61.1741 21.7474 65.0645 19.4615C66.7761 18.3993 68.9635 17.6562 71.7206 17.6562C73.6708 17.6562 75.339 18.0422 76.7563 18.6542C81.5247 20.631 84.8788 25.331 84.8788 30.8144C84.8788 31.5005 84.8262 32.1743 84.725 32.8321C83.6132 33.142 82.5517 33.5723 81.555 34.1079C81.9015 33.0732 82.0891 31.9657 82.0891 30.8144C82.0891 30.0683 82.0103 29.3406 81.8605 28.6392ZM67.5583 33.1403C68.543 33.1403 69.3413 32.342 69.3413 31.3573C69.3413 30.3725 68.543 29.5743 67.5583 29.5743C66.5735 29.5743 65.7752 30.3725 65.7752 31.3573C65.7752 32.342 66.5735 33.1403 67.5583 33.1403ZM75.702 33.1403C76.6867 33.1403 77.4851 32.342 77.4851 31.3573C77.4851 30.3725 76.6867 29.5743 75.702 29.5743C74.7173 29.5743 73.919 30.3725 73.919 31.3573C73.919 32.342 74.7173 33.1403 75.702 33.1403ZM67.53 34.8448C68.1026 34.3295 68.9846 34.3759 69.4999 34.9485C70.5471 36.1121 72.5154 36.1908 73.8109 34.8953C74.3556 34.3506 75.2388 34.3506 75.7835 34.8953C76.3282 35.44 76.3282 36.3232 75.7835 36.868C73.4595 39.192 69.6366 39.2707 67.4263 36.8148C66.911 36.2421 66.9574 35.3602 67.53 34.8448ZM84.9034 51.8563C85.476 51.3409 86.358 51.3874 86.8733 51.9601C87.9206 53.1236 89.8888 53.2024 91.1844 51.9069C91.7291 51.3621 92.6122 51.3621 93.1569 51.9069C93.7017 52.4516 93.7017 53.3347 93.1569 53.8794C90.8331 56.2034 87.01 56.2821 84.7998 53.8262C84.2845 53.2538 84.3309 52.3716 84.9034 51.8563ZM75.755 47.8259C75.755 42.9159 78.4444 38.6339 82.4304 36.3729C82.484 36.3424 82.5379 36.3125 82.592 36.2827C83.5322 35.7668 84.5424 35.3622 85.6049 35.0871C85.6059 34.9114 85.6086 34.7218 85.6139 34.5204C85.6431 33.3935 85.7478 31.8748 86.0561 30.3429C86.3615 28.8253 86.8822 27.2136 87.7936 25.9614C88.7313 24.6729 90.0994 23.7523 91.9897 23.7523C95.4384 23.7523 97.8427 25.6116 99.3471 27.422C100.1 28.3285 100.645 29.2406 101.004 29.9455C101.183 30.2987 101.319 30.6047 101.412 30.8384C101.459 30.9546 101.497 31.0576 101.525 31.1429C101.539 31.1849 101.553 31.2288 101.564 31.2714L101.565 31.2734C101.572 31.2989 101.595 31.3845 101.603 31.4837C101.62 31.6915 101.565 31.8669 101.549 31.92C101.521 32.0084 101.484 32.0971 101.446 32.1787C101.368 32.3438 101.259 32.5307 101.119 32.7231C100.84 33.1077 100.412 33.5538 99.811 33.8964C98.5452 34.6185 96.7389 34.7609 94.4277 33.4546C93.2425 32.7846 92.6652 32.8169 92.437 32.8973C92.243 32.9656 92.0379 33.1676 91.8917 33.6869C91.7816 34.0781 91.7408 34.537 91.7373 34.9716C92.8742 35.2202 93.9561 35.6158 94.9619 36.1374C95.1408 36.2302 95.3173 36.327 95.4912 36.4276C99.4247 38.7025 102.071 42.9552 102.071 47.8259C102.071 55.0929 96.1802 60.9841 88.9132 60.9841C81.6461 60.9841 75.755 55.0929 75.755 47.8259ZM78.5447 47.8259C78.5447 47.0821 78.623 46.3568 78.7718 45.6573C79.8622 45.6493 81.4149 45.5426 83.0767 45.1208C85.0124 44.6294 87.1826 43.6866 88.9122 41.8977C90.6718 43.7222 92.8815 44.6673 94.836 45.1509C96.4741 45.5561 97.9954 45.6538 99.0546 45.6577C99.2032 46.357 99.2815 47.0823 99.2815 47.8259C99.2815 53.5523 94.6394 58.1944 88.9132 58.1944C83.1868 58.1944 78.5447 53.5523 78.5447 47.8259ZM86.7149 48.3689C86.7149 49.3535 85.9164 50.1519 84.9317 50.1519C83.9471 50.1519 83.1487 49.3535 83.1487 48.3689C83.1487 47.3842 83.9471 46.5857 84.9317 46.5857C85.9164 46.5857 86.7149 47.3842 86.7149 48.3689ZM93.0755 50.1519C94.0602 50.1519 94.8585 49.3535 94.8585 48.3689C94.8585 47.3842 94.0602 46.5857 93.0755 46.5857C92.0907 46.5857 91.2924 47.3842 91.2924 48.3689C91.2924 49.3535 92.0907 50.1519 93.0755 50.1519Z" fill="#104B8E"/>
</g>
<defs>
<clipPath id="clip0_1851_3823">
<rect width="44.1406" height="44.1406" fill="white" transform="translate(26 75)"/>
</clipPath>
<clipPath id="clip1_1851_3823">
<rect width="41" height="41" fill="white" transform="translate(97 80)"/>
</clipPath>
<clipPath id="clip2_1851_3823">
<rect width="44.6357" height="44.6357" fill="white" transform="translate(58 17)"/>
</clipPath>
</defs>
</svg>
