<svg  viewBox="0 0 160 160" fill="none" xmlns="http://www.w3.org/2000/svg">
<g clip-path="url(#clip0_1851_3490)">
<path d="M56.6169 37.715C56.0982 37.4274 55.5149 37.2765 54.9219 37.2765C54.3288 37.2765 53.7455 37.4274 53.2269 37.715C52.6767 38.0119 52.2099 38.4422 51.8692 38.9663C51.5285 39.4904 51.3249 40.0917 51.2769 40.715C51.2769 41.48 51.1419 42.215 51.0819 42.995C51.0736 43.0642 51.047 43.1298 51.0048 43.1852C50.9626 43.2406 50.9063 43.2837 50.8419 43.31C50.7848 43.3429 50.7202 43.3602 50.6544 43.3602C50.5885 43.3602 50.5239 43.3429 50.4669 43.31L48.9669 42.08C48.925 42.0451 48.8913 42.0016 48.8679 41.9524C48.8446 41.9032 48.8323 41.8495 48.8319 41.795V30.875C48.8319 30.3777 48.6343 29.9008 48.2827 29.5492C47.931 29.1975 47.4541 29 46.9569 29C46.4596 29 45.9827 29.1975 45.631 29.5492C45.2794 29.9008 45.0819 30.3777 45.0819 30.875V41.54C45.0849 41.595 45.0742 41.6499 45.0506 41.6997C45.027 41.7494 44.9914 41.7925 44.9469 41.825L43.4469 43.07C43.391 43.1062 43.3259 43.1254 43.2594 43.1254C43.1928 43.1254 43.1277 43.1062 43.0719 43.07C43.0076 43.0478 42.951 43.0078 42.9085 42.9547C42.866 42.9016 42.8394 42.8376 42.8319 42.77C42.8319 42.05 42.6969 41.27 42.6519 40.64C42.6038 40.0167 42.4002 39.4154 42.0595 38.8913C41.7188 38.3672 41.252 37.9369 40.7019 37.64C40.1832 37.3524 39.5999 37.2015 39.0069 37.2015C38.4138 37.2015 37.8305 37.3524 37.3119 37.64C31.8369 40.88 29.3319 47.915 29.0019 61.205C28.985 61.7362 29.0835 62.2648 29.2907 62.7542C29.4979 63.2436 29.8087 63.6823 30.2019 64.04C30.8614 64.6556 31.7296 64.9986 32.6319 65H32.9919L41.7819 64.1C42.2665 64.0502 42.736 63.9022 43.1615 63.6649C43.587 63.4277 43.9597 63.1061 44.2569 62.72C44.5682 62.3234 44.7953 61.8673 44.9243 61.3799C45.0532 60.8924 45.0813 60.3837 45.0069 59.885L44.2119 54.5C43.7919 51.68 43.5369 49.37 43.3419 47.45C43.3209 47.4117 43.3077 47.3695 43.3032 47.3261C43.2986 47.2826 43.3027 47.2386 43.3153 47.1968C43.3278 47.1549 43.3486 47.116 43.3763 47.0822C43.4041 47.0484 43.4382 47.0205 43.4769 47L46.6569 44.285C46.7296 44.2347 46.8159 44.2077 46.9044 44.2077C46.9928 44.2077 47.0791 44.2347 47.1519 44.285L50.5119 47.15C50.5623 47.1875 50.6015 47.2381 50.6253 47.2962C50.6491 47.3544 50.6565 47.4179 50.6469 47.48C50.4519 49.355 50.1969 51.62 49.7919 54.365L48.9969 59.81C48.9224 60.3087 48.9505 60.8174 49.0794 61.3049C49.2084 61.7923 49.4355 62.2484 49.7469 62.645C50.044 63.0311 50.4167 63.3526 50.8422 63.5899C51.2678 63.8272 51.7372 63.9752 52.2219 64.025L61.0119 64.925H61.3719C62.2741 64.9235 63.1423 64.5806 63.8019 63.965C64.195 63.6073 64.5058 63.1686 64.713 62.6792C64.9202 62.1898 65.0187 61.6612 65.0019 61.13C64.6719 47.915 62.1669 40.88 56.6169 37.715ZM41.2569 54.995C41.1929 55.1279 41.1031 55.2468 40.9927 55.3446C40.8823 55.4424 40.7535 55.5173 40.6139 55.5648C40.4742 55.6122 40.3265 55.6314 40.1793 55.6212C40.0322 55.6109 39.8886 55.5714 39.7569 55.505L39.5019 55.355C39.4209 55.3133 39.3276 55.3025 39.2393 55.3246C39.1509 55.3467 39.0737 55.4001 39.0219 55.475L38.2569 56.63C38.154 56.7821 38.0155 56.9068 37.8534 56.9931C37.6913 57.0794 37.5105 57.1247 37.3269 57.125C37.1019 57.1253 36.8822 57.0573 36.6969 56.93C36.467 56.7638 36.3083 56.517 36.2527 56.2388C36.197 55.9607 36.2485 55.6718 36.3969 55.43L37.4469 53.84C37.4757 53.7871 37.4909 53.7278 37.4909 53.6675C37.4909 53.6072 37.4757 53.5479 37.4469 53.495L36.9519 52.28C36.9326 52.2261 36.9008 52.1776 36.8591 52.1385C36.8173 52.0994 36.7669 52.0707 36.7119 52.055C36.6597 52.0327 36.6036 52.0212 36.5469 52.0212C36.4901 52.0212 36.434 52.0327 36.3819 52.055L35.0019 53.15C34.801 53.2953 34.5597 53.374 34.3119 53.375C34.1336 53.3923 33.9538 53.3673 33.7871 53.3022C33.6203 53.237 33.4712 53.1335 33.3519 53C33.2513 52.8828 33.1752 52.7465 33.1282 52.5994C33.0812 52.4522 33.0642 52.2971 33.0781 52.1433C33.0921 51.9895 33.1368 51.84 33.2096 51.7037C33.2824 51.5675 33.3818 51.4472 33.5019 51.35L36.5019 49.145C36.5446 49.1132 36.5801 49.0727 36.6059 49.0262C36.6318 48.9796 36.6475 48.9281 36.6519 48.875C36.6486 48.8196 36.6335 48.7654 36.6076 48.7163C36.5818 48.6671 36.5457 48.6241 36.5019 48.59L35.0019 47C34.8394 46.9224 34.698 46.807 34.5894 46.6635C34.4809 46.52 34.4083 46.3525 34.3779 46.1751C34.3475 45.9977 34.36 45.8156 34.4145 45.6441C34.4691 45.4725 34.5639 45.3166 34.6912 45.1893C34.8185 45.0621 34.9744 44.9672 35.1459 44.9127C35.3174 44.8582 35.4995 44.8456 35.6769 44.876C35.8543 44.9065 36.0218 44.979 36.1654 45.0876C36.3089 45.1962 36.4243 45.3376 36.5019 45.5L38.3319 47.315C38.3445 47.3307 38.3605 47.3433 38.3787 47.352C38.3968 47.3606 38.4167 47.3651 38.4369 47.3651C38.457 47.3651 38.4769 47.3606 38.495 47.352C38.5132 47.3433 38.5292 47.3307 38.5419 47.315L38.6619 47.21C38.8103 47.0652 39.0095 46.9842 39.2169 46.9842C39.4242 46.9842 39.6234 47.0652 39.7719 47.21C39.8105 47.2543 39.841 47.3051 39.8619 47.36L39.9969 47.885C39.972 48.1059 39.8649 48.3094 39.6969 48.455L38.5269 49.445C38.3752 49.5752 38.2731 49.7537 38.2376 49.9504C38.2021 50.1471 38.2354 50.35 38.3319 50.525L39.5319 52.775C39.572 52.8608 39.641 52.9298 39.7269 52.97L40.7169 53.465C40.8563 53.5259 40.9817 53.6149 41.0853 53.7263C41.1889 53.8377 41.2685 53.9692 41.3192 54.1127C41.3698 54.2562 41.3904 54.4086 41.3797 54.5603C41.369 54.7121 41.3272 54.8601 41.2569 54.995ZM60.6519 53C60.5447 53.1361 60.408 53.246 60.2521 53.3214C60.0961 53.3968 59.9251 53.4356 59.7519 53.435C59.4763 53.4301 59.2111 53.3293 59.0019 53.15L57.5919 52.055C57.5397 52.0327 57.4836 52.0212 57.4269 52.0212C57.3701 52.0212 57.314 52.0327 57.2619 52.055C57.2069 52.0707 57.1564 52.0994 57.1146 52.1385C57.0729 52.1776 57.0411 52.2261 57.0219 52.28L56.5269 53.495C56.498 53.5479 56.4828 53.6072 56.4828 53.6675C56.4828 53.7278 56.498 53.7871 56.5269 53.84L57.5769 55.43C57.7252 55.6718 57.7767 55.9607 57.721 56.2388C57.6654 56.517 57.5068 56.7638 57.2769 56.93C57.0915 57.0573 56.8718 57.1253 56.6469 57.125C56.4632 57.1247 56.2824 57.0794 56.1203 56.9931C55.9582 56.9068 55.8197 56.7821 55.7169 56.63L54.9519 55.475C54.9 55.4001 54.8228 55.3467 54.7345 55.3246C54.6461 55.3025 54.5528 55.3133 54.4719 55.355L54.1569 55.505C53.8903 55.6403 53.581 55.6641 53.2968 55.5713C53.0127 55.4784 52.7771 55.2765 52.6419 55.01C52.5066 54.7435 52.4828 54.4341 52.5756 54.15C52.6684 53.8659 52.8703 53.6303 53.1369 53.495L54.1269 53C54.2127 52.9598 54.2817 52.8908 54.3219 52.805L55.5219 50.555C55.6184 50.38 55.6516 50.1771 55.6161 49.9804C55.5806 49.7837 55.4785 49.6052 55.3269 49.475L54.2619 48.5C54.1729 48.4231 54.1004 48.3289 54.0489 48.2232C53.9973 48.1175 53.9677 48.0025 53.9619 47.885C53.9533 47.7701 53.9689 47.6547 54.0076 47.5462C54.0464 47.4377 54.1074 47.3385 54.1869 47.255C54.3353 47.1102 54.5345 47.0292 54.7419 47.0292C54.9492 47.0292 55.1484 47.1102 55.2969 47.255L55.4169 47.36C55.4295 47.3757 55.4455 47.3883 55.4637 47.397C55.4818 47.4056 55.5017 47.4101 55.5219 47.4101C55.542 47.4101 55.5619 47.4056 55.58 47.397C55.5982 47.3883 55.6142 47.3757 55.6269 47.36L57.5019 45.5C57.7118 45.3997 57.9476 45.367 58.1769 45.4064C58.4062 45.4457 58.6177 45.5552 58.7822 45.7197C58.9467 45.8842 59.0561 46.0956 59.0955 46.3249C59.1348 46.5542 59.1021 46.7901 59.0019 47L57.5019 48.5C57.4662 48.5381 57.4385 48.5829 57.4205 48.6319C57.4024 48.6808 57.3944 48.7329 57.3969 48.785C57.4013 48.8381 57.4169 48.8896 57.4428 48.9362C57.4686 48.9827 57.5041 49.0232 57.5469 49.055L60.5019 51.35C60.6219 51.4472 60.7213 51.5675 60.7941 51.7037C60.8669 51.84 60.9116 51.9895 60.9256 52.1433C60.9396 52.2971 60.9225 52.4522 60.8755 52.5994C60.8285 52.7465 60.7525 52.8828 60.6519 53Z" fill="#104B8E"/>
</g>
<circle cx="80" cy="80" r="75" stroke="#104B8E" stroke-width="10"/>
<path d="M80 4.38672V154.999" stroke="#104B8E" stroke-width="4"/>
<path d="M156 80L4 80" stroke="#104B8E" stroke-width="4"/>
<g clip-path="url(#clip1_1851_3490)">
<path d="M58.4371 111C57.532 110.989 56.6525 111.301 55.9571 111.88L54.1437 113.427C53.96 113.579 53.7293 113.664 53.4904 113.667C53.2857 113.667 53.0857 113.605 52.9174 113.489C52.7492 113.372 52.6207 113.207 52.5495 113.015C52.4783 112.823 52.4676 112.614 52.5191 112.415C52.5705 112.217 52.6815 112.04 52.8371 111.907L54.6504 110.36C55.7131 109.478 57.0562 109.005 58.4371 109.027H61.6504C61.6955 109.026 61.7401 109.016 61.7814 108.998C61.8226 108.98 61.8597 108.953 61.8904 108.92C61.9221 108.886 61.9467 108.846 61.9627 108.803C61.9788 108.759 61.9859 108.713 61.9837 108.667C61.9086 106.832 61.2288 105.074 60.0504 103.667L61.8904 98.84C61.9296 98.7566 61.95 98.6655 61.95 98.5733C61.95 98.4811 61.9296 98.3901 61.8904 98.3067C61.8509 98.2223 61.7934 98.1475 61.7221 98.0877C61.6507 98.0278 61.5671 97.9842 61.4771 97.96L56.9971 96.6933C56.8379 96.649 56.6679 96.6654 56.52 96.7393C56.3722 96.8132 56.2571 96.9394 56.1971 97.0933L55.1171 100H55.0371C54.9741 99.9729 54.9035 99.9687 54.8378 99.9882C54.772 100.008 54.7151 100.05 54.6771 100.107L53.3437 101.92C53.0401 102.341 52.8846 102.851 52.9015 103.369C52.9184 103.888 53.1067 104.386 53.4371 104.787C53.5775 104.992 53.6363 105.243 53.6017 105.489C53.5672 105.736 53.4419 105.961 53.2504 106.12C53.0781 106.262 52.8605 106.338 52.6371 106.333C52.4852 106.333 52.3354 106.298 52.1991 106.231C52.0628 106.164 51.9436 106.067 51.8504 105.947C51.261 105.207 50.9291 104.295 50.905 103.349C50.881 102.403 51.1661 101.476 51.7171 100.707L52.6104 99.3733V99.2667C52.6072 99.2478 52.5974 99.2308 52.5827 99.2185C52.5681 99.2063 52.5495 99.1997 52.5304 99.2V96.6667C52.5304 96.4899 52.4602 96.3203 52.3351 96.1953C52.2101 96.0702 52.0406 96 51.8637 96H47.2637C47.0869 96 46.9174 96.0702 46.7923 96.1953C46.6673 96.3203 46.5971 96.4899 46.5971 96.6667V98.96C46.5949 99.0411 46.5644 99.1189 46.5108 99.1798C46.4572 99.2407 46.3839 99.2809 46.3037 99.2933C45.2926 99.421 44.32 99.7618 43.4504 100.293C43.3795 100.339 43.2936 100.354 43.2112 100.337C43.1289 100.32 43.0567 100.27 43.0104 100.2L41.2771 97.6267C41.187 97.4913 41.0505 97.3936 40.8933 97.3518C40.7361 97.3101 40.5691 97.3272 40.4237 97.4L36.4237 99.4C36.3399 99.4437 36.2659 99.5041 36.2063 99.5775C36.1467 99.6509 36.1027 99.7357 36.0771 99.8267C36.0525 99.9191 36.0481 100.016 36.0642 100.11C36.0803 100.204 36.1165 100.294 36.1704 100.373L38.6904 104.187C37.2972 106.261 36.7487 108.788 37.1571 111.253C37.1601 111.301 37.1736 111.347 37.1967 111.388C37.2198 111.43 37.2518 111.466 37.2904 111.493C37.3322 111.513 37.3777 111.522 37.4237 111.522C37.4698 111.522 37.5152 111.513 37.5571 111.493L39.5571 111.027C41.9571 110.467 42.2237 110.4 43.4371 109.013C43.5015 108.939 43.5781 108.876 43.6637 108.827C43.6637 108.733 43.7971 108.667 43.8771 108.573C44.3837 108 45.0237 107.24 45.9037 106.347C45.9829 106.225 46.0876 106.122 46.2107 106.044C46.3338 105.967 46.4723 105.917 46.6165 105.899C46.7607 105.881 46.9072 105.894 47.0457 105.938C47.1842 105.982 47.3115 106.056 47.4186 106.154C47.5257 106.253 47.6101 106.373 47.6659 106.507C47.7217 106.641 47.7476 106.786 47.7417 106.931C47.7359 107.077 47.6984 107.219 47.632 107.348C47.5656 107.477 47.4717 107.591 47.3571 107.68C46.6771 108.413 46.1437 109.013 45.7037 109.507C45.6653 109.564 45.6448 109.631 45.6448 109.7C45.6448 109.769 45.6653 109.836 45.7037 109.893L46.6237 111.467C46.7581 111.697 46.7957 111.97 46.7282 112.228C46.6607 112.485 46.4936 112.706 46.2637 112.84C46.0339 112.974 45.7601 113.012 45.5025 112.944C45.245 112.877 45.0248 112.71 44.8904 112.48L44.3704 111.587C44.3479 111.544 44.3156 111.507 44.2762 111.48C44.2368 111.452 44.1914 111.434 44.1437 111.427C44.095 111.417 44.0448 111.418 43.9965 111.43C43.9482 111.441 43.9029 111.463 43.8637 111.493C42.7547 112.324 41.4418 112.84 40.0637 112.987C39.4771 113.12 38.7304 113.28 37.9304 113.493C37.8425 113.515 37.7668 113.571 37.7195 113.648C37.6721 113.726 37.6569 113.818 37.6771 113.907C37.9732 115.091 38.361 116.25 38.8371 117.373L46.4371 118.32C46.567 118.335 46.6927 118.375 46.8069 118.439C46.921 118.503 47.0214 118.589 47.102 118.692C47.1827 118.795 47.242 118.913 47.2766 119.039C47.3113 119.165 47.3205 119.297 47.3037 119.427C47.2745 119.668 47.1582 119.891 46.9766 120.053C46.7949 120.215 46.5605 120.305 46.3171 120.307H46.1437L40.4237 119.587C40.364 119.58 40.3036 119.59 40.2493 119.616C40.1951 119.642 40.1492 119.683 40.1171 119.733C40.0821 119.784 40.0634 119.845 40.0634 119.907C40.0634 119.969 40.0821 120.029 40.1171 120.08C42.3971 124.227 45.9037 128 49.3437 128C51.5704 128 53.9037 126.4 56.0104 124.093C56.0492 124.048 56.0757 123.994 56.0874 123.935C56.0991 123.877 56.0955 123.817 56.0771 123.76C56.0591 123.703 56.026 123.652 55.9815 123.612C55.9369 123.572 55.8824 123.545 55.8237 123.533L54.4904 123.32C53.0534 123.092 51.7644 122.306 50.9037 121.133L49.2237 118.547C49.152 118.436 49.1026 118.313 49.0785 118.184C49.0544 118.054 49.056 117.921 49.0832 117.793C49.1382 117.533 49.2943 117.305 49.5171 117.16C49.7399 117.015 50.0111 116.964 50.2712 117.019C50.5312 117.074 50.7588 117.231 50.9037 117.453L52.5437 120C53.0907 120.723 53.9001 121.202 54.7971 121.333L57.4637 121.787C57.5262 121.799 57.5908 121.792 57.6499 121.769C57.709 121.745 57.76 121.705 57.7971 121.653C58.8465 120.115 59.7398 118.476 60.4637 116.76C61.1864 115.032 61.6795 113.216 61.9304 111.36C61.9323 111.269 61.9042 111.18 61.8504 111.107C61.8194 111.069 61.7807 111.039 61.737 111.019C61.6932 110.998 61.6455 110.987 61.5971 110.987L58.4371 111Z" fill="#104B8E"/>
</g>
<g clip-path="url(#clip2_1851_3490)">
<path fill-rule="evenodd" clip-rule="evenodd" d="M109.311 40.9088C109.19 40.9125 109.056 40.9149 108.912 40.9149C108.228 40.9149 107.28 40.8625 106.223 40.6511C104.48 40.3025 102.364 39.5035 100.679 37.7263C98.9933 39.5035 96.8768 40.3025 95.1338 40.6511C94.0767 40.8625 93.1294 40.9149 92.4455 40.9149C92.3007 40.9149 92.1671 40.9125 92.0461 40.9088C91.9186 41.5059 91.8516 42.1254 91.8516 42.7606C91.8516 47.6356 95.8035 51.5876 100.679 51.5876C101.692 51.5876 102.665 51.417 103.571 51.1029C103.124 51.9558 102.767 52.8634 102.513 53.8131C101.916 53.9114 101.303 53.9626 100.679 53.9626C94.4919 53.9626 89.4766 48.9474 89.4766 42.7606C89.4766 38.6414 91.6999 35.0415 95.012 33.0955C96.4691 32.1911 98.3313 31.5586 100.679 31.5586C102.339 31.5586 103.759 31.8871 104.966 32.4082C109.025 34.0911 111.881 38.0924 111.881 42.7606C111.881 43.3447 111.836 43.9184 111.75 44.4784C110.803 44.7422 109.899 45.1085 109.051 45.5645C109.346 44.6836 109.506 43.7408 109.506 42.7606C109.506 42.1254 109.438 41.5059 109.311 40.9088ZM97.135 44.7407C97.9733 44.7407 98.6529 44.0611 98.6529 43.2228C98.6529 42.3844 97.9733 41.7048 97.135 41.7048C96.2966 41.7048 95.617 42.3844 95.617 43.2228C95.617 44.0611 96.2966 44.7407 97.135 44.7407ZM104.068 44.7407C104.906 44.7407 105.586 44.0611 105.586 43.2228C105.586 42.3844 104.906 41.7048 104.068 41.7048C103.23 41.7048 102.55 42.3844 102.55 43.2228C102.55 44.0611 103.23 44.7407 104.068 44.7407ZM97.1109 46.1919C97.5984 45.7531 98.3492 45.7926 98.788 46.2801C99.6795 47.2708 101.355 47.3377 102.458 46.2348C102.922 45.7711 103.674 45.7711 104.137 46.2348C104.601 46.6986 104.601 47.4505 104.137 47.9142C102.159 49.8928 98.9044 49.9597 97.0226 47.8689C96.5839 47.3814 96.6234 46.6306 97.1109 46.1919ZM111.902 60.6743C112.389 60.2356 113.14 60.2752 113.579 60.7627C114.47 61.7532 116.146 61.8203 117.249 60.7174C117.713 60.2536 118.464 60.2536 118.928 60.7174C119.392 61.1811 119.392 61.9329 118.928 62.3967C116.95 64.3752 113.695 64.4422 111.813 62.3514C111.375 61.864 111.414 61.1131 111.902 60.6743ZM104.113 57.2431C104.113 53.0631 106.403 49.4176 109.796 47.4927C109.842 47.4668 109.888 47.4413 109.934 47.416C110.734 46.9767 111.594 46.6323 112.499 46.3981C112.5 46.2485 112.502 46.0871 112.506 45.9156C112.531 44.9563 112.62 43.6633 112.883 42.3592C113.143 41.0672 113.586 39.6951 114.362 38.629C115.16 37.5321 116.325 36.7483 117.934 36.7483C120.87 36.7483 122.917 38.3313 124.198 39.8726C124.839 40.6443 125.303 41.4208 125.608 42.0209C125.761 42.3215 125.877 42.5821 125.956 42.781C125.996 42.88 126.028 42.9677 126.052 43.0402C126.064 43.0761 126.076 43.1134 126.086 43.1496L126.086 43.1514C126.092 43.1731 126.112 43.2459 126.119 43.3304C126.133 43.5073 126.086 43.6566 126.072 43.7018C126.049 43.7771 126.018 43.8526 125.985 43.9221C125.919 44.0626 125.826 44.2217 125.707 44.3856C125.469 44.713 125.104 45.0927 124.593 45.3844C123.515 45.9992 121.978 46.1204 120.01 45.0083C119.001 44.4379 118.509 44.4654 118.315 44.5338C118.15 44.592 117.975 44.764 117.851 45.2061C117.757 45.5391 117.722 45.9298 117.719 46.2997C118.687 46.5114 119.608 46.8482 120.465 47.2923C120.617 47.3713 120.767 47.4536 120.915 47.5393C124.264 49.476 126.517 53.0965 126.517 57.2431C126.517 63.4298 121.502 68.4452 115.315 68.4452C109.128 68.4452 104.113 63.4298 104.113 57.2431ZM106.488 57.2431C106.488 56.6099 106.555 55.9924 106.681 55.3969C107.61 55.3901 108.932 55.2992 110.346 54.9401C111.994 54.5218 113.842 53.7192 115.314 52.1962C116.812 53.7494 118.694 54.5541 120.357 54.9658C121.752 55.3108 123.047 55.3939 123.949 55.3972C124.075 55.9926 124.142 56.6101 124.142 57.2431C124.142 62.1182 120.19 66.0702 115.315 66.0702C110.44 66.0702 106.488 62.1182 106.488 57.2431ZM113.444 57.7054C113.444 58.5436 112.764 59.2234 111.926 59.2234C111.087 59.2234 110.408 58.5436 110.408 57.7054C110.408 56.867 111.087 56.1873 111.926 56.1873C112.764 56.1873 113.444 56.867 113.444 57.7054ZM118.859 59.2234C119.697 59.2234 120.377 58.5436 120.377 57.7054C120.377 56.867 119.697 56.1873 118.859 56.1873C118.02 56.1873 117.341 56.867 117.341 57.7054C117.341 58.5436 118.02 59.2234 118.859 59.2234Z" fill="#104B8E"/>
</g>
<path fill-rule="evenodd" clip-rule="evenodd" d="M106.839 98.2787C106.839 95.5424 109.057 93.3242 111.794 93.3242C114.53 93.3242 116.748 95.5424 116.748 98.2787C116.748 101.015 114.53 103.233 111.794 103.233C109.057 103.233 106.839 101.015 106.839 98.2787ZM101.772 106.439C102.254 104.467 103.805 103.484 105.322 103.484C106.827 103.484 108.614 104.621 109.072 106.436C109.339 107.498 109.615 108.571 109.891 109.646C110.513 112.066 111.137 114.496 111.677 116.838C111.678 116.846 111.68 116.853 111.681 116.861C111.749 117.26 111.734 117.668 111.638 118.061C111.543 118.454 111.368 118.823 111.125 119.146C110.882 119.469 110.576 119.739 110.225 119.94C109.874 120.141 109.486 120.268 109.084 120.314C108.682 120.36 108.276 120.323 107.889 120.207C107.551 120.105 107.235 119.945 106.954 119.733C106.657 119.465 106.452 119.154 106.359 118.842L105.322 115.166C105.156 114.532 105.071 113.812 104.437 113.979C103.802 114.146 103.874 114.532 104.041 115.166L104.437 116.354L104.832 117.541C105.228 118.729 105.071 118.272 105.322 118.842C105.838 120.008 106.02 120.312 106.493 120.708V127.053C106.493 129.053 104.872 130.675 102.872 130.675C100.871 130.675 99.25 129.053 99.25 127.053V117.416C99.25 117.385 99.2535 117.355 99.2603 117.326C99.5398 116.126 99.8429 114.788 100.156 113.406C100.688 111.059 101.249 108.584 101.772 106.439Z" fill="#104B8E"/>
<path d="M113.25 121.046V130.448C113.252 130.594 113.312 130.734 113.417 130.837C113.522 130.941 113.664 130.999 113.812 131.001H114.562C114.712 131.001 114.855 130.943 114.96 130.839C115.066 130.736 115.125 130.595 115.125 130.448V121.046C115.125 120.117 114.75 119.226 114.082 118.569C113.413 117.912 112.507 117.543 111.562 117.543C110.618 117.543 109.712 117.912 109.043 118.569C108.375 119.226 108 120.117 108 121.046C108 121.29 108.099 121.525 108.275 121.698C108.45 121.871 108.689 121.968 108.938 121.968C109.186 121.968 109.425 121.871 109.6 121.698C109.776 121.525 109.875 121.29 109.875 121.046C109.875 120.606 110.053 120.184 110.369 119.873C110.686 119.561 111.115 119.387 111.562 119.387C112.01 119.387 112.439 119.561 112.756 119.873C113.072 120.184 113.25 120.606 113.25 121.046Z" fill="#104B8E"/>
<defs>
<clipPath id="clip0_1851_3490">
<rect width="36" height="36" fill="white" transform="translate(29 29)"/>
</clipPath>
<clipPath id="clip1_1851_3490">
<rect width="32" height="32" fill="white" transform="translate(33 96)"/>
</clipPath>
<clipPath id="clip2_1851_3490">
<rect width="38" height="38" fill="white" transform="translate(89 31)"/>
</clipPath>
</defs>
</svg>
