<svg width="48" height="48" viewBox="0 0 48 48" fill="none" xmlns="http://www.w3.org/2000/svg">
<g clip-path="url(#clip0_1127_3142)">
<path d="M39.6133 17.72L34.3999 12.6667C33.0342 11.3683 31.2176 10.6512 29.3333 10.6667C29.1866 10.6667 28.7599 10.5734 28.6666 11.0667C28.5141 12.2129 27.9628 13.2687 27.1094 14.049C26.2561 14.8292 25.1551 15.2839 23.9999 15.3334C22.847 15.2809 21.7493 14.8248 20.8987 14.0448C20.048 13.2649 19.4986 12.2107 19.3466 11.0667C19.2533 10.5734 18.8133 10.7067 18.6799 10.6667C16.791 10.6477 14.9689 11.3651 13.5999 12.6667L8.38659 17.72C8.26161 17.844 8.16242 17.9915 8.09473 18.1539C8.02704 18.3164 7.99219 18.4907 7.99219 18.6667C7.99219 18.8427 8.02704 19.017 8.09473 19.1795C8.16242 19.3419 8.26161 19.4894 8.38659 19.6134L11.4933 22.7067C11.729 22.956 12.0518 23.1049 12.3945 23.1223C12.7373 23.1397 13.0735 23.0242 13.3333 22.8L14.9866 21.4667C15.0854 21.3887 15.2047 21.3409 15.3301 21.329C15.4554 21.3172 15.5816 21.3419 15.6933 21.4C15.7931 21.4638 15.8741 21.553 15.928 21.6584C15.9819 21.7639 16.0067 21.8818 15.9999 22V34.6667C15.9999 35.0203 16.1404 35.3595 16.3904 35.6095C16.6405 35.8596 16.9796 36 17.3333 36H30.6666C31.0202 36 31.3593 35.8596 31.6094 35.6095C31.8594 35.3595 31.9999 35.0203 31.9999 34.6667V22C31.9997 21.8751 32.0345 21.7526 32.1005 21.6465C32.1666 21.5404 32.2611 21.455 32.3733 21.4C32.4849 21.3419 32.6111 21.3172 32.7364 21.329C32.8618 21.3409 32.9811 21.3887 33.0799 21.4667L34.7199 22.7334C34.9747 22.9438 35.2985 23.0521 35.6287 23.0373C35.9588 23.0226 36.2716 22.8857 36.5066 22.6534L39.6133 19.56C39.8496 19.3121 39.9815 18.9826 39.9815 18.64C39.9815 18.2974 39.8496 17.968 39.6133 17.72Z" fill="#3880D1"/>
</g>
<circle cx="24" cy="24" r="22.5" stroke="#104B8E" stroke-width="3"/>
<defs>
<clipPath id="clip0_1127_3142">
<rect width="32" height="32" fill="white" transform="translate(8 7.33325)"/>
</clipPath>
</defs>
</svg>
