<svg width="160" height="160" viewBox="0 0 160 160" fill="none" xmlns="http://www.w3.org/2000/svg">
<g clip-path="url(#clip0_1851_3813)">
<path fill-rule="evenodd" clip-rule="evenodd" d="M77.1227 45.9801C77.1227 39.1954 82.6225 33.6953 89.4073 33.6953C96.1921 33.6953 101.692 39.1954 101.692 45.9801C101.692 52.7647 96.1921 58.2648 89.4073 58.2648C82.6225 58.2648 77.1227 52.7647 77.1227 45.9801ZM64.5587 66.2132C65.7521 61.3245 69.5994 58.888 73.3616 58.8879C77.0917 58.8879 81.524 61.7048 82.6578 66.2063C83.3209 68.8402 84.0048 71.5006 84.6895 74.166C86.2312 80.1652 87.7796 86.1903 89.1172 91.9987C89.1215 92.0175 89.1254 92.0364 89.1285 92.0556C89.2954 93.0442 89.2593 94.0563 89.0222 95.0303C88.785 96.0043 88.352 96.9198 87.7494 97.7207C87.1467 98.522 86.3875 99.1922 85.5175 99.69C84.6471 100.188 83.6849 100.503 82.6889 100.617C81.6928 100.731 80.6843 100.64 79.7244 100.351C78.8874 100.099 78.1026 99.7014 77.4065 99.1761C76.6716 98.5134 76.1616 97.7411 75.9308 96.967L73.3616 87.8532C72.9478 86.2804 72.7378 84.4953 71.1651 84.9087C69.5924 85.3225 69.77 86.2804 70.1836 87.8532L71.1651 90.7976L72.1465 93.742C73.128 96.6865 72.7376 95.5544 73.3616 96.967C74.6391 99.8586 75.091 100.612 76.2641 101.594V117.327C76.2641 122.286 72.2439 126.307 67.2844 126.307C62.325 126.307 58.3047 122.286 58.3047 117.327V93.4309C58.3047 93.3559 58.3133 93.2809 58.3303 93.2079C59.0232 90.234 59.7748 86.9166 60.5515 83.4881C61.8697 77.6698 63.2603 71.5319 64.5587 66.2132Z" fill="#104B8E"/>
<path d="M93.0175 102.428V125.741C93.0224 126.103 93.1709 126.449 93.4314 126.706C93.6919 126.962 94.0439 127.108 94.4123 127.113H96.2719C96.6418 127.113 96.9966 126.968 97.2582 126.711C97.5197 126.454 97.6667 126.105 97.6667 125.741V102.428C97.6667 100.124 96.736 97.9149 95.0794 96.2861C93.4229 94.6573 91.1761 93.7422 88.8333 93.7422C86.4906 93.7422 84.2438 94.6573 82.5872 96.2861C80.9307 97.9149 80 100.124 80 102.428C80 103.034 80.2449 103.615 80.6808 104.044C81.1168 104.472 81.708 104.713 82.3246 104.713C82.9411 104.713 83.5323 104.472 83.9683 104.044C84.4042 103.615 84.6491 103.034 84.6491 102.428C84.6491 101.336 85.09 100.29 85.8747 99.5185C86.6593 98.7469 87.7236 98.3135 88.8333 98.3135C89.9431 98.3135 91.0073 98.7469 91.792 99.5185C92.5767 100.29 93.0175 101.336 93.0175 102.428Z" fill="#104B8E"/>
</g>
<circle cx="80" cy="80" r="75" stroke="#104B8E" stroke-width="10"/>
<defs>
<clipPath id="clip0_1851_3813">
<rect width="94.2222" height="94.2222" fill="white" transform="translate(32.8906 32.8906)"/>
</clipPath>
</defs>
</svg>
