<svg width="160" height="160" viewBox="0 0 160 160" fill="none" xmlns="http://www.w3.org/2000/svg">
<path d="M50.7291 107.463C50.6261 107.418 50.5363 107.347 50.4683 107.259C50.4003 107.17 50.3562 107.065 50.3403 106.955C50.3244 106.845 50.3371 106.732 50.3773 106.628C50.4174 106.524 50.4837 106.432 50.5699 106.36C51.6499 105.55 52.4494 104.428 52.858 103.15C53.2667 101.871 53.2645 100.499 52.8517 99.2217C52.5429 98.1842 51.9714 97.2419 51.1913 96.4841C50.4113 95.7263 49.4485 95.178 48.3942 94.8914C47.4056 94.6061 46.3634 94.5525 45.3503 94.7347C44.3371 94.917 43.3807 95.33 42.5569 95.9411C41.7331 96.5523 41.0644 97.3448 40.6039 98.2558C40.1433 99.1669 39.9036 100.171 39.9036 101.19C39.8973 102.21 40.1343 103.217 40.5953 104.129C41.0564 105.041 41.7284 105.832 42.5569 106.439C42.6431 106.511 42.7093 106.603 42.7495 106.707C42.7897 106.811 42.8024 106.924 42.7865 107.034C42.7705 107.144 42.7265 107.249 42.6585 107.337C42.5905 107.426 42.5007 107.496 42.3977 107.541C40.8806 108.288 39.599 109.431 38.6916 110.847C37.7843 112.262 37.2858 113.896 37.2503 115.572C37.2467 115.748 37.2783 115.923 37.343 116.086C37.4078 116.25 37.5046 116.4 37.6278 116.526C37.751 116.653 37.8982 116.755 38.0611 116.825C38.2239 116.895 38.3992 116.933 38.5769 116.937H54.4968C54.6745 116.933 54.8498 116.895 55.0126 116.825C55.1755 116.755 55.3227 116.653 55.4459 116.526C55.5691 116.4 55.6659 116.25 55.7307 116.086C55.7954 115.923 55.827 115.748 55.8234 115.572C55.8073 113.888 55.3236 112.241 54.4252 110.811C53.5267 109.381 52.2481 108.223 50.7291 107.463Z" fill="#104B8E"/>
<path d="M73.1666 107.464C73.0636 107.419 72.9738 107.349 72.9058 107.26C72.8378 107.171 72.7937 107.067 72.7778 106.956C72.7619 106.846 72.7746 106.734 72.8148 106.63C72.8549 106.526 72.9212 106.433 73.0074 106.362C74.0874 105.551 74.8869 104.43 75.2955 103.151C75.7042 101.873 75.702 100.5 75.2892 99.2231C74.9727 98.1953 74.3977 97.2637 73.6181 96.5156C72.8386 95.7674 71.8798 95.2271 70.8317 94.9452C69.3478 94.5035 67.7541 94.5918 66.3293 95.1946C64.9046 95.7975 63.7394 96.8765 63.0376 98.2431C62.3357 99.6097 62.1418 101.177 62.4898 102.67C62.8378 104.164 63.7056 105.489 64.9413 106.414C65.0275 106.486 65.0938 106.578 65.1339 106.682C65.1741 106.786 65.1868 106.899 65.1709 107.009C65.155 107.119 65.1109 107.224 65.0429 107.312C64.9749 107.401 64.8851 107.471 64.7821 107.516C63.271 108.272 61.9976 109.423 61.0997 110.843C60.2018 112.263 59.7135 113.899 59.6878 115.574C59.6842 115.749 59.7158 115.924 59.7805 116.088C59.8453 116.251 59.9421 116.401 60.0653 116.528C60.1885 116.654 60.3357 116.756 60.4986 116.826C60.6614 116.897 60.8367 116.935 61.0144 116.938H76.9343C77.112 116.935 77.2873 116.897 77.4501 116.826C77.613 116.756 77.7602 116.654 77.8834 116.528C78.0066 116.401 78.1034 116.251 78.1682 116.088C78.2329 115.924 78.2645 115.749 78.2609 115.574C78.2448 113.89 77.7611 112.243 76.8627 110.813C75.9642 109.382 74.6856 108.224 73.1666 107.464Z" fill="#104B8E"/>
<path d="M95.8931 107.464C95.7901 107.419 95.7004 107.349 95.6324 107.26C95.5643 107.171 95.5203 107.067 95.5044 106.956C95.4884 106.846 95.5012 106.734 95.5413 106.63C95.5815 106.526 95.6478 106.433 95.7339 106.362C96.814 105.551 97.6134 104.43 98.0221 103.151C98.4308 101.873 98.4286 100.5 98.0158 99.2231C97.6993 98.1953 97.1243 97.2637 96.3447 96.5156C95.5651 95.7674 94.6064 95.2271 93.5582 94.9452C92.0743 94.5035 90.4807 94.5918 89.0559 95.1946C87.6312 95.7975 86.466 96.8765 85.7641 98.2431C85.0623 99.6097 84.8684 101.177 85.2164 102.67C85.5644 104.164 86.4321 105.489 87.6679 106.414C87.7541 106.486 87.8203 106.578 87.8605 106.682C87.9007 106.786 87.9134 106.899 87.8975 107.009C87.8815 107.119 87.8375 107.224 87.7695 107.312C87.7015 107.401 87.6117 107.471 87.5087 107.516C85.9896 108.276 84.711 109.435 83.8126 110.865C82.9142 112.295 82.4305 113.942 82.4143 115.626C82.4108 115.802 82.4423 115.977 82.5071 116.14C82.5719 116.304 82.6686 116.453 82.7918 116.58C82.915 116.707 83.0623 116.808 83.2251 116.879C83.388 116.949 83.5633 116.987 83.741 116.991H99.6608C99.8386 116.987 100.014 116.949 100.177 116.879C100.34 116.808 100.487 116.707 100.61 116.58C100.733 116.453 100.83 116.304 100.895 116.14C100.959 115.977 100.991 115.802 100.988 115.626C100.981 113.933 100.502 112.275 99.603 110.835C98.704 109.395 97.4202 108.228 95.8931 107.464Z" fill="#104B8E"/>
<path d="M118.628 107.464C118.524 107.419 118.435 107.349 118.367 107.26C118.299 107.171 118.255 107.067 118.239 106.956C118.223 106.846 118.236 106.734 118.276 106.63C118.316 106.526 118.382 106.433 118.468 106.362C119.548 105.551 120.348 104.43 120.756 103.151C121.165 101.873 121.163 100.5 120.75 99.2231C120.434 98.1953 119.859 97.2637 119.079 96.5156C118.3 95.7674 117.341 95.2271 116.293 94.9452C114.809 94.5035 113.215 94.5918 111.79 95.1946C110.366 95.7975 109.2 96.8765 108.498 98.2431C107.797 99.6097 107.603 101.177 107.951 102.67C108.299 104.164 109.167 105.489 110.402 106.414C110.488 106.486 110.555 106.578 110.595 106.682C110.635 106.786 110.648 106.899 110.632 107.009C110.616 107.119 110.572 107.224 110.504 107.312C110.436 107.401 110.346 107.471 110.243 107.516C108.724 108.276 107.445 109.435 106.547 110.865C105.649 112.295 105.165 113.942 105.149 115.626C105.145 115.802 105.177 115.977 105.241 116.14C105.306 116.304 105.403 116.453 105.526 116.58C105.649 116.707 105.797 116.808 105.959 116.879C106.122 116.949 106.298 116.987 106.475 116.991H122.395C122.573 116.987 122.748 116.949 122.911 116.879C123.074 116.808 123.221 116.707 123.344 116.58C123.468 116.453 123.564 116.304 123.629 116.14C123.694 115.977 123.725 115.802 123.722 115.626C123.715 113.933 123.236 112.275 122.337 110.835C121.438 109.395 120.155 108.228 118.628 107.464Z" fill="#104B8E"/>
<path d="M50.7291 80.1618C50.6261 80.1168 50.5363 80.0466 50.4683 79.9578C50.4003 79.8691 50.3562 79.7646 50.3403 79.6543C50.3244 79.5441 50.3371 79.4316 50.3773 79.3275C50.4174 79.2235 50.4837 79.1312 50.5699 79.0595C51.6499 78.2492 52.4494 77.1275 52.858 75.849C53.2667 74.5705 53.2645 73.1981 52.8517 71.9209C52.5429 70.8835 51.9714 69.9411 51.1913 69.1833C50.4113 68.4255 49.4485 67.8773 48.3942 67.5906C47.4056 67.3054 46.3634 67.2517 45.3503 67.434C44.3371 67.6162 43.3807 68.0292 42.5569 68.6404C41.7331 69.2515 41.0644 70.044 40.6039 70.9551C40.1433 71.8661 39.9036 72.8707 39.9036 73.8893C39.8973 74.909 40.1343 75.9157 40.5953 76.8278C41.0564 77.7398 41.7284 78.5314 42.5569 79.1382C42.6431 79.21 42.7093 79.3022 42.7495 79.4063C42.7897 79.5103 42.8024 79.6228 42.7865 79.7331C42.7705 79.8433 42.7265 79.9478 42.6585 80.0366C42.5905 80.1253 42.5007 80.1955 42.3977 80.2405C40.8806 80.9872 39.599 82.1303 38.6916 83.5459C37.7843 84.9615 37.2858 86.5956 37.2503 88.2714C37.2467 88.4472 37.2783 88.6219 37.343 88.7856C37.4078 88.9494 37.5046 89.0989 37.6278 89.2256C37.751 89.3523 37.8982 89.4538 38.0611 89.5243C38.2239 89.5947 38.3992 89.6327 38.5769 89.6361H54.4968C54.6745 89.6327 54.8498 89.5947 55.0126 89.5243C55.1755 89.4538 55.3227 89.3523 55.4459 89.2256C55.5691 89.0989 55.6659 88.9494 55.7307 88.7856C55.7954 88.6219 55.827 88.4472 55.8234 88.2714C55.8073 86.5877 55.3236 84.9407 54.4252 83.5105C53.5267 82.0803 52.2481 80.9218 50.7291 80.1618Z" fill="#104B8E"/>
<path d="M73.1666 80.1631C73.0636 80.1181 72.9738 80.048 72.9058 79.9592C72.8378 79.8704 72.7937 79.766 72.7778 79.6557C72.7619 79.5454 72.7746 79.4329 72.8148 79.3289C72.8549 79.2248 72.9212 79.1326 73.0074 79.0608C74.0874 78.2505 74.8869 77.1288 75.2955 75.8503C75.7042 74.5719 75.702 73.1995 75.2892 71.9223C74.9727 70.8945 74.3977 69.963 73.6181 69.2148C72.8386 68.4666 71.8798 67.9263 70.8317 67.6444C69.3478 67.2027 67.7541 67.291 66.3293 67.8939C64.9046 68.4967 63.7394 69.5758 63.0376 70.9423C62.3357 72.3089 62.1418 73.876 62.4898 75.3697C62.8378 76.8633 63.7056 78.1884 64.9413 79.1133C65.0275 79.1851 65.0938 79.2773 65.1339 79.3814C65.1741 79.4854 65.1868 79.5979 65.1709 79.7082C65.155 79.8184 65.1109 79.9229 65.0429 80.0117C64.9749 80.1004 64.8851 80.1706 64.7821 80.2156C63.271 80.9716 61.9976 82.1218 61.0997 83.5419C60.2018 84.962 59.7135 86.598 59.6878 88.2727C59.6842 88.4485 59.7158 88.6233 59.7805 88.787C59.8453 88.9507 59.9421 89.1002 60.0653 89.227C60.1885 89.3537 60.3357 89.4552 60.4986 89.5256C60.6614 89.596 60.8367 89.6341 61.0144 89.6375H76.9343C77.112 89.6341 77.2873 89.596 77.4501 89.5256C77.613 89.4552 77.7602 89.3537 77.8834 89.227C78.0066 89.1002 78.1034 88.9507 78.1682 88.787C78.2329 88.6233 78.2645 88.4485 78.2609 88.2727C78.2448 86.589 77.7611 84.942 76.8627 83.5118C75.9642 82.0816 74.6856 80.9232 73.1666 80.1631Z" fill="#104B8E"/>
<path d="M95.8931 80.1631C95.7901 80.1181 95.7004 80.048 95.6324 79.9592C95.5643 79.8704 95.5203 79.766 95.5044 79.6557C95.4884 79.5454 95.5012 79.4329 95.5413 79.3289C95.5815 79.2248 95.6478 79.1326 95.7339 79.0608C96.814 78.2505 97.6134 77.1288 98.0221 75.8503C98.4308 74.5719 98.4286 73.1995 98.0158 71.9223C97.6993 70.8945 97.1243 69.963 96.3447 69.2148C95.5651 68.4666 94.6064 67.9263 93.5582 67.6444C92.0743 67.2027 90.4807 67.291 89.0559 67.8939C87.6312 68.4967 86.466 69.5758 85.7641 70.9423C85.0623 72.3089 84.8684 73.876 85.2164 75.3697C85.5644 76.8633 86.4321 78.1884 87.6679 79.1133C87.7541 79.1851 87.8203 79.2773 87.8605 79.3814C87.9007 79.4854 87.9134 79.5979 87.8975 79.7082C87.8815 79.8184 87.8375 79.9229 87.7695 80.0117C87.7015 80.1004 87.6117 80.1706 87.5087 80.2156C85.9896 80.9757 84.711 82.1341 83.8126 83.5643C82.9142 84.9945 82.4305 86.6415 82.4143 88.3252C82.4108 88.501 82.4423 88.6758 82.5071 88.8395C82.5719 89.0032 82.6686 89.1527 82.7918 89.2794C82.915 89.4062 83.0623 89.5077 83.2251 89.5781C83.388 89.6485 83.5633 89.6865 83.741 89.69H99.6608C99.8386 89.6865 100.014 89.6485 100.177 89.5781C100.34 89.5077 100.487 89.4062 100.61 89.2794C100.733 89.1527 100.83 89.0032 100.895 88.8395C100.959 88.6758 100.991 88.501 100.988 88.3252C100.981 86.6325 100.502 84.9745 99.603 83.5342C98.704 82.0939 97.4202 80.9272 95.8931 80.1631Z" fill="#104B8E"/>
<path d="M118.628 80.1631C118.524 80.1181 118.435 80.048 118.367 79.9592C118.299 79.8704 118.255 79.766 118.239 79.6557C118.223 79.5454 118.236 79.4329 118.276 79.3289C118.316 79.2248 118.382 79.1326 118.468 79.0608C119.548 78.2505 120.348 77.1288 120.756 75.8503C121.165 74.5719 121.163 73.1995 120.75 71.9223C120.434 70.8945 119.859 69.963 119.079 69.2148C118.3 68.4666 117.341 67.9263 116.293 67.6444C114.809 67.2027 113.215 67.291 111.79 67.8939C110.366 68.4967 109.2 69.5758 108.498 70.9423C107.797 72.3089 107.603 73.876 107.951 75.3697C108.299 76.8633 109.167 78.1884 110.402 79.1133C110.488 79.1851 110.555 79.2773 110.595 79.3814C110.635 79.4854 110.648 79.5979 110.632 79.7082C110.616 79.8184 110.572 79.9229 110.504 80.0117C110.436 80.1004 110.346 80.1706 110.243 80.2156C108.724 80.9757 107.445 82.1341 106.547 83.5643C105.649 84.9945 105.165 86.6415 105.149 88.3252C105.145 88.501 105.177 88.6758 105.241 88.8395C105.306 89.0032 105.403 89.1527 105.526 89.2794C105.649 89.4062 105.797 89.5077 105.959 89.5781C106.122 89.6485 106.298 89.6865 106.475 89.69H122.395C122.573 89.6865 122.748 89.6485 122.911 89.5781C123.074 89.5077 123.221 89.4062 123.344 89.2794C123.468 89.1527 123.564 89.0032 123.629 88.8395C123.694 88.6758 123.725 88.501 123.722 88.3252C123.715 86.6325 123.236 84.9745 122.337 83.5342C121.438 82.0939 120.155 80.9272 118.628 80.1631Z" fill="#104B8E"/>
<path d="M50.7291 52.8649C50.6261 52.8199 50.5363 52.7497 50.4683 52.661C50.4003 52.5722 50.3562 52.4677 50.3403 52.3575C50.3244 52.2472 50.3371 52.1347 50.3773 52.0307C50.4174 51.9266 50.4837 51.8343 50.5699 51.7626C51.6499 50.9523 52.4494 49.8306 52.858 48.5521C53.2667 47.2736 53.2645 45.9013 52.8517 44.6241C52.5429 43.5866 51.9714 42.6443 51.1913 41.8864C50.4113 41.1286 49.4485 40.5804 48.3942 40.2937C47.4056 40.0085 46.3634 39.9549 45.3503 40.1371C44.3371 40.3193 43.3807 40.7323 42.5569 41.3435C41.7331 41.9546 41.0644 42.7471 40.6039 43.6582C40.1433 44.5692 39.9036 45.5738 39.9036 46.5924C39.8973 47.6121 40.1343 48.6189 40.5953 49.5309C41.0564 50.4429 41.7284 51.2345 42.5569 51.8414C42.6431 51.9131 42.7093 52.0053 42.7495 52.1094C42.7897 52.2135 42.8024 52.3259 42.7865 52.4362C42.7705 52.5465 42.7265 52.6509 42.6585 52.7397C42.5905 52.8285 42.5007 52.8987 42.3977 52.9436C40.8806 53.6903 39.599 54.8334 38.6916 56.249C37.7843 57.6646 37.2858 59.2988 37.2503 60.9745C37.2467 61.1503 37.2783 61.325 37.343 61.4888C37.4078 61.6525 37.5046 61.802 37.6278 61.9287C37.751 62.0555 37.8982 62.1569 38.0611 62.2274C38.2239 62.2978 38.3992 62.3358 38.5769 62.3392H54.4968C54.6745 62.3358 54.8498 62.2978 55.0126 62.2274C55.1755 62.1569 55.3227 62.0555 55.4459 61.9287C55.5691 61.802 55.6659 61.6525 55.7307 61.4888C55.7954 61.325 55.827 61.1503 55.8234 60.9745C55.8073 59.2908 55.3236 57.6438 54.4252 56.2136C53.5267 54.7834 52.2481 53.625 50.7291 52.8649Z" fill="#104B8E"/>
<path d="M73.1666 52.8663C73.0636 52.8213 72.9738 52.7511 72.9058 52.6623C72.8378 52.5735 72.7937 52.4691 72.7778 52.3588C72.7619 52.2485 72.7746 52.1361 72.8148 52.032C72.8549 51.9279 72.9212 51.8357 73.0074 51.764C74.0874 50.9536 74.8869 49.832 75.2955 48.5535C75.7042 47.275 75.702 45.9026 75.2892 44.6254C74.9727 43.5976 74.3977 42.6661 73.6181 41.9179C72.8386 41.1697 71.8798 40.6294 70.8317 40.3475C69.3478 39.9058 67.7541 39.9941 66.3293 40.597C64.9046 41.1998 63.7394 42.2789 63.0376 43.6455C62.3357 45.012 62.1418 46.5792 62.4898 48.0728C62.8378 49.5665 63.7056 50.8916 64.9413 51.8165C65.0275 51.8882 65.0938 51.9804 65.1339 52.0845C65.1741 52.1885 65.1868 52.301 65.1709 52.4113C65.155 52.5216 65.1109 52.626 65.0429 52.7148C64.9749 52.8036 64.8851 52.8738 64.7821 52.9187C63.271 53.6747 61.9976 54.8249 61.0997 56.245C60.2018 57.6652 59.7135 59.3011 59.6878 60.9759C59.6842 61.1516 59.7158 61.3264 59.7805 61.4901C59.8453 61.6538 59.9421 61.8033 60.0653 61.9301C60.1885 62.0568 60.3357 62.1583 60.4986 62.2287C60.6614 62.2992 60.8367 62.3372 61.0144 62.3406H76.9343C77.112 62.3372 77.2873 62.2992 77.4501 62.2287C77.613 62.1583 77.7602 62.0568 77.8834 61.9301C78.0066 61.8033 78.1034 61.6538 78.1682 61.4901C78.2329 61.3264 78.2645 61.1516 78.2609 60.9759C78.2448 59.2921 77.7611 57.6452 76.8627 56.2149C75.9642 54.7847 74.6856 53.6263 73.1666 52.8663Z" fill="#104B8E"/>
<path d="M95.8931 52.8663C95.7901 52.8213 95.7004 52.7511 95.6324 52.6623C95.5643 52.5735 95.5203 52.4691 95.5044 52.3588C95.4884 52.2485 95.5012 52.1361 95.5413 52.032C95.5815 51.9279 95.6478 51.8357 95.7339 51.764C96.814 50.9536 97.6134 49.832 98.0221 48.5535C98.4308 47.275 98.4286 45.9026 98.0158 44.6254C97.6993 43.5976 97.1243 42.6661 96.3447 41.9179C95.5651 41.1697 94.6064 40.6294 93.5582 40.3475C92.0743 39.9058 90.4807 39.9941 89.0559 40.597C87.6312 41.1998 86.466 42.2789 85.7641 43.6455C85.0623 45.012 84.8684 46.5792 85.2164 48.0728C85.5644 49.5665 86.4321 50.8916 87.6679 51.8165C87.7541 51.8882 87.8203 51.9804 87.8605 52.0845C87.9007 52.1885 87.9134 52.301 87.8975 52.4113C87.8815 52.5216 87.8375 52.626 87.7695 52.7148C87.7015 52.8036 87.6117 52.8738 87.5087 52.9187C85.9896 53.6788 84.711 54.8372 83.8126 56.2674C82.9142 57.6976 82.4305 59.3446 82.4143 61.0284C82.4108 61.2041 82.4423 61.3789 82.5071 61.5426C82.5719 61.7063 82.6686 61.8558 82.7918 61.9826C82.915 62.1093 83.0623 62.2108 83.2251 62.2812C83.388 62.3517 83.5633 62.3897 83.741 62.3931H99.6608C99.8386 62.3897 100.014 62.3517 100.177 62.2812C100.34 62.2108 100.487 62.1093 100.61 61.9826C100.733 61.8558 100.83 61.7063 100.895 61.5426C100.959 61.3789 100.991 61.2041 100.988 61.0284C100.981 59.3357 100.502 57.6776 99.603 56.2373C98.704 54.797 97.4202 53.6304 95.8931 52.8663Z" fill="#104B8E"/>
<path d="M118.628 52.8663C118.524 52.8213 118.435 52.7511 118.367 52.6623C118.299 52.5735 118.255 52.4691 118.239 52.3588C118.223 52.2485 118.236 52.1361 118.276 52.032C118.316 51.9279 118.382 51.8357 118.468 51.764C119.548 50.9536 120.348 49.832 120.756 48.5535C121.165 47.275 121.163 45.9026 120.75 44.6254C120.434 43.5976 119.859 42.6661 119.079 41.9179C118.3 41.1697 117.341 40.6294 116.293 40.3475C114.809 39.9058 113.215 39.9941 111.79 40.597C110.366 41.1998 109.2 42.2789 108.498 43.6455C107.797 45.012 107.603 46.5792 107.951 48.0728C108.299 49.5665 109.167 50.8916 110.402 51.8165C110.488 51.8882 110.555 51.9804 110.595 52.0845C110.635 52.1885 110.648 52.301 110.632 52.4113C110.616 52.5216 110.572 52.626 110.504 52.7148C110.436 52.8036 110.346 52.8738 110.243 52.9187C108.724 53.6788 107.445 54.8372 106.547 56.2674C105.649 57.6976 105.165 59.3446 105.149 61.0284C105.145 61.2041 105.177 61.3789 105.241 61.5426C105.306 61.7063 105.403 61.8558 105.526 61.9826C105.649 62.1093 105.797 62.2108 105.959 62.2812C106.122 62.3517 106.298 62.3897 106.475 62.3931H122.395C122.573 62.3897 122.748 62.3517 122.911 62.2812C123.074 62.2108 123.221 62.1093 123.344 61.9826C123.468 61.8558 123.564 61.7063 123.629 61.5426C123.694 61.3789 123.725 61.2041 123.722 61.0284C123.715 59.3357 123.236 57.6776 122.337 56.2373C121.438 54.797 120.155 53.6304 118.628 52.8663Z" fill="#104B8E"/>
<circle cx="80" cy="80" r="75" stroke="#104B8E" stroke-width="10"/>
</svg>
