<svg viewBox="0 0 180 180" fill="none" xmlns="http://www.w3.org/2000/svg">
<g clip-path="url(#clip0_1851_3117)">
<path d="M121.267 86.6875C118.269 86.6497 115.355 87.6834 113.052 89.6025L107.045 94.7258C106.436 95.2315 105.672 95.5123 104.881 95.5208C104.203 95.5231 103.54 95.3173 102.983 94.9311C102.425 94.5448 102 93.9969 101.764 93.3611C101.528 92.7254 101.493 92.0326 101.663 91.3762C101.834 90.7198 102.201 90.1315 102.717 89.6908L108.723 84.5675C112.243 81.6456 116.692 80.0791 121.267 80.1508H131.911C132.06 80.1488 132.208 80.1165 132.345 80.0558C132.481 79.995 132.604 79.9072 132.706 79.7975C132.811 79.6854 132.892 79.5534 132.945 79.4092C132.999 79.2651 133.022 79.1118 133.015 78.9583C132.766 72.8821 130.514 67.0589 126.611 62.3958L132.706 46.4075C132.836 46.1312 132.903 45.8295 132.903 45.5242C132.903 45.2188 132.836 44.9172 132.706 44.6408C132.575 44.3613 132.385 44.1137 132.148 43.9154C131.912 43.717 131.635 43.5727 131.337 43.4925L116.497 39.2967C115.969 39.1498 115.406 39.204 114.916 39.4488C114.427 39.6936 114.046 40.1116 113.847 40.6217L110.269 50.25H110.004C109.795 50.1602 109.562 50.1463 109.344 50.2109C109.126 50.2754 108.938 50.4143 108.812 50.6033L104.395 56.61C103.389 58.0042 102.874 59.6925 102.93 61.4106C102.986 63.1288 103.61 64.78 104.704 66.1058C105.169 66.7869 105.364 67.617 105.25 68.4338C105.135 69.2506 104.72 69.9954 104.086 70.5225C103.515 70.9936 102.794 71.2444 102.054 71.2292C101.551 71.2276 101.055 71.1114 100.603 70.8895C100.152 70.6676 99.7569 70.3457 99.4483 69.9483C97.4959 67.4973 96.3964 64.4762 96.3167 61.3436C96.237 58.2111 97.1814 55.138 99.0066 52.5908L101.966 48.1742V47.8208C101.955 47.7585 101.923 47.7019 101.874 47.6614C101.826 47.6209 101.764 47.5991 101.701 47.6V39.2083C101.701 38.6226 101.468 38.0609 101.054 37.6468C100.64 37.2327 100.078 37 99.4925 37H84.255C83.6693 37 83.1076 37.2327 82.6935 37.6468C82.2793 38.0609 82.0466 38.6226 82.0466 39.2083V46.805C82.0395 47.0737 81.9383 47.3313 81.7608 47.5331C81.5832 47.7348 81.3406 47.8679 81.075 47.9092C77.7255 48.3319 74.5039 49.461 71.6233 51.2217C71.3886 51.3722 71.1039 51.4242 70.8311 51.3664C70.5583 51.3085 70.3192 51.1454 70.1658 50.9125L64.4241 42.3883C64.1256 41.94 63.6735 41.6162 63.1529 41.4779C62.6323 41.3396 62.0791 41.3964 61.5975 41.6375L48.3475 48.2625C48.0698 48.4073 47.8247 48.6074 47.6272 48.8505C47.4298 49.0935 47.2841 49.3744 47.1991 49.6758C47.1177 49.9822 47.1032 50.3025 47.1565 50.6149C47.2098 50.9274 47.3298 51.2247 47.5083 51.4867L55.8558 64.1183C51.2407 70.9884 49.4238 79.3617 50.7766 87.5267C50.7867 87.6836 50.8315 87.8364 50.9079 87.9739C50.9843 88.1114 51.0903 88.2302 51.2183 88.3217C51.3569 88.3852 51.5075 88.4181 51.66 88.4181C51.8124 88.4181 51.9631 88.3852 52.1016 88.3217L58.7266 86.7758C66.6766 84.9208 67.56 84.7 71.5791 80.1067C71.7924 79.8593 72.0464 79.6502 72.33 79.4883C72.33 79.1792 72.7716 78.9583 73.0366 78.6492C74.715 76.75 76.835 74.2325 79.75 71.2733C80.0121 70.8695 80.3592 70.5276 80.7669 70.2715C81.1747 70.0155 81.6334 69.8514 82.1111 69.7907C82.5887 69.73 83.0739 69.7742 83.5327 69.9202C83.9915 70.0662 84.413 70.3104 84.7678 70.6359C85.1227 70.9614 85.4022 71.3604 85.5871 71.805C85.772 72.2495 85.8577 72.7291 85.8383 73.2102C85.8189 73.6913 85.6949 74.1624 85.4748 74.5907C85.2548 75.019 84.944 75.3941 84.5642 75.69C82.3117 78.1192 80.545 80.1067 79.0875 81.7408C78.9603 81.9302 78.8923 82.1531 78.8923 82.3812C78.8923 82.6094 78.9603 82.8323 79.0875 83.0217L82.135 88.2333C82.5801 88.9947 82.7045 89.9018 82.4809 90.7549C82.2573 91.608 81.7039 92.3374 80.9425 92.7825C80.1811 93.2276 79.2741 93.352 78.4209 93.1284C77.5678 92.9048 76.8384 92.3514 76.3933 91.59L74.6708 88.6308C74.5961 88.4897 74.4892 88.3681 74.3588 88.2761C74.2283 88.184 74.078 88.1239 73.92 88.1008C73.7586 88.0691 73.5923 88.0723 73.4322 88.1104C73.2722 88.1485 73.1222 88.2206 72.9925 88.3217C69.3188 91.0742 64.9698 92.7832 60.405 93.2683C58.4616 93.71 55.9883 94.24 53.3383 94.9467C53.0473 95.0199 52.7964 95.2043 52.6396 95.4602C52.4828 95.7161 52.4323 96.0232 52.4991 96.3158C53.48 100.238 54.7647 104.077 56.3416 107.799L81.5167 110.935C81.9471 110.984 82.3635 111.118 82.7417 111.33C83.1198 111.541 83.4521 111.826 83.7192 112.167C83.9864 112.508 84.183 112.899 84.2977 113.317C84.4125 113.735 84.443 114.171 84.3875 114.601C84.2907 115.401 83.9054 116.139 83.3038 116.675C82.7021 117.212 81.9254 117.511 81.1191 117.516H80.545L61.5975 115.131C61.3996 115.108 61.1994 115.142 61.0197 115.228C60.8401 115.314 60.6882 115.448 60.5816 115.617C60.4658 115.786 60.4038 115.986 60.4038 116.191C60.4038 116.396 60.4658 116.596 60.5816 116.765C68.1341 130.501 79.75 143 91.145 143C98.5208 143 106.25 137.7 113.228 130.059C113.357 129.91 113.445 129.729 113.483 129.536C113.522 129.343 113.51 129.143 113.449 128.955C113.39 128.766 113.28 128.597 113.132 128.465C112.985 128.332 112.804 128.243 112.61 128.204L108.193 127.497C103.433 126.743 99.1634 124.14 96.3125 120.254L90.7475 111.686C90.5097 111.32 90.3462 110.912 90.2663 110.483C90.1864 110.055 90.1918 109.614 90.282 109.188C90.4642 108.327 90.9812 107.573 91.7192 107.092C92.4571 106.612 93.3556 106.445 94.2171 106.627C95.0785 106.809 95.8322 107.326 96.3125 108.064L101.745 116.5C103.557 118.895 106.238 120.481 109.209 120.917L118.042 122.418C118.249 122.458 118.463 122.437 118.659 122.359C118.855 122.281 119.024 122.148 119.147 121.977C122.623 116.881 125.582 111.451 127.98 105.767C130.374 100.043 132.007 94.0291 132.838 87.88C132.845 87.5787 132.752 87.2838 132.573 87.0408C132.471 86.9176 132.342 86.8182 132.198 86.7496C132.053 86.6809 131.895 86.6447 131.734 86.6433L121.267 86.6875Z" fill="#104B8E"/>
</g>
<circle cx="90" cy="90" r="85" stroke="#104B8E" stroke-width="10"/>
<defs>
<clipPath id="clip0_1851_3117">
<rect width="106" height="106" fill="white" transform="translate(37 37)"/>
</clipPath>
</defs>
</svg>
