<svg width="48" height="48" viewBox="0 0 48 48" fill="none" xmlns="http://www.w3.org/2000/svg">
<g clip-path="url(#clip0_1127_3153)">
<path d="M32.9167 9.73817C32.9137 9.58549 32.8509 9.4401 32.7418 9.33321C32.6328 9.22633 32.4861 9.16647 32.3334 9.1665H28.2501C28.0954 9.1665 27.947 9.22796 27.8376 9.33736C27.7282 9.44675 27.6667 9.59513 27.6667 9.74984V10.0882C27.6819 10.4599 27.8263 10.8148 28.0751 11.0915L32.7417 15.9565C32.8467 16.0615 32.9401 16.0265 32.9401 15.8748L32.9167 9.73817Z" fill="#3880D1"/>
<path d="M37 34.8333C37 34.5239 36.8771 34.2271 36.6583 34.0083C36.4395 33.7895 36.1428 33.6666 35.8333 33.6666H34.0833C33.9286 33.6666 33.7802 33.6052 33.6709 33.4958C33.5615 33.3864 33.5 33.238 33.5 33.0833V24.3333C33.5 24.1786 33.5615 24.0302 33.6709 23.9208C33.7802 23.8114 33.9286 23.75 34.0833 23.75H35.8333C36.0623 23.7498 36.2862 23.6822 36.4771 23.5556C36.668 23.4291 36.8174 23.2492 36.9067 23.0383C36.995 22.8284 37.0199 22.5973 36.9785 22.3734C36.937 22.1495 36.8309 21.9426 36.6733 21.7783L23.84 8.34995C23.7312 8.23704 23.6007 8.14723 23.4564 8.08588C23.312 8.02454 23.1568 7.99292 23 7.99292C22.8432 7.99292 22.688 8.02454 22.5436 8.08588C22.3993 8.14723 22.2688 8.23704 22.16 8.34995L9.32667 21.7666C9.16906 21.931 9.06299 22.1378 9.02153 22.3617C8.98006 22.5856 9.00503 22.8167 9.09333 23.0266C9.18265 23.2375 9.33204 23.4174 9.52291 23.544C9.71377 23.6705 9.93766 23.7381 10.1667 23.7383H11.9167C11.9943 23.7383 12.0711 23.7537 12.1426 23.7838C12.2142 23.8138 12.279 23.8578 12.3333 23.9132C12.3876 23.9687 12.4304 24.0343 12.459 24.1065C12.4876 24.1786 12.5016 24.2557 12.5 24.3333V33.0833C12.5 33.238 12.4385 33.3864 12.3291 33.4958C12.2197 33.6052 12.0714 33.6666 11.9167 33.6666H10.1667C9.85725 33.6666 9.5605 33.7895 9.34171 34.0083C9.12292 34.2271 9 34.5239 9 34.8333C9 35.1427 9.12292 35.4395 9.34171 35.6582C9.5605 35.877 9.85725 36 10.1667 36H35.8333C36.1428 36 36.4395 35.877 36.6583 35.6582C36.8771 35.4395 37 35.1427 37 34.8333ZM23 16.4466C23.5769 16.4466 24.1408 16.6177 24.6204 16.9382C25.1001 17.2587 25.4739 17.7142 25.6946 18.2471C25.9154 18.7801 25.9732 19.3665 25.8606 19.9323C25.7481 20.4981 25.4703 21.0178 25.0624 21.4257C24.6545 21.8336 24.1348 22.1114 23.569 22.2239C23.0032 22.3364 22.4168 22.2787 21.8838 22.0579C21.3509 21.8372 20.8954 21.4633 20.5749 20.9837C20.2544 20.5041 20.0833 19.9401 20.0833 19.3633C20.0833 18.5897 20.3906 17.8479 20.9376 17.3009C21.4846 16.7539 22.2265 16.4466 23 16.4466ZM20.585 29.8516C20.5492 29.6939 20.4623 29.5523 20.3378 29.449C20.2134 29.3456 20.0583 29.2862 19.8967 29.28H19.5C19.3453 29.28 19.1969 29.2185 19.0875 29.1091C18.9781 28.9997 18.9167 28.8513 18.9167 28.6966V27.53C18.9167 26.447 19.3469 25.4084 20.1126 24.6426C20.8784 23.8768 21.917 23.4466 23 23.4466C24.083 23.4466 25.1216 23.8768 25.8874 24.6426C26.6531 25.4084 27.0833 26.447 27.0833 27.53V28.6966C27.0833 28.8513 27.0219 28.9997 26.9125 29.1091C26.8031 29.2185 26.6547 29.28 26.5 29.28H26.115C25.9513 29.2837 25.7936 29.3419 25.6668 29.4455C25.5399 29.549 25.4513 29.692 25.415 29.8516C25.415 29.8516 24.9717 32.185 24.7733 33.1883C24.7479 33.3283 24.6723 33.4542 24.5605 33.5423C24.4488 33.6304 24.3087 33.6746 24.1667 33.6666H21.8333C21.6989 33.6666 21.5685 33.6202 21.4643 33.5352C21.3602 33.4501 21.2886 33.3317 21.2617 33.2C21.0283 32.1733 20.585 29.8516 20.585 29.8516Z" fill="#3880D1"/>
</g>
<circle cx="24" cy="24" r="22.5" stroke="#104B8E" stroke-width="3"/>
<defs>
<clipPath id="clip0_1127_3153">
<rect width="28" height="28" fill="white" transform="translate(9 8)"/>
</clipPath>
</defs>
</svg>
