<svg viewBox="0 0 180 180" fill="none" xmlns="http://www.w3.org/2000/svg">
<g clip-path="url(#clip0_1851_3111)">
<path d="M118.308 51.6608C116.781 50.814 115.064 50.3696 113.318 50.3696C111.571 50.3696 109.854 50.814 108.327 51.6608C106.707 52.5351 105.333 53.8019 104.329 55.3452C103.326 56.8885 102.727 58.6589 102.585 60.4942C102.585 62.7467 102.188 64.9108 102.011 67.2075C101.987 67.4111 101.908 67.6045 101.784 67.7676C101.66 67.9307 101.494 68.0576 101.304 68.135C101.136 68.2319 100.946 68.2829 100.752 68.2829C100.558 68.2829 100.368 68.2319 100.2 68.135L95.7835 64.5133C95.6603 64.4107 95.5609 64.2825 95.4922 64.1376C95.4236 63.9926 95.3873 63.8345 95.386 63.6742V31.5208C95.386 30.0566 94.8043 28.6524 93.769 27.617C92.7336 26.5817 91.3294 26 89.8651 26C88.4009 26 86.9967 26.5817 85.9613 27.617C84.926 28.6524 84.3443 30.0566 84.3443 31.5208V62.9233C84.3534 63.0853 84.3217 63.2469 84.2523 63.3935C84.1829 63.54 84.0778 63.6669 83.9468 63.7625L79.5301 67.4283C79.3657 67.5348 79.174 67.5915 78.9781 67.5915C78.7822 67.5915 78.5904 67.5348 78.426 67.4283C78.2368 67.3629 78.07 67.2451 77.945 67.0888C77.8199 66.9325 77.7417 66.7439 77.7193 66.545C77.7193 64.425 77.3218 62.1283 77.1893 60.2733C77.048 58.4381 76.4482 56.6677 75.4451 55.1244C74.4419 53.5811 73.0675 52.3142 71.4476 51.44C69.9205 50.5931 68.203 50.1488 66.4568 50.1488C64.7106 50.1488 62.9931 50.5931 61.466 51.44C45.3451 60.98 37.9693 81.6942 36.9976 120.826C36.948 122.39 37.2381 123.946 37.8481 125.387C38.4581 126.829 39.3734 128.12 40.531 129.173C42.4731 130.986 45.0295 131.996 47.686 132H48.746L74.6276 129.35C76.0547 129.203 77.4369 128.768 78.6899 128.069C79.9429 127.37 81.0403 126.424 81.9151 125.287C82.8319 124.119 83.5006 122.776 83.8803 121.341C84.2601 119.905 84.3428 118.408 84.1235 116.939L81.7826 101.083C80.546 92.78 79.7951 85.9783 79.221 80.325C79.1592 80.2121 79.1205 80.088 79.107 79.96C79.0936 79.8321 79.1057 79.7027 79.1427 79.5794C79.1797 79.4561 79.2408 79.3414 79.3225 79.242C79.4041 79.1425 79.5048 79.0603 79.6185 79L88.9818 71.0058C89.196 70.8577 89.4502 70.7783 89.7106 70.7783C89.971 70.7783 90.2252 70.8577 90.4393 71.0058L100.333 79.4417C100.481 79.5521 100.597 79.7009 100.667 79.8722C100.737 80.0434 100.759 80.2305 100.73 80.4133C100.156 85.9342 99.4051 92.6033 98.2126 100.686L95.8718 116.718C95.6525 118.187 95.7352 119.685 96.1149 121.12C96.4947 122.555 97.1634 123.898 98.0801 125.066C98.955 126.203 100.052 127.149 101.305 127.848C102.558 128.547 103.941 128.983 105.368 129.129L131.249 131.779H132.309C134.966 131.775 137.522 130.765 139.464 128.952C140.622 127.899 141.537 126.608 142.147 125.167C142.757 123.725 143.047 122.169 142.998 120.605C142.026 81.6942 134.65 60.98 118.308 51.6608ZM73.0818 102.541C72.8935 102.932 72.6291 103.282 72.3041 103.57C71.979 103.858 71.5998 104.079 71.1886 104.218C70.7774 104.358 70.3424 104.415 69.9091 104.385C69.4759 104.354 69.053 104.238 68.6651 104.042L67.9143 103.601C67.676 103.478 67.4012 103.446 67.1411 103.511C66.8811 103.576 66.6535 103.734 66.501 103.954L64.2485 107.355C63.9457 107.803 63.5378 108.17 63.0605 108.424C62.5831 108.678 62.0509 108.812 61.5101 108.812C60.8479 108.813 60.201 108.613 59.6551 108.238C58.9782 107.749 58.5111 107.022 58.3473 106.203C58.1835 105.384 58.3351 104.534 58.7718 103.822L61.8635 99.14C61.9485 98.9842 61.9931 98.8096 61.9931 98.6321C61.9931 98.4546 61.9485 98.2799 61.8635 98.1242L60.406 94.5467C60.3493 94.388 60.2556 94.2452 60.1327 94.13C60.0098 94.0148 59.8613 93.9305 59.6993 93.8842C59.5457 93.8186 59.3805 93.7847 59.2135 93.7847C59.0465 93.7847 58.8812 93.8186 58.7276 93.8842L54.6643 97.1083C54.073 97.5362 53.3625 97.7679 52.6326 97.7708C52.1079 97.8217 51.5785 97.7483 51.0874 97.5564C50.5963 97.3646 50.1573 97.0598 49.806 96.6667C49.5098 96.3215 49.2858 95.9204 49.1474 95.4871C49.009 95.0538 48.9589 94.5971 49 94.1441C49.0412 93.6912 49.1728 93.251 49.3871 92.8498C49.6014 92.4486 49.894 92.0945 50.2476 91.8083L59.081 85.3158C59.2068 85.2223 59.3113 85.103 59.3875 84.9659C59.4636 84.8288 59.5097 84.6771 59.5226 84.5208C59.513 84.3576 59.4686 84.1982 59.3925 84.0535C59.3163 83.9088 59.2101 83.782 59.081 83.6817L54.6643 79C54.1861 78.7716 53.7697 78.4318 53.45 78.0092C53.1303 77.5865 52.9167 77.0934 52.8271 76.571C52.7375 76.0487 52.7745 75.5126 52.935 75.0075C53.0955 74.5025 53.3749 74.0433 53.7496 73.6686C54.1243 73.2939 54.5835 73.0145 55.0885 72.854C55.5935 72.6935 56.1297 72.6565 56.652 72.7461C57.1743 72.8357 57.6675 73.0493 58.0902 73.369C58.5128 73.6887 58.8526 74.1051 59.081 74.5833L64.4693 79.9275C64.5066 79.9736 64.5537 80.0108 64.6072 80.0363C64.6607 80.0619 64.7192 80.0752 64.7785 80.0752C64.8378 80.0752 64.8963 80.0619 64.9498 80.0363C65.0033 80.0108 65.0504 79.9736 65.0876 79.9275L65.441 79.6183C65.8781 79.1921 66.4646 78.9535 67.0751 78.9535C67.6857 78.9535 68.2721 79.1921 68.7093 79.6183C68.8232 79.7487 68.9129 79.8982 68.9743 80.06L69.3718 81.6058C69.2986 82.2564 68.9833 82.8555 68.4885 83.2842L65.0435 86.1992C64.5971 86.5826 64.2963 87.1081 64.1917 87.6872C64.0872 88.2663 64.1852 88.8638 64.4693 89.3792L68.0026 96.0042C68.121 96.2568 68.3241 96.46 68.5768 96.5783L71.4918 98.0358C71.9023 98.2152 72.2716 98.4771 72.5767 98.8051C72.8818 99.1332 73.1161 99.5205 73.2652 99.943C73.4144 100.365 73.475 100.814 73.4435 101.261C73.4119 101.708 73.2888 102.144 73.0818 102.541ZM130.189 96.6667C129.874 97.0674 129.471 97.3911 129.012 97.613C128.553 97.835 128.049 97.9493 127.539 97.9475C126.728 97.9331 125.947 97.6363 125.331 97.1083L121.179 93.8842C121.026 93.8186 120.86 93.7847 120.693 93.7847C120.526 93.7847 120.361 93.8186 120.208 93.8842C120.046 93.9305 119.897 94.0148 119.774 94.13C119.651 94.2452 119.558 94.388 119.501 94.5467L118.043 98.1242C117.958 98.2799 117.914 98.4546 117.914 98.6321C117.914 98.8096 117.958 98.9842 118.043 99.14L121.135 103.822C121.572 104.534 121.723 105.384 121.56 106.203C121.396 107.022 120.929 107.749 120.252 108.238C119.706 108.613 119.059 108.813 118.397 108.812C117.856 108.812 117.324 108.678 116.846 108.424C116.369 108.17 115.961 107.803 115.658 107.355L113.406 103.954C113.253 103.734 113.026 103.576 112.766 103.511C112.506 103.446 112.231 103.478 111.993 103.601L111.065 104.042C110.28 104.441 109.369 104.511 108.533 104.238C107.696 103.964 107.003 103.37 106.604 102.585C106.206 101.8 106.136 100.889 106.409 100.053C106.683 99.2162 107.277 98.5224 108.062 98.1242L110.977 96.6667C111.229 96.5483 111.433 96.3452 111.551 96.0925L115.084 89.4675C115.368 88.9521 115.466 88.3547 115.362 87.7755C115.257 87.1964 114.957 86.671 114.51 86.2875L111.374 83.4167C111.112 83.1902 110.899 82.913 110.747 82.6017C110.595 82.2905 110.508 81.9517 110.491 81.6058C110.466 81.2675 110.512 80.9277 110.626 80.6082C110.74 80.2887 110.92 79.9966 111.153 79.7508C111.591 79.3246 112.177 79.086 112.788 79.086C113.398 79.086 113.985 79.3246 114.422 79.7508L114.775 80.06C114.812 80.1061 114.86 80.1433 114.913 80.1688C114.966 80.1944 115.025 80.2077 115.084 80.2077C115.144 80.2077 115.202 80.1944 115.256 80.1688C115.309 80.1433 115.356 80.1061 115.393 80.06L120.914 74.5833C121.532 74.2881 122.227 74.1918 122.902 74.3076C123.577 74.4235 124.2 74.7458 124.684 75.2301C125.169 75.7145 125.491 76.3371 125.607 77.0123C125.723 77.6874 125.626 78.3819 125.331 79L120.914 83.4167C120.809 83.5288 120.728 83.6608 120.675 83.8049C120.622 83.9491 120.598 84.1024 120.605 84.2558C120.618 84.4121 120.664 84.5638 120.74 84.7009C120.816 84.838 120.921 84.9573 121.047 85.0508L129.748 91.8083C130.101 92.0945 130.394 92.4486 130.608 92.8498C130.822 93.251 130.954 93.6912 130.995 94.1441C131.036 94.5971 130.986 95.0538 130.848 95.4871C130.709 95.9204 130.486 96.3215 130.189 96.6667Z" fill="#104B8E"/>
</g>
<circle cx="90" cy="90" r="85" stroke="#104B8E" stroke-width="10"/>
<defs>
<clipPath id="clip0_1851_3111">
<rect width="106" height="106" fill="white" transform="translate(37 26)"/>
</clipPath>
</defs>
</svg>
