<svg width="48" height="48" viewBox="0 0 48 48" fill="none" xmlns="http://www.w3.org/2000/svg">
<path fill-rule="evenodd" clip-rule="evenodd" d="M34.625 33.0129C31.2651 34.4242 27.6429 35.1034 24 35.0051C20.357 35.1034 16.7349 34.4242 13.375 33.0129V21.0598C13.375 21.0598 19.8828 15.0833 24 15.0833C28.1172 15.0833 34.625 21.0598 34.625 21.0598V33.0129ZM23.9525 22.1592C21.6843 22.238 19.4238 22.4643 17.185 22.8366C16.6062 22.9329 16.215 23.4802 16.3113 24.059C16.4075 24.6379 16.9548 25.0291 17.5337 24.9328C19.6728 24.577 21.8327 24.3603 24 24.2838C26.1672 24.3603 28.3272 24.577 30.4663 24.9328C31.0451 25.0291 31.5924 24.6379 31.6887 24.0591C31.785 23.4802 31.3938 22.9329 30.8149 22.8366C28.5762 22.4643 26.3156 22.238 24.0475 22.1592C24.0317 22.1585 24.0159 22.1581 24 22.1582C23.9841 22.1581 23.9683 22.1585 23.9525 22.1592ZM16.5849 28.3688C16.7048 27.7943 17.2676 27.4259 17.8421 27.5458C19.879 27.9709 21.9446 28.2004 24.0161 28.2318C24.1364 28.2336 24.2518 28.2554 24.3591 28.2939C26.4012 28.2458 28.4364 28.0322 30.4445 27.6549C31.0212 27.5466 31.5765 27.9263 31.6849 28.503C31.7932 29.0797 31.4135 29.6351 30.8368 29.7434C28.5865 30.1661 26.3039 30.3944 24.0145 30.4256C23.8686 30.4276 23.7292 30.4001 23.602 30.3487C21.523 30.2942 19.4514 30.0525 17.4079 29.6259C16.8335 29.5061 16.465 28.9432 16.5849 28.3688Z" fill="#3880D1"/>
<path d="M24 35.0051L24.0169 34.3804H23.9831L24 35.0051ZM34.625 33.0129L34.867 33.5892L35.25 33.0129H34.625ZM13.375 33.0129H12.75L13.133 33.5892L13.375 33.0129ZM13.375 21.0598L12.9522 20.5995L12.75 21.0598H13.375ZM34.625 21.0598H35.25L35.0478 20.5995L34.625 21.0598ZM17.185 22.8366L17.0825 22.2201H17.0825L17.185 22.8366ZM23.9525 22.1592L23.9742 22.7838L23.9798 22.7836L23.9525 22.1592ZM16.3113 24.059L15.6947 24.1616L16.3113 24.059ZM17.5337 24.9328L17.4311 24.3163L17.5337 24.9328ZM24 24.2838L24.022 23.6592H23.978L24 24.2838ZM30.4663 24.9328L30.5688 24.3163H30.5688L30.4663 24.9328ZM30.8149 22.8366L30.9175 22.2201H30.9175L30.8149 22.8366ZM24.0475 22.1592L24.0202 22.7836L24.0258 22.7838L24.0475 22.1592ZM24 22.1582L23.9996 22.7832L24.0004 22.7832L24 22.1582ZM17.8421 27.5458L17.7144 28.1576H17.7144L17.8421 27.5458ZM16.5849 28.3688L17.1967 28.4965L16.5849 28.3688ZM24.0161 28.2318L24.0066 28.8567H24.0066L24.0161 28.2318ZM24.3591 28.2939L24.1479 28.8822L24.3738 28.9187L24.3591 28.2939ZM30.4445 27.6549L30.5598 28.2692L30.4445 27.6549ZM31.6849 28.503L31.0706 28.6184V28.6184L31.6849 28.503ZM30.8368 29.7434L30.9522 30.3577L30.8368 29.7434ZM24.0145 30.4256L24.023 31.0506H24.023L24.0145 30.4256ZM23.602 30.3487L23.8363 29.7693L23.6183 29.7239L23.602 30.3487ZM17.4079 29.6259L17.2802 30.2378L17.4079 29.6259ZM23.9831 35.6299C27.7148 35.7306 31.4253 35.0348 34.867 33.5892L34.383 32.4367C31.1049 33.8136 27.571 34.4762 24.0169 34.3804L23.9831 35.6299ZM13.133 33.5892C16.5748 35.0348 20.2851 35.7306 24.0169 35.6299L23.9831 34.3804C20.4289 34.4762 16.8951 33.8136 13.617 32.4367L13.133 33.5892ZM12.75 21.0598V33.0129H14V21.0598H12.75ZM24 14.4583C22.8354 14.4583 21.5582 14.876 20.3365 15.4517C19.1042 16.0324 17.8731 16.8005 16.7859 17.559C15.6969 18.3188 14.7405 19.0773 14.0568 19.6452C13.7146 19.9295 13.4399 20.1668 13.2501 20.3335C13.1552 20.4169 13.0815 20.4827 13.0311 20.528C13.006 20.5506 12.9866 20.5682 12.9734 20.5802C12.9668 20.5862 12.9617 20.5909 12.9581 20.5941C12.9564 20.5957 12.955 20.597 12.954 20.5979C12.9535 20.5983 12.9531 20.5987 12.9528 20.5989C12.9527 20.5991 12.9525 20.5992 12.9525 20.5993C12.9523 20.5994 12.9522 20.5995 13.375 21.0598C13.7978 21.5201 13.7977 21.5202 13.7977 21.5202C13.7977 21.5202 13.7977 21.5202 13.7978 21.5201C13.7979 21.52 13.7981 21.5199 13.7984 21.5196C13.799 21.519 13.8 21.5181 13.8013 21.5169C13.8041 21.5143 13.8084 21.5104 13.8142 21.5051C13.8259 21.4946 13.8436 21.4785 13.867 21.4574C13.914 21.4151 13.9841 21.3525 14.0752 21.2725C14.2574 21.1124 14.5233 20.8828 14.8556 20.6067C15.5208 20.0541 16.4486 19.3184 17.5012 18.5841C18.5556 17.8484 19.7234 17.1224 20.8693 16.5825C22.0258 16.0375 23.106 15.7083 24 15.7083V14.4583ZM34.625 21.0598C35.0478 20.5995 35.0477 20.5994 35.0475 20.5993C35.0475 20.5992 35.0473 20.5991 35.0472 20.5989C35.0469 20.5987 35.0465 20.5983 35.046 20.5979C35.045 20.597 35.0436 20.5957 35.0419 20.5941C35.0383 20.5909 35.0332 20.5862 35.0266 20.5802C35.0134 20.5682 34.994 20.5506 34.9689 20.528C34.9185 20.4827 34.8448 20.4169 34.7499 20.3335C34.5601 20.1668 34.2854 19.9295 33.9432 19.6452C33.2595 19.0773 32.3031 18.3188 31.2141 17.559C30.1269 16.8005 28.8958 16.0324 27.6635 15.4517C26.4418 14.876 25.1646 14.4583 24 14.4583V15.7083C24.894 15.7083 25.9742 16.0375 27.1307 16.5825C28.2766 17.1224 29.4444 17.8484 30.4988 18.5841C31.5514 19.3184 32.4792 20.0541 33.1444 20.6067C33.4767 20.8828 33.7426 21.1124 33.9248 21.2725C34.0159 21.3525 34.086 21.4151 34.133 21.4574C34.1564 21.4785 34.1741 21.4946 34.1858 21.5051C34.1916 21.5104 34.1959 21.5143 34.1987 21.5169C34.2 21.5181 34.201 21.519 34.2016 21.5196C34.2019 21.5199 34.2021 21.52 34.2022 21.5201C34.2023 21.5202 34.2023 21.5202 34.2023 21.5202C34.2023 21.5202 34.2022 21.5201 34.625 21.0598ZM35.25 33.0129V21.0598H34V33.0129H35.25ZM17.2876 23.4532C19.4996 23.0853 21.7331 22.8617 23.9742 22.7838L23.9308 21.5346C21.6355 21.6143 19.348 21.8433 17.0825 22.2201L17.2876 23.4532ZM16.9278 23.9565C16.8882 23.7182 17.0492 23.4928 17.2876 23.4532L17.0825 22.2201C16.1632 22.373 15.5418 23.2422 15.6947 24.1616L16.9278 23.9565ZM17.4311 24.3163C17.1928 24.3559 16.9674 24.1949 16.9278 23.9565L15.6947 24.1616C15.8476 25.0809 16.7169 25.7023 17.6362 25.5494L17.4311 24.3163ZM23.978 23.6592C21.7837 23.7366 19.5969 23.9561 17.4311 24.3163L17.6362 25.5494C19.7488 25.198 21.8818 24.9839 24.022 24.9084L23.978 23.6592ZM30.5688 24.3163C28.4031 23.9561 26.2162 23.7366 24.022 23.6592L23.978 24.9084C26.1182 24.9839 28.2513 25.198 30.3638 25.5494L30.5688 24.3163ZM31.0722 23.9565C31.0325 24.1949 30.8072 24.3559 30.5688 24.3163L30.3637 25.5494C31.2831 25.7023 32.1523 25.0809 32.3052 24.1616L31.0722 23.9565ZM30.7124 23.4532C30.9507 23.4928 31.1118 23.7182 31.0722 23.9565L32.3052 24.1616C32.4582 23.2422 31.8368 22.373 30.9175 22.2201L30.7124 23.4532ZM24.0258 22.7838C26.2668 22.8617 28.5004 23.0853 30.7124 23.4532L30.9175 22.2201C28.652 21.8433 26.3644 21.6143 24.0692 21.5346L24.0258 22.7838ZM24.0004 22.7832C24.0071 22.7832 24.0137 22.7833 24.0202 22.7836L24.0747 21.5348C24.0498 21.5337 24.0247 21.5331 23.9996 21.5332L24.0004 22.7832ZM23.9798 22.7836C23.9863 22.7833 23.9929 22.7832 23.9996 22.7832L24.0004 21.5332C23.9752 21.5331 23.9502 21.5337 23.9252 21.5348L23.9798 22.7836ZM17.9698 26.934C17.0574 26.7435 16.1635 27.3288 15.9731 28.2411L17.1967 28.4965C17.2461 28.2599 17.4778 28.1082 17.7144 28.1576L17.9698 26.934ZM24.0256 27.6069C21.994 27.5761 19.9679 27.351 17.9698 26.934L17.7144 28.1576C19.79 28.5908 21.8952 28.8247 24.0066 28.8567L24.0256 27.6069ZM24.5702 27.7056C24.399 27.6442 24.2156 27.6098 24.0256 27.6069L24.0066 28.8567C24.0573 28.8575 24.1045 28.8666 24.1479 28.8822L24.5702 27.7056ZM30.3291 27.0407C28.3543 27.4117 26.3527 27.6218 24.3443 27.6691L24.3738 28.9187C26.4497 28.8699 28.5186 28.6526 30.5598 28.2692L30.3291 27.0407ZM32.2991 28.3876C32.127 27.4717 31.245 26.8686 30.3291 27.0407L30.5598 28.2692C30.7973 28.2246 31.026 28.3809 31.0706 28.6184L32.2991 28.3876ZM30.9522 30.3577C31.8681 30.1856 32.4712 29.3036 32.2991 28.3876L31.0706 28.6184C31.1152 28.8559 30.9589 29.0846 30.7214 29.1292L30.9522 30.3577ZM24.023 31.0506C26.3483 31.0189 28.6667 30.787 30.9522 30.3577L30.7214 29.1292C28.5064 29.5452 26.2595 29.7699 24.006 29.8007L24.023 31.0506ZM23.3676 30.9281C23.5706 31.0102 23.7925 31.0537 24.023 31.0506L24.006 29.8007C23.9447 29.8015 23.8878 29.7901 23.8363 29.7693L23.3676 30.9281ZM17.2802 30.2378C19.3602 30.6719 21.469 30.918 23.5856 30.9735L23.6183 29.7239C21.5769 29.6704 19.5426 29.433 17.5356 29.0141L17.2802 30.2378ZM15.9731 28.2411C15.7827 29.1534 16.3679 30.0473 17.2802 30.2378L17.5356 29.0141C17.2991 28.9648 17.1473 28.733 17.1967 28.4965L15.9731 28.2411Z" fill="#3880D1"/>
<path d="M13.375 32.9686C12.0562 32.1571 10.9671 31.0215 10.2116 29.6697C9.45597 28.3181 9.05905 26.7955 9.05859 25.2469V19.7592C9.05854 19.561 9.09947 19.365 9.17881 19.1834C9.25814 19.0019 9.37417 18.8387 9.5196 18.7041C9.66503 18.5695 9.83672 18.4665 10.0239 18.4014C10.211 18.3364 10.4096 18.3107 10.6072 18.3261C10.8924 18.3482 11.1693 18.4329 11.4181 18.574C11.6669 18.7152 11.8816 18.9094 12.0469 19.1429L13.375 21.0156" stroke="#3880D1" stroke-width="1.875" stroke-linecap="round" stroke-linejoin="round"/>
<path d="M34.625 32.9686C35.9442 32.1569 37.0336 31.0208 37.7891 29.6686C38.5447 28.3165 38.9414 26.7932 38.9414 25.2443V19.7592C38.9414 19.561 38.9005 19.365 38.8212 19.1834C38.7419 19.0019 38.6258 18.8387 38.4804 18.7041C38.335 18.5695 38.1633 18.4665 37.9761 18.4014C37.789 18.3364 37.5903 18.3107 37.3928 18.3261C37.1075 18.3482 36.8308 18.4329 36.5819 18.574C36.3331 18.7152 36.1185 18.9094 35.9531 19.1429L34.625 21.0156" stroke="#3880D1" stroke-width="1.875" stroke-linecap="round" stroke-linejoin="round"/>
<circle cx="24" cy="24" r="22.5" stroke="#104B8E" stroke-width="3"/>
</svg>
