<svg width="48" height="48" viewBox="0 0 48 48" fill="none" xmlns="http://www.w3.org/2000/svg">
<g clip-path="url(#clip0_1127_3184)">
<path fill-rule="evenodd" clip-rule="evenodd" d="M16.2626 11.5126C16.5907 11.1844 17.0359 11 17.5 11H30.5C30.9641 11 31.4092 11.1844 31.7374 11.5126C32.0656 11.8408 32.25 12.2859 32.25 12.75V33H34.5C35.0523 33 35.5 33.4477 35.5 34C35.5 34.5523 35.0523 35 34.5 35H13.5C12.9477 35 12.5 34.5523 12.5 34C12.5 33.4477 12.9477 33 13.5 33H15.75V12.75C15.75 12.2859 15.9344 11.8408 16.2626 11.5126ZM27.75 21.625C28.5094 21.625 29.125 22.2406 29.125 23C29.125 23.7594 28.5094 24.375 27.75 24.375C26.9906 24.375 26.375 23.7594 26.375 23C26.375 22.2406 26.9906 21.625 27.75 21.625Z" fill="#3880D1"/>
</g>
<circle cx="24" cy="24" r="22.5" stroke="#104B8E" stroke-width="3"/>
<path d="M8.86499 7.74194L39.2717 41.3097" stroke="#104B8E" stroke-width="3"/>
<defs>
<clipPath id="clip0_1127_3184">
<rect width="24" height="24" fill="white" transform="translate(12 11)"/>
</clipPath>
</defs>
</svg>
