<svg width="48" height="48" viewBox="0 0 48 48" fill="none" xmlns="http://www.w3.org/2000/svg">
<path fill-rule="evenodd" clip-rule="evenodd" d="M15.3539 12.3488C15.3539 9.80677 17.4146 7.74603 19.9566 7.74603C22.4988 7.74603 24.5594 9.80677 24.5594 12.3488C24.5594 14.8909 22.4988 16.9516 19.9566 16.9516C17.4146 16.9516 15.3539 14.8909 15.3539 12.3488ZM27.0798 20.8516L25.9077 21.4377L29.8637 29.7895C30.0102 30.0825 30.4498 30.3756 30.7428 30.2291L34.7083 29.2033C35.8804 28.9102 37.0527 29.6429 37.3457 30.815C37.6388 31.9872 36.9063 33.1593 35.734 33.4524L31.7684 34.4782C31.329 34.6247 30.8894 34.6247 30.4498 34.6247C28.252 34.6247 26.3471 33.3059 25.6146 31.2546L25.3215 30.3756L21.805 32.7199C21.6585 32.7199 21.5119 32.8665 21.5119 33.013L19.4606 38.9287C19.0211 39.8079 18.2884 40.2475 17.4093 40.2475C17.1163 40.2475 16.8232 40.2473 16.5302 40.1008C15.358 39.5148 14.9185 38.3426 15.358 37.1705L17.4093 31.2546C17.8489 30.3756 18.435 29.6429 19.3141 29.0568L23.5632 26.2729L21.9515 23.3425L19.9002 24.3682C17.9954 25.2472 15.6511 24.9543 14.0393 23.3425L11.3381 20.6134C10.4589 19.7343 10.4589 18.4156 11.3381 17.5365C12.2172 16.6573 13.5359 16.6573 14.415 17.5365L17.1163 20.2655C17.4093 20.5586 17.7024 20.5586 17.9954 20.412L21.9515 18.3607L25.175 16.749C26.4938 16.1629 27.8124 16.0164 29.1312 16.456C30.4498 16.8955 31.4755 17.9212 32.0615 19.0933L34.1129 22.9852C34.5525 24.0109 34.1129 25.3295 33.0872 25.9158C31.9914 26.4636 30.8018 26.1118 30.1567 25.0366L28.1055 21.1447C27.8124 20.8516 27.3728 20.7051 27.0798 20.8516Z" fill="#3880D1"/>
<circle cx="24" cy="24" r="22.5" stroke="#104B8E" stroke-width="3"/>
<path d="M8.86475 7.74194L39.2714 41.3097" stroke="#104B8E" stroke-width="3"/>
</svg>
