<svg width="48" height="48" viewBox="0 0 48 48" fill="none" xmlns="http://www.w3.org/2000/svg">
<g clip-path="url(#clip0_1127_3178)">
<path fill-rule="evenodd" clip-rule="evenodd" d="M23.25 11.5C23.25 11.2239 23.0261 11 22.75 11H16C15.5359 11 15.0907 11.1844 14.7626 11.5126C14.4344 11.8408 14.25 12.2859 14.25 12.75V21.75C14.25 22.0261 14.4739 22.25 14.75 22.25H22.75C23.0261 22.25 23.25 22.0261 23.25 21.75V11.5ZM13.75 33C14.0261 33 14.25 32.7761 14.25 32.5V24.25C14.25 23.9739 14.4739 23.75 14.75 23.75H22.75C23.0261 23.75 23.25 23.9739 23.25 24.25V32.5C23.25 32.7761 23.4739 33 23.75 33H24.25C24.5261 33 24.75 32.7761 24.75 32.5V24.25C24.75 23.9739 24.9739 23.75 25.25 23.75H33.25C33.5261 23.75 33.75 23.9739 33.75 24.25V32.5C33.75 32.7761 33.9739 33 34.25 33H35C35.5523 33 36 33.4477 36 34C36 34.5523 35.5523 35 35 35H13C12.4477 35 12 34.5523 12 34C12 33.4477 12.4477 33 13 33H13.75ZM33.75 21.75C33.75 22.0261 33.5261 22.25 33.25 22.25H25.25C24.9739 22.25 24.75 22.0261 24.75 21.75V11.5C24.75 11.2239 24.9739 11 25.25 11H32C32.4641 11 32.9092 11.1844 33.2374 11.5126C33.5656 11.8408 33.75 12.2859 33.75 12.75V21.75Z" fill="#3880D1"/>
</g>
<circle cx="24" cy="24" r="22.5" stroke="#104B8E" stroke-width="3"/>
<path d="M8.86499 7.74194L39.2717 41.3097" stroke="#104B8E" stroke-width="3"/>
<defs>
<clipPath id="clip0_1127_3178">
<rect width="24" height="24" fill="white" transform="translate(12 11)"/>
</clipPath>
</defs>
</svg>
