<svg width="48" height="48" viewBox="0 0 48 48" fill="none" xmlns="http://www.w3.org/2000/svg">
<path d="M23.1211 15.8477C23.1211 17.7125 23.8619 19.5009 25.1805 20.8195C26.4991 22.1381 28.2875 22.8789 30.1523 22.8789C32.0171 22.8789 33.8056 22.1381 35.1242 20.8195C36.4428 19.5009 37.1836 17.7125 37.1836 15.8477C37.1836 13.9829 36.4428 12.1944 35.1242 10.8758C33.8056 9.5572 32.0171 8.81641 30.1523 8.81641C28.2875 8.81641 26.4991 9.5572 25.1805 10.8758C23.8619 12.1944 23.1211 13.9829 23.1211 15.8477Z" fill="#3880D1"/>
<path d="M30.1523 28.1523V14.0898" stroke="#3880D1" stroke-width="2.125" stroke-linecap="round" stroke-linejoin="round"/>
<path d="M30.1523 20.2422C30.1523 17.6055 31.9102 16.7266 32.7891 16.7266" stroke="#3880D1" stroke-width="2.125" stroke-linecap="round" stroke-linejoin="round"/>
<path d="M30.1523 20.2422C30.1523 17.6055 28.3945 16.7266 27.5156 16.7266" stroke="#3880D1" stroke-width="2.125" stroke-linecap="round" stroke-linejoin="round"/>
<path d="M16.9688 28.1523V19.3633" stroke="#3880D1" stroke-width="2.125" stroke-linecap="round" stroke-linejoin="round"/>
<path fill-rule="evenodd" clip-rule="evenodd" d="M21.993 13.6072C20.9412 12.4627 19.4317 11.7454 17.7547 11.7454C14.5765 11.7454 12 14.3218 12 17.5001C12 20.6783 14.5765 23.2548 17.7547 23.2548C19.8456 23.2548 21.6761 22.1397 22.6838 20.4717C21.8581 19.3459 21.3705 17.9567 21.3705 16.4536C21.3705 15.4374 21.5934 14.4732 21.993 13.6072Z" fill="#3880D1"/>
<path d="M10.8164 28.1523H37.1836" stroke="#3880D1" stroke-width="2.125" stroke-linecap="round" stroke-linejoin="round"/>
<path d="M10.8164 35.1836H37.1836" stroke="#3880D1" stroke-width="2.125" stroke-linecap="round" stroke-linejoin="round"/>
<path d="M16.0898 31.668H20.4844" stroke="#3880D1" stroke-width="2.125" stroke-linecap="round" stroke-linejoin="round"/>
<path d="M31.9102 31.668H27.5156" stroke="#3880D1" stroke-width="2.125" stroke-linecap="round" stroke-linejoin="round"/>
<circle cx="24" cy="24" r="22.5" stroke="#104B8E" stroke-width="3"/>
</svg>
