<svg width="160" height="160" viewBox="0 0 160 160" fill="none" xmlns="http://www.w3.org/2000/svg">
<path d="M116.417 50.7911H100.125C99.6167 50.7911 99.1292 50.5892 98.7697 50.2297C98.4103 49.8703 98.2083 49.3828 98.2083 48.8744V43.1628C98.2083 40.3669 97.0977 37.6856 95.1208 35.7087C93.1438 33.7317 90.4625 32.6211 87.6667 32.6211H72.3333C69.5375 32.6211 66.8562 33.7317 64.8792 35.7087C62.9023 37.6856 61.7917 40.3669 61.7917 43.1628V48.8744C61.7917 49.3828 61.5897 49.8703 61.2303 50.2297C60.8708 50.5892 60.3833 50.7911 59.875 50.7911H43.5833C41.0417 50.7911 38.6041 51.8008 36.8069 53.598C35.0097 55.3952 34 57.8328 34 60.3744V106.374C34 108.916 35.0097 111.354 36.8069 113.151C38.6041 114.948 41.0417 115.958 43.5833 115.958H116.417C118.958 115.958 121.396 114.948 123.193 113.151C124.99 111.354 126 108.916 126 106.374V60.3744C126 57.8328 124.99 55.3952 123.193 53.598C121.396 51.8008 118.958 50.7911 116.417 50.7911ZM71.375 43.1244C71.3849 42.877 71.4902 42.6429 71.6689 42.4714C71.8475 42.2999 72.0857 42.2042 72.3333 42.2044H87.6667C87.9208 42.2044 88.1646 42.3054 88.3443 42.4851C88.524 42.6648 88.625 42.9086 88.625 43.1628V48.8744C88.625 49.3828 88.4231 49.8703 88.0636 50.2297C87.7042 50.5892 87.2167 50.7911 86.7083 50.7911H73.2917C72.7833 50.7911 72.2958 50.5892 71.9364 50.2297C71.5769 49.8703 71.375 49.3828 71.375 48.8744V43.1244ZM97.25 89.1244C97.25 89.3761 97.2004 89.6254 97.1041 89.8579C97.0078 90.0904 96.8666 90.3017 96.6886 90.4797C96.5106 90.6577 96.2994 90.7989 96.0668 90.8952C95.8343 90.9915 95.585 91.0411 95.3333 91.0411H87.6667C87.1583 91.0411 86.6708 91.243 86.3114 91.6025C85.9519 91.9619 85.75 92.4494 85.75 92.9578V100.624C85.75 101.133 85.5481 101.62 85.1886 101.98C84.8292 102.339 84.3417 102.541 83.8333 102.541H76.1667C75.6583 102.541 75.1708 102.339 74.8114 101.98C74.4519 101.62 74.25 101.133 74.25 100.624V92.9578C74.25 92.4494 74.0481 91.9619 73.6886 91.6025C73.3292 91.243 72.8417 91.0411 72.3333 91.0411H64.6667C64.415 91.0411 64.1657 90.9915 63.9332 90.8952C63.7006 90.7989 63.4894 90.6577 63.3114 90.4797C63.1334 90.3017 62.9922 90.0904 62.8959 89.8579C62.7996 89.6254 62.75 89.3761 62.75 89.1244V81.4578C62.75 80.9494 62.9519 80.4619 63.3114 80.1025C63.6708 79.743 64.1583 79.5411 64.6667 79.5411H72.3333C72.8417 79.5411 73.3292 79.3392 73.6886 78.9797C74.0481 78.6203 74.25 78.1328 74.25 77.6244V69.9578C74.25 69.4494 74.4519 68.9619 74.8114 68.6025C75.1708 68.243 75.6583 68.0411 76.1667 68.0411H83.8333C84.3417 68.0411 84.8292 68.243 85.1886 68.6025C85.5481 68.9619 85.75 69.4494 85.75 69.9578V77.6244C85.75 78.1328 85.9519 78.6203 86.3114 78.9797C86.6708 79.3392 87.1583 79.5411 87.6667 79.5411H95.3333C95.8417 79.5411 96.3292 79.743 96.6886 80.1025C97.0481 80.4619 97.25 80.9494 97.25 81.4578V89.1244Z" fill="#104B8E"/>
<circle cx="80" cy="80" r="75" stroke="#104B8E" stroke-width="10"/>
</svg>
