<svg  viewBox="0 0 160 160" fill="none" xmlns="http://www.w3.org/2000/svg">
<g clip-path="url(#clip0_1851_3194)">
<path d="M70.4711 92.2822L63.3028 85.3339C61.425 83.5486 58.9271 82.5626 56.3362 82.5839C56.1345 82.5839 55.5478 82.4556 55.4195 83.1339C55.2098 84.7099 54.4518 86.1617 53.2784 87.2345C52.105 88.3073 50.5913 88.9326 49.0028 89.0006C47.4176 88.9284 45.9082 88.3012 44.7386 87.2288C43.569 86.1564 42.8136 84.7069 42.6045 83.1339C42.4762 82.4556 41.8712 82.6389 41.6878 82.5839C39.0906 82.5578 36.5852 83.5442 34.7028 85.3339L27.5345 92.2822C27.3626 92.4527 27.2263 92.6554 27.1332 92.8788C27.0401 93.1022 26.9922 93.3419 26.9922 93.5839C26.9922 93.8259 27.0401 94.0655 27.1332 94.2889C27.2263 94.5124 27.3626 94.7151 27.5345 94.8856L31.8062 99.1389C32.1303 99.4817 32.5742 99.6864 33.0454 99.7103C33.5167 99.7342 33.979 99.5755 34.3362 99.2672L36.6095 97.4339C36.7454 97.3266 36.9094 97.2609 37.0818 97.2446C37.2542 97.2283 37.4276 97.2622 37.5812 97.3422C37.7184 97.4299 37.8298 97.5525 37.9039 97.6975C37.978 97.8425 38.0121 98.0047 38.0028 98.1672V115.584C38.0028 116.07 38.196 116.536 38.5398 116.88C38.8836 117.224 39.3499 117.417 39.8362 117.417H58.1695C58.6557 117.417 59.122 117.224 59.4659 116.88C59.8097 116.536 60.0028 116.07 60.0028 115.584V98.1672C60.0025 97.9954 60.0504 97.827 60.1412 97.6811C60.2319 97.5352 60.3619 97.4178 60.5162 97.3422C60.6697 97.2622 60.8431 97.2283 61.0155 97.2446C61.1879 97.2609 61.3519 97.3266 61.4878 97.4339L63.7428 99.1756C64.0931 99.4649 64.5384 99.6139 64.9923 99.5935C65.4462 99.5732 65.8764 99.3851 66.1995 99.0656L70.4711 94.8122C70.7962 94.4713 70.9775 94.0183 70.9775 93.5472C70.9775 93.0762 70.7962 92.6232 70.4711 92.2822Z" fill="#104B8E"/>
</g>
<circle cx="80" cy="80" r="75" transform="matrix(1 0 0 -1 0 160)" stroke="#104B8E" stroke-width="10"/>
<path d="M82.0234 77.9766L145.821 41.8584" stroke="#104B8E" stroke-width="4"/>
<path d="M81.6884 155.613V78.3137L16.2031 39.1576" stroke="#104B8E" stroke-width="4"/>
<g clip-path="url(#clip1_1851_3194)">
<path d="M131.479 87.8359H100.514C98.7374 87.8887 97.0543 88.6441 95.8341 89.9365C94.6139 91.2289 93.9563 92.9526 94.0056 94.7293V97.9926C93.9664 99.0295 94.1323 100.064 94.4938 101.037C94.8552 102.009 95.4052 102.901 96.112 103.661C96.8189 104.42 97.6688 105.033 98.6129 105.463C99.5571 105.894 100.577 106.134 101.614 106.169C103.876 106.132 106.078 105.434 107.949 104.16C109.819 102.886 111.275 101.093 112.137 99.0009C112.247 98.7756 112.436 98.5992 112.669 98.5059C114.811 97.7903 117.127 97.7903 119.269 98.5059C119.386 98.5488 119.494 98.6147 119.585 98.6997C119.676 98.7847 119.75 98.8871 119.801 99.0009C120.675 101.096 122.141 102.89 124.02 104.163C125.899 105.437 128.109 106.134 130.379 106.169C132.468 106.097 134.444 105.201 135.874 103.675C137.303 102.149 138.07 100.119 138.006 98.0293V94.7476C138.055 92.966 137.395 91.2377 136.172 89.9419C134.948 88.6461 133.26 87.8887 131.479 87.8359ZM113.751 94.3993C113.685 94.4084 113.619 94.4034 113.555 94.3844C113.492 94.3654 113.434 94.333 113.384 94.2893C113.335 94.2458 113.297 94.1919 113.271 94.1317C113.246 94.0714 113.234 94.0062 113.237 93.9409V93.7026C113.238 92.8452 113.044 91.9988 112.669 91.2276C112.639 91.1566 112.627 91.0794 112.634 91.0028C112.641 90.9261 112.666 90.8522 112.707 90.7873C112.749 90.7224 112.805 90.6686 112.872 90.6303C112.939 90.5921 113.014 90.5705 113.091 90.5676H118.866C118.944 90.5669 119.02 90.5869 119.088 90.6256C119.156 90.6642 119.212 90.7201 119.251 90.7876C119.291 90.8538 119.313 90.93 119.313 91.0076C119.313 91.0852 119.291 91.1614 119.251 91.2276C118.877 92.0058 118.683 92.8578 118.682 93.7209V93.9409C118.685 94.0062 118.674 94.0714 118.648 94.1317C118.623 94.1919 118.584 94.2458 118.536 94.2893C118.486 94.333 118.428 94.3654 118.364 94.3844C118.301 94.4034 118.234 94.4084 118.169 94.3993C116.703 94.1891 115.215 94.1952 113.751 94.4176V94.3993Z" fill="#104B8E"/>
</g>
<path fill-rule="evenodd" clip-rule="evenodd" d="M96.2578 51.2539C91.1192 53.4123 85.5793 54.4511 80.0078 54.3008C74.4362 54.4511 68.8965 53.4123 63.7578 51.2539V32.9727C63.7578 32.9727 73.7109 23.832 80.0078 23.832C86.3047 23.832 96.2578 32.9727 96.2578 32.9727V51.2539ZM79.9308 34.6529C76.4619 34.7735 73.0046 35.1195 69.5806 35.689C68.6953 35.8362 68.097 36.6733 68.2442 37.5586C68.3915 38.4439 69.2285 39.0422 70.1138 38.8949C73.3855 38.3508 76.6888 38.0193 80.0034 37.9023C83.3181 38.0193 86.6215 38.3508 89.8931 38.8949C90.7784 39.0422 91.6154 38.4439 91.7627 37.5586C91.9099 36.6733 91.3116 35.8362 90.4263 35.689C87.0024 35.1195 83.545 34.7735 80.0761 34.6529C80.052 34.6518 80.0278 34.6513 80.0034 34.6513C79.9791 34.6513 79.9549 34.6518 79.9308 34.6529ZM68.6627 44.1499C68.8461 43.2714 69.7069 42.7078 70.5854 42.8912C73.7007 43.5414 76.8599 43.8924 80.0281 43.9404C80.2121 43.9432 80.3885 43.9765 80.5526 44.0354C83.6759 43.9619 86.7886 43.6351 89.8597 43.0582C90.7417 42.8925 91.5911 43.4732 91.7568 44.3552C91.9225 45.2373 91.3417 46.0866 90.4597 46.2523C87.0181 46.8988 83.5271 47.2479 80.0256 47.2957C79.8025 47.2988 79.5893 47.2567 79.3947 47.178C76.2151 47.0947 73.0468 46.725 69.9214 46.0726C69.0429 45.8893 68.4793 45.0284 68.6627 44.1499Z" fill="#104B8E"/>
<path d="M80.0078 54.3008L80.0202 53.8421H79.9954L80.0078 54.3008ZM96.2578 51.2539L96.4355 51.6769L96.7166 51.2539H96.2578ZM63.7578 51.2539H63.299L63.5801 51.6769L63.7578 51.2539ZM63.7578 32.9727L63.4475 32.6347L63.299 32.9727H63.7578ZM96.2578 32.9727H96.7166L96.5682 32.6347L96.2578 32.9727ZM69.5806 35.689L69.6559 36.1416H69.6559L69.5806 35.689ZM79.9308 34.6529L79.9468 35.1114L79.9508 35.1113L79.9308 34.6529ZM68.2442 37.5586L67.7916 37.6339L68.2442 37.5586ZM70.1138 38.8949L70.1891 39.3476H70.1891L70.1138 38.8949ZM80.0034 37.9023L80.0196 37.4438H79.9873L80.0034 37.9023ZM89.8931 38.8949L89.9684 38.4423V38.4423L89.8931 38.8949ZM91.7627 37.5586L91.3101 37.4833V37.4833L91.7627 37.5586ZM90.4263 35.689L90.351 36.1416L90.4263 35.689ZM80.0761 34.6529L80.0561 35.1113L80.0601 35.1114L80.0761 34.6529ZM80.0034 34.6513L80.0032 35.1101H80.0037L80.0034 34.6513ZM70.5854 42.8912L70.4917 43.3403L70.5854 42.8912ZM68.6627 44.1499L69.1118 44.2437L68.6627 44.1499ZM80.0281 43.9404L80.0211 44.3992H80.0211L80.0281 43.9404ZM80.5526 44.0354L80.3976 44.4673L80.5634 44.4941L80.5526 44.0354ZM89.8597 43.0582L89.775 42.6072V42.6072L89.8597 43.0582ZM90.4597 46.2523L90.5444 46.7033L90.4597 46.2523ZM80.0256 47.2957L80.0319 47.7545H80.0319L80.0256 47.2957ZM79.3947 47.178L79.5667 46.7526L79.4067 46.7193L79.3947 47.178ZM69.9214 46.0726L69.8277 46.5218H69.8277L69.9214 46.0726ZM79.9954 54.7594C85.6321 54.9115 91.2367 53.8606 96.4355 51.6769L96.0801 50.8309C91.0016 52.964 85.5265 53.9907 80.0202 53.8421L79.9954 54.7594ZM63.5801 51.6769C68.7789 53.8606 74.3834 54.9115 80.0202 54.7594L79.9954 53.8421C74.489 53.9907 69.0141 52.964 63.9355 50.8309L63.5801 51.6769ZM63.299 32.9727V51.2539H64.2166V32.9727H63.299ZM80.0078 23.3732C78.3343 23.3732 76.4592 23.977 74.6167 24.8452C72.7664 25.7171 70.9086 26.8751 69.259 28.026C67.6078 29.178 66.1565 30.3289 65.1182 31.1915C64.5988 31.623 64.1822 31.9828 63.8949 32.2352C63.7513 32.3614 63.64 32.4608 63.5643 32.5289C63.5265 32.5629 63.4975 32.5891 63.4779 32.6069C63.4681 32.6158 63.4606 32.6227 63.4555 32.6273C63.453 32.6296 63.451 32.6314 63.4497 32.6327C63.449 32.6333 63.4485 32.6338 63.4481 32.6341C63.4479 32.6343 63.4478 32.6344 63.4477 32.6345C63.4476 32.6346 63.4475 32.6347 63.7578 32.9727C64.0682 33.3106 64.0681 33.3106 64.0682 33.3106C64.0682 33.3105 64.0683 33.3105 64.0684 33.3104C64.0686 33.3102 64.069 33.3098 64.0696 33.3093C64.0706 33.3083 64.0723 33.3068 64.0746 33.3047C64.0791 33.3006 64.086 33.2943 64.0952 33.2859C64.1136 33.2692 64.1414 33.2441 64.178 33.2111C64.2511 33.1453 64.3598 33.0483 64.5006 32.9246C64.7823 32.6771 65.1925 32.3228 65.7046 31.8974C66.7293 31.0461 68.1597 29.9119 69.784 28.7786C71.4097 27.6444 73.2209 26.5173 75.0078 25.6753C76.8025 24.8297 78.5329 24.2909 80.0078 24.2909V23.3732ZM96.2578 32.9727C96.5682 32.6347 96.5681 32.6346 96.5679 32.6345C96.5679 32.6344 96.5677 32.6343 96.5675 32.6341C96.5671 32.6338 96.5666 32.6333 96.5659 32.6327C96.5646 32.6314 96.5626 32.6296 96.5601 32.6273C96.555 32.6227 96.5475 32.6158 96.5377 32.6069C96.5181 32.5891 96.4892 32.5629 96.4513 32.5289C96.3756 32.4608 96.2643 32.3614 96.1207 32.2352C95.8335 31.9828 95.4168 31.623 94.8974 31.1915C93.8592 30.3289 92.4078 29.178 90.7567 28.026C89.107 26.8751 87.2493 25.7171 85.3989 24.8452C83.5564 23.977 81.6813 23.3732 80.0078 23.3732V24.2909C81.4827 24.2909 83.2131 24.8297 85.0078 25.6753C86.7947 26.5173 88.6059 27.6444 90.2316 28.7786C91.8559 29.9119 93.2863 31.0461 94.3111 31.8974C94.8232 32.3228 95.2333 32.6771 95.515 32.9246C95.6558 33.0483 95.7645 33.1453 95.8377 33.2111C95.8743 33.2441 95.902 33.2692 95.9204 33.2859C95.9296 33.2943 95.9365 33.3006 95.9411 33.3047C95.9433 33.3068 95.945 33.3083 95.9461 33.3093C95.9466 33.3098 95.947 33.3102 95.9472 33.3104C95.9473 33.3105 95.9474 33.3105 95.9475 33.3106C95.9475 33.3106 95.9475 33.3106 96.2578 32.9727ZM96.7166 51.2539V32.9727H95.799V51.2539H96.7166ZM69.6559 36.1416C73.0602 35.5754 76.4977 35.2313 79.9468 35.1114L79.9149 34.1943C76.426 34.3156 72.9489 34.6636 69.5053 35.2364L69.6559 36.1416ZM68.6968 37.4833C68.5912 36.848 69.0205 36.2473 69.6559 36.1416L69.5053 35.2364C68.37 35.4252 67.6028 36.4986 67.7916 37.6339L68.6968 37.4833ZM70.0385 38.4423C69.4032 38.548 68.8025 38.1186 68.6968 37.4833L67.7916 37.6339C67.9804 38.7691 69.0538 39.5364 70.1891 39.3476L70.0385 38.4423ZM79.9873 37.4438C76.6529 37.5614 73.3297 37.8949 70.0385 38.4423L70.1891 39.3476C73.4412 38.8067 76.7248 38.4771 80.0196 38.3609L79.9873 37.4438ZM89.9684 38.4423C86.6772 37.8949 83.354 37.5614 80.0196 37.4438L79.9873 38.3609C83.2821 38.4771 86.5658 38.8067 89.8178 39.3476L89.9684 38.4423ZM91.3101 37.4833C91.2044 38.1186 90.6037 38.548 89.9684 38.4423L89.8178 39.3476C90.9531 39.5364 92.0265 38.7691 92.2153 37.6339L91.3101 37.4833ZM90.351 36.1416C90.9864 36.2473 91.4157 36.848 91.3101 37.4833L92.2153 37.6339C92.4041 36.4986 91.6369 35.4252 90.5016 35.2364L90.351 36.1416ZM80.0601 35.1114C83.5092 35.2313 86.9468 35.5754 90.351 36.1416L90.5016 35.2364C87.058 34.6636 83.5809 34.3156 80.092 34.1943L80.0601 35.1114ZM80.0037 35.1101C80.0213 35.1101 80.0387 35.1105 80.0561 35.1113L80.0961 34.1945C80.0652 34.1932 80.0343 34.1925 80.0032 34.1925L80.0037 35.1101ZM79.9508 35.1113C79.9682 35.1105 79.9856 35.1101 80.0032 35.1101L80.0037 34.1925C79.9726 34.1925 79.9417 34.1932 79.9108 34.1945L79.9508 35.1113ZM70.6792 42.4421C69.5526 42.2069 68.4487 42.9296 68.2136 44.0562L69.1118 44.2437C69.2434 43.6132 69.8612 43.2088 70.4917 43.3403L70.6792 42.4421ZM80.035 43.4817C76.8961 43.4341 73.766 43.0863 70.6792 42.4421L70.4917 43.3403C73.6354 43.9965 76.8236 44.3507 80.0211 44.3992L80.035 43.4817ZM80.7076 43.6035C80.4966 43.5278 80.2702 43.4852 80.035 43.4817L80.0211 44.3992C80.154 44.4012 80.2804 44.4252 80.3976 44.4673L80.7076 43.6035ZM89.775 42.6072C86.7283 43.1796 83.6403 43.5038 80.5418 43.5767L80.5634 44.4941C83.7115 44.42 86.8489 44.0906 89.9444 43.5091L89.775 42.6072ZM92.2077 44.2705C91.9952 43.1395 90.9061 42.3948 89.775 42.6072L89.9444 43.5091C90.5774 43.3902 91.1869 43.807 91.3058 44.4399L92.2077 44.2705ZM90.5444 46.7033C91.6755 46.4908 92.4202 45.4016 92.2077 44.2705L91.3058 44.4399C91.4247 45.0729 91.008 45.6825 90.375 45.8014L90.5444 46.7033ZM80.0319 47.7545C83.5597 47.7064 87.077 47.3546 90.5444 46.7033L90.375 45.8014C86.9593 46.443 83.4945 46.7895 80.0194 46.8369L80.0319 47.7545ZM79.2227 47.6033C79.4729 47.7045 79.7466 47.7584 80.0319 47.7545L80.0194 46.8369C79.8584 46.8391 79.7057 46.8089 79.5667 46.7526L79.2227 47.6033ZM69.8277 46.5218C72.9798 47.1797 76.1755 47.5526 79.3827 47.6367L79.4067 46.7193C76.2547 46.6367 73.1137 46.2702 70.0152 45.6235L69.8277 46.5218ZM68.2136 44.0562C67.9784 45.1828 68.7011 46.2867 69.8277 46.5218L70.0152 45.6235C69.3847 45.4919 68.9803 44.8741 69.1118 44.2437L68.2136 44.0562Z" fill="#104B8E"/>
<path d="M63.7578 50.1862C61.7408 48.9451 60.0752 47.2082 58.9196 45.1408C57.764 43.0736 57.1569 40.745 57.1563 38.3765V29.9835C57.1562 29.6805 57.2188 29.3807 57.3401 29.103C57.4614 28.8253 57.6389 28.5757 57.8613 28.3699C58.0837 28.164 58.3463 28.0064 58.6326 27.9069C58.9188 27.8075 59.2226 27.7683 59.5247 27.7918C59.9609 27.8256 60.3843 27.955 60.7649 28.1709C61.1454 28.3868 61.4738 28.6839 61.7266 29.041L63.7578 31.9051" stroke="#104B8E" stroke-width="2.36364" stroke-linecap="round" stroke-linejoin="round"/>
<path d="M96.25 50.1862C98.2676 48.9447 99.9337 47.2072 101.089 45.1392C102.245 43.0712 102.852 40.7415 102.852 38.3725V29.9835C102.852 29.6805 102.789 29.3807 102.668 29.103C102.546 28.8253 102.369 28.5757 102.147 28.3699C101.924 28.164 101.661 28.0064 101.375 27.9069C101.089 27.8075 100.785 27.7683 100.483 27.7918C100.047 27.8256 99.6235 27.955 99.2428 28.1709C98.8624 28.3868 98.5341 28.6839 98.2813 29.041L96.25 31.9051" stroke="#104B8E" stroke-width="2.36364" stroke-linecap="round" stroke-linejoin="round"/>
<defs>
<clipPath id="clip0_1851_3194">
<rect width="44" height="44" fill="white" transform="translate(27 78)"/>
</clipPath>
<clipPath id="clip1_1851_3194">
<rect width="44" height="44" fill="white" transform="translate(94 75)"/>
</clipPath>
</defs>
</svg>
