<svg width="48" height="49" viewBox="0 0 48 49" fill="none" xmlns="http://www.w3.org/2000/svg">
<g clip-path="url(#clip0_1127_3131)">
<path d="M23.5218 23.34C23.0651 23.912 22.7494 24.5834 22.6001 25.3C22.6001 25.6713 22.7476 26.0274 23.0101 26.2899C23.2727 26.5525 23.6288 26.7 24.0001 26.7C24.3714 26.7 24.7275 26.5525 24.99 26.2899C25.2526 26.0274 25.4001 25.6713 25.4001 25.3C25.2508 24.5834 24.9351 23.912 24.4784 23.34C24.4217 23.2672 24.3491 23.2084 24.2662 23.1679C24.1834 23.1275 24.0923 23.1064 24.0001 23.1064C23.9079 23.1064 23.8168 23.1275 23.734 23.1679C23.6511 23.2084 23.5785 23.2672 23.5218 23.34Z" fill="#3880D1"/>
<path d="M16.1717 23.34C15.715 23.912 15.3993 24.5834 15.25 25.3C15.25 25.6713 15.3975 26.0274 15.6601 26.2899C15.9226 26.5525 16.2787 26.7 16.65 26.7C17.0213 26.7 17.3774 26.5525 17.6399 26.2899C17.9025 26.0274 18.05 25.6713 18.05 25.3C17.9007 24.5834 17.585 23.912 17.1283 23.34C17.0716 23.2672 16.999 23.2084 16.9161 23.1679C16.8333 23.1275 16.7422 23.1064 16.65 23.1064C16.5578 23.1064 16.4667 23.1275 16.3839 23.1679C16.301 23.2084 16.2284 23.2672 16.1717 23.34Z" fill="#3880D1"/>
<path d="M30.8719 23.34C30.4152 23.912 30.0995 24.5834 29.9502 25.3C29.9502 25.6713 30.0977 26.0274 30.3602 26.2899C30.6228 26.5525 30.9789 26.7 31.3502 26.7C31.7215 26.7 32.0776 26.5525 32.3401 26.2899C32.6027 26.0274 32.7502 25.6713 32.7502 25.3C32.6009 24.5834 32.2852 23.912 31.8285 23.34C31.7718 23.2672 31.6992 23.2084 31.6163 23.1679C31.5335 23.1275 31.4424 23.1064 31.3502 23.1064C31.258 23.1064 31.1669 23.1275 31.0841 23.1679C31.0012 23.2084 30.9286 23.2672 30.8719 23.34Z" fill="#3880D1"/>
<path d="M11.2718 29.0565C10.8151 29.6285 10.4994 30.2999 10.3501 31.0165C10.3501 31.3878 10.4976 31.7439 10.7601 32.0065C11.0227 32.269 11.3788 32.4165 11.7501 32.4165C12.1214 32.4165 12.4775 32.269 12.74 32.0065C13.0026 31.7439 13.1501 31.3878 13.1501 31.0165C13.0008 30.2999 12.6851 29.6285 12.2284 29.0565C12.1717 28.9838 12.0991 28.925 12.0162 28.8845C11.9334 28.844 11.8423 28.823 11.7501 28.823C11.6579 28.823 11.5668 28.844 11.484 28.8845C11.4011 28.925 11.3285 28.9838 11.2718 29.0565Z" fill="#3880D1"/>
<path d="M19.4385 29.0565C18.9818 29.6285 18.6661 30.2999 18.5168 31.0165C18.5168 31.3878 18.6643 31.7439 18.9269 32.0065C19.1894 32.269 19.5455 32.4165 19.9168 32.4165C20.2881 32.4165 20.6442 32.269 20.9068 32.0065C21.1693 31.7439 21.3168 31.3878 21.3168 31.0165C21.1676 30.2999 20.8519 29.6285 20.3952 29.0565C20.3384 28.9838 20.2659 28.925 20.183 28.8845C20.1001 28.844 20.0091 28.823 19.9168 28.823C19.8246 28.823 19.7336 28.844 19.6507 28.8845C19.5678 28.925 19.4952 28.9838 19.4385 29.0565Z" fill="#3880D1"/>
<path d="M36.7284 29.0565C36.6717 28.9838 36.5991 28.925 36.5162 28.8845C36.4334 28.844 36.3423 28.823 36.2501 28.823C36.1579 28.823 36.0668 28.844 35.984 28.8845C35.9011 28.925 35.8285 28.9838 35.7718 29.0565C35.3151 29.6285 34.9994 30.2999 34.8501 31.0165C34.8501 31.3878 34.9976 31.7439 35.2601 32.0065C35.5227 32.269 35.8788 32.4165 36.2501 32.4165C36.6214 32.4165 36.9775 32.269 37.24 32.0065C37.5026 31.7439 37.6501 31.3878 37.6501 31.0165C37.5008 30.2999 37.1851 29.6285 36.7284 29.0565Z" fill="#3880D1"/>
<path d="M27.605 29.0565C27.1483 29.6285 26.8326 30.2999 26.6833 31.0165C26.6833 31.3878 26.8308 31.7439 27.0934 32.0065C27.356 32.269 27.712 32.4165 28.0833 32.4165C28.4547 32.4165 28.8107 32.269 29.0733 32.0065C29.3358 31.7439 29.4834 31.3878 29.4834 31.0165C29.3341 30.2999 29.0184 29.6285 28.5617 29.0565C28.5049 28.9838 28.4324 28.925 28.3495 28.8845C28.2666 28.844 28.1756 28.823 28.0833 28.823C27.9911 28.823 27.9001 28.844 27.8172 28.8845C27.7343 28.925 27.6617 28.9838 27.605 29.0565Z" fill="#3880D1"/>
<path d="M25.9484 12.4316C26.0521 12.4471 26.158 12.4345 26.2551 12.3949C26.3521 12.3554 26.4368 12.2904 26.5 12.2068C26.5633 12.1233 26.6029 12.0242 26.6146 11.92C26.6264 11.8159 26.6098 11.7105 26.5667 11.6149L25.8551 10.0516C25.7621 9.85629 25.6167 9.69068 25.4351 9.57325C25.3529 9.52055 25.2853 9.44807 25.2384 9.36246C25.1915 9.27686 25.1669 9.18086 25.1667 9.08325V6.74992C25.1667 6.4405 25.0438 6.14375 24.825 5.92496C24.6062 5.70617 24.3095 5.58325 24.0001 5.58325C23.6906 5.58325 23.3939 5.70617 23.1751 5.92496C22.9563 6.14375 22.8334 6.4405 22.8334 6.74992V9.08325C22.8332 9.18086 22.8086 9.27686 22.7617 9.36246C22.7148 9.44807 22.6472 9.52055 22.5651 9.57325C22.3834 9.69068 22.238 9.85629 22.1451 10.0516L21.4334 11.6149C21.3903 11.7105 21.3738 11.8159 21.3855 11.92C21.3972 12.0242 21.4368 12.1233 21.5001 12.2068C21.5634 12.2904 21.648 12.3554 21.7451 12.3949C21.8421 12.4345 21.9481 12.4471 22.0517 12.4316C23.3439 12.2449 24.6562 12.2449 25.9484 12.4316Z" fill="#3880D1"/>
<path d="M24.0002 13.4582C22.0193 13.4527 20.0647 13.9122 18.2937 14.7997C16.5228 15.6872 14.9848 16.978 13.8035 18.5682C13.6791 18.7329 13.6005 18.9277 13.5759 19.1326C13.5513 19.3376 13.5816 19.5454 13.6635 19.7349C13.7581 19.9334 13.9068 20.1012 14.0926 20.2188C14.2784 20.3365 14.4936 20.3992 14.7135 20.3999H33.3335C33.5543 20.4006 33.7708 20.3387 33.9578 20.2213C34.1447 20.104 34.2946 19.9359 34.3899 19.7368C34.4852 19.5376 34.522 19.3155 34.4961 19.0963C34.4702 18.877 34.3826 18.6696 34.2435 18.4982C33.0471 16.9179 31.4977 15.6392 29.7192 14.7641C27.9407 13.8891 25.9823 13.4419 24.0002 13.4582Z" fill="#3880D1"/>
</g>
<circle cx="24" cy="24.6667" r="22.5" stroke="#104B8E" stroke-width="3"/>
<defs>
<clipPath id="clip0_1127_3131">
<rect width="28" height="28" fill="white" transform="translate(10 5)"/>
</clipPath>
</defs>
</svg>
