<svg  viewBox="0 0 160 160" fill="none" xmlns="http://www.w3.org/2000/svg">
<g clip-path="url(#clip0_1851_3213)">
<path d="M109.727 32.4681C109.716 31.9591 109.507 31.4745 109.143 31.1182C108.78 30.7619 108.291 30.5624 107.782 30.5625H94.171C93.6553 30.5625 93.1607 30.7674 92.7961 31.132C92.4314 31.4967 92.2266 31.9912 92.2266 32.5069V33.6347C92.2771 34.874 92.7585 36.0568 93.5877 36.9792L109.143 53.1958C109.493 53.5458 109.804 53.4292 109.804 52.9236L109.727 32.4681Z" fill="#104B8E"/>
<path d="M123.341 116.116C123.341 115.085 122.931 114.096 122.202 113.366C121.473 112.637 120.484 112.227 119.452 112.227H113.619C113.103 112.227 112.609 112.023 112.244 111.658C111.879 111.293 111.674 110.799 111.674 110.283V81.1163C111.674 80.6006 111.879 80.106 112.244 79.7414C112.609 79.3767 113.103 79.1719 113.619 79.1719H119.452C120.216 79.1712 120.962 78.946 121.598 78.5241C122.234 78.1023 122.732 77.5026 123.03 76.7996C123.324 76.1001 123.408 75.3296 123.269 74.5833C123.131 73.837 122.778 73.1474 122.252 72.5996L79.4745 27.8385C79.1117 27.4622 78.6768 27.1628 78.1957 26.9583C77.7146 26.7538 77.1972 26.6484 76.6745 26.6484C76.1517 26.6484 75.6344 26.7538 75.1533 26.9583C74.6722 27.1628 74.2372 27.4622 73.8745 27.8385L31.0967 72.5608C30.5713 73.1086 30.2178 73.7981 30.0796 74.5444C29.9414 75.2907 30.0246 76.0612 30.3189 76.7608C30.6166 77.4637 31.1146 78.0634 31.7508 78.4853C32.3871 78.9071 33.1333 79.1324 33.8967 79.133H39.73C39.9887 79.1329 40.2448 79.1845 40.4832 79.2846C40.7217 79.3848 40.9378 79.5315 41.1189 79.7162C41.3 79.9009 41.4424 80.1198 41.5378 80.3603C41.6332 80.6007 41.6797 80.8577 41.6745 81.1163V110.283C41.6745 110.799 41.4696 111.293 41.105 111.658C40.7403 112.023 40.2457 112.227 39.73 112.227H33.8967C32.8653 112.227 31.8761 112.637 31.1468 113.366C30.4175 114.096 30.0078 115.085 30.0078 116.116C30.0078 117.148 30.4175 118.137 31.1468 118.866C31.8761 119.595 32.8653 120.005 33.8967 120.005H119.452C120.484 120.005 121.473 119.595 122.202 118.866C122.931 118.137 123.341 117.148 123.341 116.116ZM76.6745 54.8274C78.5974 54.8274 80.477 55.3976 82.0759 56.4659C83.6747 57.5342 84.9208 59.0526 85.6566 60.8291C86.3925 62.6056 86.585 64.5604 86.2099 66.4464C85.8348 68.3323 84.9088 70.0646 83.5491 71.4243C82.1894 72.784 80.4571 73.7099 78.5712 74.0851C76.6853 74.4602 74.7304 74.2677 72.9539 73.5318C71.1774 72.796 69.659 71.5498 68.5907 69.951C67.5224 68.3522 66.9523 66.4725 66.9523 64.5496C66.9523 61.9712 67.9766 59.4983 69.7998 57.675C71.6231 55.8517 74.096 54.8274 76.6745 54.8274ZM68.6245 99.5107C68.505 98.9849 68.2155 98.5131 67.8006 98.1686C67.3858 97.8241 66.8689 97.626 66.33 97.6052H65.0078C64.4921 97.6052 63.9975 97.4003 63.6329 97.0357C63.2682 96.671 63.0634 96.1765 63.0634 95.6608V91.7719C63.0634 88.162 64.4974 84.6999 67.05 82.1474C69.6025 79.5948 73.0646 78.1608 76.6745 78.1608C80.2844 78.1608 83.7464 79.5948 86.299 82.1474C88.8516 84.6999 90.2856 88.162 90.2856 91.7719V95.6608C90.2856 96.1765 90.0807 96.671 89.7161 97.0357C89.3514 97.4003 88.8568 97.6052 88.3411 97.6052H87.0578C86.5122 97.6176 85.9863 97.8118 85.5636 98.157C85.1409 98.5022 84.8456 98.9786 84.7245 99.5107C84.7245 99.5107 83.2467 107.289 82.5856 110.633C82.501 111.1 82.2487 111.519 81.8763 111.813C81.5038 112.107 81.0369 112.254 80.5634 112.227H72.7856C72.3373 112.228 71.9028 112.073 71.5556 111.789C71.2083 111.506 70.9697 111.111 70.88 110.672C70.1023 107.25 68.6245 99.5107 68.6245 99.5107Z" fill="#104B8E"/>
</g>
<circle cx="80" cy="80" r="75" stroke="#104B8E" stroke-width="10"/>
<defs>
<clipPath id="clip0_1851_3213">
<rect width="93.3333" height="93.3333" fill="white" transform="translate(30 26.668)"/>
</clipPath>
</defs>
</svg>
