<svg viewBox="0 0 141 50" fill="none" xmlns="http://www.w3.org/2000/svg">
<path fill-rule="evenodd" clip-rule="evenodd" d="M4.08824 28.9729V46.1079H11.1382C11.1382 46.2872 10.8686 49.2033 10.8686 49.3826H0.136719V29.4214C0.316053 29.4214 3.90847 29.0178 4.08824 28.9729ZM18.6822 33.6378C17.4246 33.6378 15.5837 33.8625 14.3711 34.0863C14.3711 34.2212 14.012 37.0019 13.9671 37.2712C15.1347 37.0024 16.7064 36.5983 18.1433 36.5983C19.8498 36.5983 21.6009 36.9125 22.0049 39.2452V39.3796L19.1761 39.3346C15.8084 39.3346 12.3953 41.0839 12.3953 44.4036C12.3953 48.9341 17.066 49.6069 19.8948 49.6069C21.915 49.6069 23.6216 49.4721 25.8221 49.1583V40.8151C25.8221 36.1048 23.3524 33.6378 18.6822 33.6378ZM22.0049 46.467C21.5114 46.5115 20.8827 46.6014 20.2539 46.6014C17.6939 46.6014 16.4368 45.7043 16.4368 44.4485C16.4368 43.4615 17.4246 42.3851 19.5802 42.3851C20.4782 42.3851 21.2867 42.43 22.0049 42.43V46.467ZM39.3832 34.7147C40.8196 34.0418 42.6161 33.6378 44.2327 33.6378C48.6786 33.6378 51.2378 35.9704 51.2378 40.0074V49.4276H47.4211V40.1423C47.4211 38.0788 46.1186 36.8675 44.0084 36.8675C42.9756 36.8675 42.212 37.1817 41.6282 37.406L41.5387 37.4509V37.5404C41.6731 38.1238 41.7181 38.931 41.7181 39.4245V49.4721H37.9014V39.5593C37.9014 37.7202 36.9135 36.868 34.8478 36.868C33.9498 36.868 33.1867 37.0024 32.2878 37.2267H32.1984V49.4276H28.3817V34.4904C29.9534 34.0868 32.3781 33.6382 34.8928 33.6382C36.9584 33.6382 38.2155 34.1767 39.2933 34.7151L39.3382 34.7596M58.8266 33.6378C58.3331 33.6378 57.9736 33.6378 57.4343 33.6827H57.3448V26.9993C57.165 27.0438 53.7075 27.4029 53.5281 27.4029V48.8442C55.2342 49.3377 56.8064 49.562 58.5125 49.562C64.3948 49.562 67.9423 46.3771 67.9423 41.0394C67.9423 37.6303 65.5625 33.6378 58.8266 33.6378ZM58.9165 46.3322C58.3327 46.3322 57.9736 46.2872 57.4347 46.1978H57.3448V36.9574H57.4347C57.8841 36.9125 58.1529 36.9125 58.6024 36.9125C61.9251 36.9125 64.0353 38.6168 64.0353 41.2637C64.0353 44.3586 62.06 46.3322 58.9165 46.3322ZM84.1978 41.9365C84.1978 36.7327 81.6378 33.6378 77.3272 33.6378C72.7918 33.6378 69.6488 36.8226 69.6488 41.443C69.6488 47.1843 74.3186 49.7862 78.6297 49.7862C80.1115 49.7862 81.6832 49.6069 82.8953 49.3826C82.8953 49.2478 83.2549 46.1528 83.2998 45.8841C81.6827 46.4216 80.2014 46.6913 78.8539 46.6913C75.9352 46.6913 73.7797 44.942 73.5554 42.43V42.3397H84.1978C84.1529 42.2048 84.1978 41.9365 84.1978 41.9365ZM73.8246 39.469L73.8696 39.3346C74.2741 37.7647 75.5761 36.7332 77.1478 36.7332C78.6746 36.7332 79.7519 37.6752 80.0665 39.3796L80.1115 39.5139C80.1115 39.4694 73.8246 39.469 73.8246 39.469ZM90.2595 30.0943V33.9969H95.5135C95.5135 34.1762 95.3791 36.7777 95.3791 36.9574H90.2595V43.5514C90.2595 46.1528 92.5045 46.467 93.4924 46.467C93.9863 46.467 94.3908 46.4221 95.6929 46.1528C95.6479 46.4216 95.2434 49.2033 95.1989 49.3377C94.3009 49.517 93.7171 49.562 93.0883 49.562C91.5166 49.562 86.3974 49.1583 86.3974 43.9101V30.4534C86.6221 30.4979 90.0797 30.1392 90.2595 30.0943ZM101.441 27.0438V35.4774L101.621 35.3425C102.564 34.6248 104 33.6827 105.887 33.6827C109.254 33.6827 111.41 35.7911 111.41 39.0209V49.3826H107.593V39.6488C107.593 37.8545 106.74 36.8675 105.123 36.8675C103.776 36.8675 102.339 37.8545 101.486 38.7517L101.441 38.7966V49.3826H97.5792V27.4479C97.714 27.4479 101.217 27.0438 101.441 27.0438ZM131.302 5.69245C122.681 14.215 114.957 16.727 109.569 15.785C102.294 14.5292 96.9953 12.6451 81.8625 16.0991C88.1044 9.99868 93.7175 8.20445 97.6241 8.83234C103.013 9.72946 106.92 11.165 118.235 8.51818L111.724 2.91123C104.36 9.81934 99.061 8.87729 97.5792 8.65257C95.9625 8.42873 86.8473 6.00617 74.8125 10.178C79.6175 5.46773 83.9282 4.07756 86.9368 4.57106C91.0681 5.28884 94.0766 6.36528 102.743 4.34634L97.7589 0.0859375C92.1013 5.37873 88.0595 4.66095 86.9372 4.48161C85.7246 4.30228 78.6297 2.41817 69.3792 5.69289L90.3045 23.6801C100.363 14.4402 107.593 15.696 109.569 15.9647C111.769 16.2789 124.297 19.5981 140.733 13.8118" fill="black"/>
</svg>
