<svg viewBox="0 0 117 83" fill="none" xmlns="http://www.w3.org/2000/svg">
<g clip-path="url(#clip0_1566_1500)">
<path fill-rule="evenodd" clip-rule="evenodd" d="M113.54 51.8137C113.59 51.8669 113.641 51.9201 113.686 51.9771L113.671 51.9695C113.933 52.2963 114.076 52.6801 113.768 53.0373C113.475 53.3754 112.971 53.4856 112.558 53.3185C112.073 53.1209 111.638 52.7066 111.273 52.3456C111.049 52.1253 110.818 51.8745 110.583 51.5933C110.345 51.3121 110.098 51.0081 109.848 50.6851C109.597 50.3583 109.339 50.0125 109.082 49.6553C108.561 48.9372 108.03 48.1657 107.515 47.3829C106.494 45.8136 105.527 44.2176 104.815 43.0168C104.664 42.766 104.526 42.5304 104.403 42.3138L104.326 42.5304C103.556 44.7078 102.901 46.9346 102.562 48.5952L102.54 48.6999L102.522 48.7851C102.398 49.3774 102.265 50.008 102.293 50.6016L102.297 50.6791C102.311 50.9967 102.327 51.3213 102.22 51.6199C101.939 52.4065 100.803 52.4293 100.475 51.6655C100.118 50.8282 100.4 49.5637 100.613 48.609C100.644 48.4719 100.673 48.3411 100.699 48.219C101.114 46.243 101.727 44.3126 102.382 42.405C102.421 42.2905 102.46 42.1766 102.499 42.0632C103.107 40.2942 103.676 38.6411 103.625 36.7128C103.601 35.8084 103.468 34.904 103.228 34.0262C103.203 33.9339 103.172 33.838 103.14 33.7403C102.957 33.174 102.755 32.5492 103.51 32.2478C103.983 32.0578 104.522 32.2782 104.715 32.7456C104.715 32.7456 104.746 32.8178 104.803 32.9584C104.861 33.099 104.942 33.308 105.031 33.5778C105.119 33.8476 105.212 34.1782 105.296 34.562C105.604 36.2036 105.592 37.8679 105.246 39.5019L105.273 39.4926C105.318 39.4767 105.363 39.4608 105.412 39.4449C105.442 39.433 105.472 39.4212 105.502 39.4091C105.638 39.3557 105.782 39.2989 105.923 39.2245C106.906 38.7761 107.707 37.9933 108.268 37.089C108.523 36.6786 108.754 36.2188 108.912 35.7628C108.965 35.6077 108.995 35.4401 109.024 35.2716C109.079 34.9572 109.135 34.6398 109.35 34.3948C109.67 34.03 110.305 34.0148 110.672 34.334C111.294 34.8769 110.895 35.8538 110.623 36.5191L110.623 36.5192C110.603 36.5664 110.585 36.612 110.567 36.6558C110.056 37.9325 109.219 39.0763 108.114 39.9199C107.918 40.0719 105.781 41.4323 105.619 41.1777C105.694 41.295 105.774 41.4212 105.858 41.5557L105.859 41.5568C105.98 41.7488 106.112 41.9576 106.254 42.1809C106.994 43.3475 107.996 44.8978 109.042 46.4064C109.559 47.1663 110.086 47.9149 110.594 48.5989C110.849 48.9447 111.096 49.2715 111.338 49.5718C111.577 49.8719 111.807 50.1531 112.026 50.4002C112.065 50.4446 112.105 50.4897 112.144 50.535C112.33 50.749 112.521 50.9688 112.728 51.1601C112.841 51.2639 112.967 51.3555 113.093 51.4475L113.093 51.4475C113.248 51.561 113.404 51.6752 113.54 51.8137ZM100.768 42.8042C100.718 42.4661 100.398 42.2305 100.052 42.2799C99.8244 42.3141 99.5972 42.3559 99.37 42.4091C99.1429 42.4585 98.9196 42.5231 98.6923 42.5915C98.469 42.6637 98.238 42.7434 98.0107 42.8347C96.328 43.5339 95.042 45.0425 94.6916 46.8208C94.6608 46.4826 94.6223 46.1368 94.449 45.8442C94.2757 45.5555 93.9176 45.3389 93.5903 45.4376C93.3324 45.5136 93.159 45.7606 93.0974 46.0152C93.0359 46.2698 93.0666 46.5396 93.0974 46.8019C93.2592 48.1052 93.4863 49.4047 93.7713 50.6892C93.829 50.9475 93.8906 51.2135 94.0254 51.4415C94.1601 51.6734 94.3797 51.8671 94.6454 51.9127C95.0073 51.9735 95.3693 51.7265 95.5425 51.4035C95.7349 51.047 95.7464 50.6035 95.7573 50.1833V50.1829C95.7608 50.0478 95.7642 49.9152 95.7736 49.7886C95.8776 48.4699 96.2472 47.1287 97.0096 46.0266C97.5102 45.3085 98.2148 44.7765 98.9503 44.3091C99.0638 44.237 99.2256 44.1561 99.4065 44.0656C100.018 43.7598 100.847 43.345 100.764 42.7967L100.768 42.8042ZM73.9698 54.079C74.0468 54.1626 74.0968 54.1968 74.0968 54.1968V54.2006C74.8208 54.7212 74.3202 55.8042 73.4616 55.7016C72.78 55.6218 72.2986 54.7401 72.0792 54.1778C71.9021 53.718 71.7981 53.1823 71.7326 52.616C71.7083 52.4258 71.6963 52.2193 71.684 52.0079C71.6572 51.548 71.629 51.0648 71.4708 50.6743C71.3745 50.4387 71.1665 50.2296 70.9124 50.2031C70.4273 50.1537 70.0653 50.6818 69.8574 51.0352C69.507 51.628 69.2336 52.3956 69.0102 53.186C68.7907 53.984 68.6098 54.82 68.448 55.6788L68.4344 55.7521C68.3161 56.3922 68.1413 57.3376 67.2852 57.2937C66.981 57.2748 66.6922 57.0961 66.519 56.8453C66.1268 56.2684 66.2785 55.3942 66.3977 54.7078L66.3977 54.7077C66.4119 54.6256 66.4257 54.5463 66.438 54.4704C66.5652 53.6805 66.7077 52.9298 66.8463 52.1996L66.8463 52.1994L66.8464 52.1991L66.8464 52.1989L66.8465 52.1986L66.8465 52.1983L66.8465 52.1981L66.8466 52.1978L66.8466 52.1976L66.8467 52.1973L66.8467 52.1971L66.8468 52.1968L66.8468 52.1966L66.8469 52.1963L66.8469 52.1961L66.8963 51.9359C67.2044 50.3133 67.4623 48.8123 67.601 47.5317C67.6702 46.8934 67.7088 46.3119 67.7164 45.8066C67.7242 45.3012 67.6934 44.8755 67.6433 44.5564C67.6111 44.343 67.5336 44.1676 67.4542 43.988L67.4541 43.9879C67.4007 43.8669 67.3463 43.744 67.3045 43.6064C67.1928 43.2416 67.2506 42.8654 67.5855 42.6412C67.9437 42.4018 68.4326 42.4892 68.6869 42.8349C68.6869 42.8349 68.7061 42.8578 68.7369 42.8996C68.7523 42.9186 68.8716 43.0972 68.9217 43.2074C69.0603 43.4658 69.1912 43.8344 69.2721 44.2752C69.4454 45.1606 69.4454 46.331 69.3375 47.6913C69.3029 48.1169 69.2567 48.5653 69.2028 49.0251L69.2028 49.0251C69.2452 48.9909 69.2875 48.9567 69.3337 48.9225C69.5686 48.7515 69.8535 48.6033 70.1693 48.5197C70.9471 48.3145 71.825 48.4741 72.4411 48.9947C73.0803 49.5305 73.3306 50.6743 73.4153 51.4647C73.4365 51.6716 73.4473 51.8782 73.4581 52.0842L73.4582 52.0845C73.4847 52.5894 73.511 53.0901 73.6887 53.5812C73.7849 53.851 73.8928 53.9915 73.9698 54.079ZM54.3327 60.846C53.4701 60.846 52.9195 60.4812 52.5884 60.1316C51.129 58.5889 52.0146 55.108 52.2111 54.4279C52.3535 53.9263 52.8811 53.6337 53.3893 53.7743C53.8976 53.9149 54.1941 54.4355 54.0516 54.9371C53.4895 56.9397 53.6511 58.49 53.9862 58.8434C54.0285 58.889 54.1555 59.022 54.66 58.9195C55.5264 58.7408 55.9307 57.5856 56.489 55.7008L56.5214 55.593C56.7268 54.9083 56.9388 54.2016 57.2168 53.5121C57.3862 53.0903 57.7058 52.3038 58.5491 52.5052C59.3885 52.7027 59.3192 53.4969 59.2653 54.0745C59.1844 54.9674 58.9996 57.0613 59.7389 57.9657C60.07 58.3723 60.0046 58.9651 59.5926 59.2919C59.1805 59.6187 58.5799 59.554 58.2488 59.1474C58.0061 58.851 57.8213 58.5166 57.6826 58.1594C57.1667 59.4325 56.4312 60.4812 55.045 60.7662C54.7871 60.8194 54.5445 60.8422 54.3289 60.8422L54.3327 60.846ZM48.2456 57.4484C48.1802 57.4484 48.1032 57.4561 48.0184 57.4713C47.2291 57.6156 46.328 58.3453 45.8275 59.2534C45.5694 59.7208 45.1921 60.6442 45.5848 61.5827C45.6773 61.807 45.8159 61.9589 46.1818 61.9589C46.7054 61.9589 47.4139 61.6398 47.9799 61.1458C48.5614 60.6366 48.9079 60.0324 48.9079 59.5232C48.9079 58.5048 48.7654 57.9918 48.65 57.7448C48.5229 57.475 48.4112 57.4561 48.2456 57.4561V57.4484ZM46.1818 63.8514C45.0843 63.8514 44.2218 63.289 43.8136 62.3047C43.3015 61.0736 43.4209 59.6714 44.1486 58.3566C44.9302 56.9431 46.3165 55.8715 47.6757 55.6244C47.8721 55.5865 48.0646 55.5713 48.2495 55.5713C50.3789 55.5713 50.8255 57.7221 50.8255 59.527C50.8255 60.5834 50.2517 61.6892 49.2506 62.5631C48.3265 63.3688 47.1791 63.8514 46.1856 63.8514H46.1818ZM86.3156 45.0926C85.8844 44.9976 85.4301 45.2598 85.0758 45.4688C83.5201 46.396 82.8887 48.2048 82.3495 49.8159C82.08 50.6253 81.8028 51.3891 81.4293 52.1567C81.0712 51.8405 80.868 51.3968 80.6718 50.9683L80.6592 50.9407C80.4589 50.4999 80.2395 50.0477 79.8621 49.7437C79.323 49.3143 78.6992 49.4093 78.2526 49.8843C78.2137 49.9254 78.1809 49.9645 78.1497 50.0017L78.1318 50.023L78.114 50.044C77.9522 50.2454 77.8367 50.4239 77.7212 50.6063C77.6095 50.7849 77.5017 50.9597 77.4016 51.1346C77.3248 51.2672 77.2479 51.4025 77.1733 51.534L77.1728 51.5347L77.1282 51.6133C77.2129 51.1041 77.2938 50.6063 77.3554 50.1542L77.3575 50.1385C77.4493 49.4358 77.5504 48.6631 77.3592 47.9578C77.1629 47.2282 76.4543 46.3922 75.6534 47.0115C75.2375 47.3346 75.1644 47.9274 75.4917 48.3416L75.538 48.3985C75.538 48.391 75.5302 48.3833 75.5264 48.3758C75.5251 48.3708 75.5247 48.3691 75.5248 48.369L75.5254 48.3701C75.5264 48.372 75.5283 48.3758 75.5302 48.3758C75.5302 48.3773 75.5315 48.3782 75.5332 48.3795C75.5358 48.3814 75.5395 48.3842 75.5418 48.391C75.5764 48.4404 75.6342 48.6076 75.6688 48.8849C75.807 50.0546 75.6202 51.3072 75.4475 52.4661L75.4455 52.4797C75.4376 52.5346 75.4295 52.5899 75.4214 52.6456L75.4213 52.6461L75.4213 52.6463L75.4213 52.6466C75.3815 52.9183 75.3402 53.2014 75.3146 53.5133C75.2799 53.9199 75.2569 54.3683 75.4686 54.7407C75.5956 54.9611 75.8075 55.1434 76.0616 55.1966C76.4929 55.2879 76.9241 54.999 77.1899 54.6495C77.5952 54.1225 77.9403 53.5423 78.2842 52.9642L78.2843 52.9641C78.476 52.6417 78.6674 52.32 78.8686 52.0085C78.8947 51.9681 78.9208 51.9285 78.9468 51.889C78.9747 51.8468 79.0025 51.8047 79.0303 51.7615C79.1267 51.9553 79.2306 52.1605 79.3422 52.3656C79.4462 52.5557 79.5618 52.7457 79.6965 52.9395C79.8351 53.1333 79.9854 53.3347 80.2048 53.5399C80.663 53.9655 81.2792 54.1706 81.899 54.0034C82.415 53.8628 82.7616 53.4943 83.0427 53.0648C83.1774 52.8521 83.2776 52.6507 83.3661 52.4531C83.5358 52.07 83.6537 51.7088 83.7669 51.3622L83.7742 51.3397C83.886 50.9863 83.9861 50.6481 84.0747 50.3213C84.1185 50.164 84.1607 50.0096 84.202 49.8585C84.3313 49.3857 84.4516 48.946 84.5829 48.5543C84.8601 47.7526 85.3107 47.0952 85.8767 46.4681C85.9879 46.3492 86.1138 46.2484 86.2387 46.1484L86.2387 46.1483C86.369 46.044 86.4982 45.9406 86.6083 45.8184C86.8971 45.4992 86.7161 45.1838 86.331 45.0926H86.3156ZM89.4412 50.1871C89.4798 50.0921 89.499 50.0047 89.5221 49.887V49.8831C89.5287 49.8469 89.535 49.8106 89.5413 49.7744L89.5576 49.6789C89.5712 49.5993 89.5846 49.5203 89.5992 49.4423C89.6219 49.3157 89.6488 49.1891 89.6758 49.0622L89.6758 49.0621L89.6758 49.062L89.6758 49.062L89.6759 49.0619L89.6759 49.0618C89.7493 48.7165 89.8232 48.3691 89.8147 48.0135C89.8109 47.8426 89.7878 47.6602 89.6761 47.5234C89.4836 47.2878 89.1679 47.4056 88.956 47.5462C88.7057 47.7058 88.4208 48.0097 88.1744 48.4011C87.9241 48.7887 87.7008 49.2561 87.5083 49.7653C87.4766 49.8471 87.448 49.9305 87.4195 50.0134L87.4194 50.0137L87.4192 50.0144C87.4028 50.0621 87.3865 50.1096 87.3697 50.1567L87.3389 50.2403L87.308 50.3467C87.299 50.3826 87.2922 50.4138 87.2841 50.4513L87.2772 50.4835C87.2387 50.6773 87.2503 50.8407 87.2887 50.9319C87.3273 51.0231 87.3773 51.0839 87.5044 51.1447C87.6314 51.2017 87.8202 51.2359 88.0243 51.2207C88.4324 51.1941 88.8636 50.9889 89.1332 50.6925C89.2679 50.5443 89.3719 50.3733 89.4412 50.1871ZM92.4215 51.1561L92.4293 51.1637L92.4255 51.1675C92.849 51.8059 92.0904 52.6 91.4204 52.2125C91.0623 52.0035 90.8968 51.5627 90.7735 51.1941C90.658 51.4069 90.5155 51.6083 90.35 51.7869C89.1948 53.037 86.5071 53.4323 85.7447 51.5285C85.4367 50.7495 85.6677 49.9439 85.9488 49.1915C86.1683 48.6025 86.434 48.0401 86.7651 47.5196C86.9307 47.2611 87.1155 47.0103 87.3273 46.7824C87.5352 46.5544 87.774 46.3415 88.0473 46.1668C88.3208 45.992 88.6327 45.8552 88.9676 45.7906C89.3027 45.7222 89.6568 45.7412 89.9726 45.8362C90.2884 45.9312 90.5541 46.0946 90.7581 46.2807C90.916 46.4252 91.0354 46.5771 91.1278 46.7292C91.1432 46.7329 91.1585 46.7368 91.1739 46.7368C91.3011 46.7748 91.3627 46.8128 91.4436 46.866C91.8075 47.123 91.8805 47.6606 91.9383 48.0858L91.9385 48.0878L91.939 48.0916L91.9518 48.1845C91.9893 48.456 92.0122 48.7286 92.035 49.0011L92.035 49.0013L92.0351 49.0014L92.0351 49.0016L92.0351 49.0017L92.0351 49.0019L92.0352 49.002L92.0352 49.0022L92.0352 49.0023L92.0352 49.0025L92.0352 49.0026L92.0353 49.0028L92.0353 49.003C92.0546 49.2334 92.0738 49.4636 92.102 49.6931C92.1482 50.0503 92.1906 50.3544 92.2444 50.5823C92.2945 50.8141 92.3407 50.9699 92.3754 51.0535C92.4101 51.1371 92.4215 51.1561 92.4215 51.1561ZM66.5111 46.9835C66.1838 46.5731 65.583 46.5047 65.1672 46.8277C64.9477 46.9987 64.7321 47.1469 64.5164 47.2723C64.5626 46.9949 64.6012 46.7251 64.6281 46.4705C64.6474 46.2843 64.6628 46.1095 64.6705 45.9385L64.6743 45.8194C64.6895 45.3544 64.7064 44.8355 64.632 44.3844C64.5973 44.1791 64.528 43.9739 64.4164 43.7991C64.3432 43.6852 64.2508 43.5825 64.1429 43.499C63.8618 43.29 63.4499 43.2444 63.165 43.4457C62.9955 43.5673 62.8838 43.765 62.8531 43.9701C62.8275 44.1463 62.8662 44.3115 62.9053 44.4781L62.9053 44.4781C62.9311 44.5882 62.957 44.6988 62.9647 44.8137C62.9762 44.9733 62.9839 45.1823 62.9685 45.4255C62.957 45.6687 62.9339 45.9537 62.8839 46.2615C62.8068 46.7859 62.6682 47.3939 62.4756 48.0361C62.3362 48.068 62.1935 48.0984 62.0486 48.1292L62.0485 48.1293C61.9694 48.1461 61.8897 48.163 61.8095 48.1805C61.2782 48.2907 60.7236 48.4085 60.1268 48.5871C59.6223 48.7391 59.3374 49.2673 59.4915 49.765C59.6185 50.1717 59.9958 50.4338 60.4079 50.4338C60.5003 50.4338 60.5928 50.4186 60.6852 50.3921C61.0471 50.2819 61.4052 50.1982 61.7594 50.1222L61.7592 50.1228C61.6669 50.3848 61.5746 50.6468 61.4861 50.9126C61.1934 51.8018 60.9123 52.7137 60.739 53.622C60.6504 54.078 60.5888 54.5302 60.5696 54.9709C60.5426 55.4117 60.558 55.8374 60.6004 56.2325C60.639 56.6277 60.716 56.9887 60.8007 57.3041C60.9739 57.9121 61.1896 58.6645 61.9636 58.7101C62.491 58.7405 62.9647 58.3225 63.0532 57.8209C63.121 57.4339 63.0214 57.0575 62.9218 56.6811C62.863 56.4588 62.8042 56.2365 62.7799 56.0121C62.7491 55.7272 62.7413 55.4117 62.7529 55.0697C62.7645 54.7278 62.8029 54.3592 62.8569 53.9716C62.9685 53.1963 63.1649 52.3414 63.4037 51.4864C63.5099 51.1043 63.6252 50.7222 63.7389 50.3455L63.7389 50.3454L63.739 50.345L63.7391 50.3448L63.7392 50.3446L63.7392 50.3444L63.7393 50.344L63.7394 50.3437L63.7396 50.3432L63.7396 50.3429L63.781 50.2059L63.834 50.0334L63.834 50.0333L63.8342 50.0327L63.8345 50.0318L63.8349 50.0305C63.8799 49.8843 63.9258 49.7353 63.9697 49.5864C64.7359 49.3357 65.5253 48.9595 66.3608 48.3096C66.7767 47.9867 66.846 47.3939 66.5187 46.9835H66.5111ZM41.2475 46.2883C41.3598 46.3667 41.4722 46.4451 41.5921 46.5125V46.505C41.6922 46.5619 41.8 46.6113 41.9156 46.6494C42.8243 46.9306 43.8022 46.5619 43.5097 45.479C43.2555 44.5365 41.7576 44.0882 40.9105 43.9552C39.8401 43.7842 38.7388 43.9438 37.6991 44.2174C33.6522 45.2851 29.6592 46.9533 25.8587 48.6785C25.5023 48.8401 25.138 48.9995 24.7704 49.1604C23.1755 49.8586 21.5177 50.5842 20.1752 51.6311C19.0586 52.5013 18.1499 53.721 17.9727 55.1156C17.4395 59.2792 22.4038 59.6174 25.7264 59.8438C26.2186 59.8773 26.6747 59.9084 27.0716 59.9491L27.6112 60.0048H27.6112H27.6112C29.5974 60.2093 31.5929 60.4148 33.5559 60.7737C33.8206 60.8218 34.0961 60.8655 34.3772 60.9102L34.3777 60.9102L34.3778 60.9103L34.378 60.9103C35.7856 61.1338 37.3345 61.3797 38.3807 62.3013C41.13 64.7256 38.115 68.1532 36.1358 69.7947C35.4427 70.3685 34.7265 70.9157 33.9911 71.4363C28.3692 75.4187 21.5422 78.5194 14.7652 79.9178C11.8811 80.5106 8.85071 80.7955 6.17457 79.3364C4.38406 78.3598 3.56388 76.4712 3.63704 74.5104C3.71435 72.4602 4.73199 70.7237 5.74561 68.9941C5.94373 68.656 6.14169 68.3182 6.33244 67.9784L6.35258 67.9426C6.44059 67.7861 6.5191 67.6466 6.59428 67.53L6.60485 67.5123C6.67729 67.3907 6.73923 67.2867 6.79066 67.207C6.89847 67.036 6.95237 66.941 6.95237 66.941L6.96008 66.9296C7.01783 66.827 7.01399 66.6902 6.93312 66.5876C6.82531 66.4508 6.62893 66.4242 6.49031 66.5306C6.49031 66.5306 6.40175 66.599 6.23618 66.7396C3.15187 69.3388 0.668256 73.4654 1.95049 77.5428C2.15072 78.166 2.46262 78.8005 2.90158 79.3592C3.3367 79.9215 3.88348 80.4079 4.48031 80.7955C5.7741 81.6429 7.34514 82.0761 8.87381 82.3269C12.3008 82.8855 15.6469 82.0609 18.9084 81.0805C22.3316 80.0507 25.6238 78.6295 28.8043 77.0222C31.6653 75.5783 34.3492 73.9367 36.8944 71.9949C38.6117 70.6877 40.3059 69.1601 41.1223 67.1272C42.3814 63.9999 40.9259 60.5989 37.7685 59.5615C35.195 58.7161 32.3838 58.436 29.6515 58.1638C29.0314 58.102 28.4153 58.0406 27.807 57.9732C26.5171 57.8287 25.231 57.6996 23.9411 57.5779C23.8163 57.5663 23.6844 57.5556 23.5475 57.5445L23.547 57.5445L23.5466 57.5445L23.5463 57.5444L23.5462 57.5444C22.0653 57.4243 19.998 57.2566 19.9557 55.431C19.9327 54.4772 20.6951 53.7324 21.4189 53.2042C22.7943 52.2045 24.4632 51.4629 26.0546 50.7557L26.0547 50.7557L26.0549 50.7556L26.0558 50.7552L26.0576 50.7544L26.0583 50.7541L26.0591 50.7538C26.3776 50.6122 26.693 50.4721 27.0023 50.3315C30.6064 48.6937 34.3838 47.1737 38.219 46.1478L38.3492 46.1122C39.0722 45.9139 39.8842 45.6913 40.614 45.935C40.8522 46.0125 41.0498 46.1504 41.2475 46.2883ZM44.661 73.0134C44.8726 72.9178 45.1494 72.8 45.4306 72.6803L45.431 72.6801L45.4311 72.68C45.7535 72.5428 46.0818 72.403 46.3243 72.2915C47.237 71.8735 48.1573 71.4783 49.0852 71.1059C62.9127 65.5314 78.1223 61.8758 92.9624 60.2457C97.3213 59.7669 101.43 59.5959 104.968 59.7631C108.504 59.9264 111.465 60.3938 113.528 61.188C114.557 61.5908 115.392 62.0772 115.9 62.7537C116.155 63.0842 116.286 63.468 116.324 63.7302C116.343 63.8632 116.347 63.9658 116.343 64.038C116.343 64.1064 116.339 64.1406 116.339 64.1406C116.32 64.6726 115.82 65.1134 115.276 65.0488C115.018 65.0184 114.78 64.874 114.633 64.665C114.534 64.519 114.482 64.3512 114.43 64.1839C114.403 64.0987 114.377 64.0136 114.344 63.9316C114.147 63.4365 113.466 63.1718 112.962 62.9759L112.962 62.9755C112.917 62.9581 112.873 62.9412 112.831 62.9247C111.977 62.5864 110.833 62.2863 109.485 62.0545C108.137 61.8226 106.581 61.6593 104.876 61.5681C101.461 61.3894 97.433 61.511 93.1396 61.9291C78.2995 63.3769 63.3477 67.1426 49.3394 72.1357C48.3844 72.4777 45.8739 73.4162 44.9382 73.8076C44.888 73.8283 44.8309 73.8532 44.7691 73.8801C44.3427 74.0659 43.6932 74.349 43.552 74.0205C43.3747 73.6028 44.2168 73.2221 44.5941 73.0514L44.661 73.0211V73.0134ZM68.6878 76.2675C68.6878 79.2239 70.2088 80.9148 72.7886 80.9148L72.7925 80.911C75.0528 80.911 76.5391 79.6267 76.6739 77.6392H74.9103C74.7024 78.6919 73.9862 79.2695 72.8887 79.2695C71.3908 79.2695 70.5283 78.2435 70.5283 76.2675C70.5283 74.2916 71.3678 73.2389 72.9503 73.2389C74.0709 73.2389 74.7409 73.7785 74.8871 74.7703H76.6623C76.543 72.7829 75.203 71.6202 72.9503 71.6202C70.1972 71.6202 68.6878 73.3112 68.6878 76.2675ZM80.9087 79.4321C81.8713 79.4321 82.4181 78.71 82.4181 77.4104C82.4181 76.1109 81.8713 75.4003 80.9087 75.4003C79.9461 75.4003 79.3877 76.1109 79.3877 77.4104C79.3877 78.71 79.9499 79.4321 80.9087 79.4321ZM80.9087 73.9297C82.9418 73.9297 84.1817 75.2407 84.1817 77.4104C84.1817 79.5802 82.9418 80.8912 80.9087 80.8912C78.8756 80.8912 77.6358 79.5802 77.6358 77.4104C77.6358 75.2407 78.8794 73.9297 80.9087 73.9297ZM89.4336 80.6718H91.124H91.1279V74.1625H89.399V78.0118C89.399 78.8706 88.8753 79.3836 88.0706 79.3836C87.3274 79.3836 87.0733 78.977 87.0733 78.0954V74.1625H85.3443V78.6008C85.3443 80.0942 86.049 80.8428 87.4737 80.8428C88.29 80.8428 88.9446 80.5273 89.4336 79.9003V80.6718ZM92.6334 74.1611H94.3239V74.9325C94.8129 74.3056 95.4675 73.9902 96.2838 73.9902C97.7085 73.9902 98.4132 74.7387 98.4132 76.2321V80.6705H96.6843V76.7375C96.6843 75.8559 96.4302 75.4379 95.687 75.4379C94.8822 75.4379 94.3585 75.9509 94.3585 76.8097V80.6705H92.6296V74.1611H92.6334ZM102.584 80.8912C104.239 80.8912 105.371 79.8766 105.517 78.2198H103.811C103.693 78.9951 103.303 79.3864 102.657 79.3864C101.841 79.3864 101.378 78.6987 101.378 77.4371C101.378 76.088 101.795 75.4003 102.657 75.4003C103.288 75.4003 103.693 75.7803 103.788 76.4681H105.506C105.383 74.8873 104.324 73.9297 102.645 73.9297C100.747 73.9297 99.5763 75.2178 99.5763 77.4104C99.5763 79.6031 100.72 80.8912 102.584 80.8912ZM106.647 74.1595H108.376V80.6687H106.647V74.1595ZM106.647 71.8529H108.376V73.4337H106.647V71.8529ZM109.984 71.8529H111.713V80.6687H109.984V71.8529Z" fill="black"/>
<path d="M5.12197 4.25345L4.98 5.50937C4.49947 5.30187 3.96434 5.18174 3.42921 5.18174C2.905 5.18174 2.22789 5.41109 2.22789 6.24109C2.22789 7.56253 5.56974 7.00556 5.56974 9.56109C5.56974 11.232 4.24829 11.8654 2.70842 11.8654C1.87842 11.8654 1.50711 11.7562 0.753553 11.5706L0.895526 10.1945C1.41974 10.4785 2.02039 10.6641 2.62105 10.6641C3.19987 10.6641 3.97526 10.3692 3.97526 9.68122C3.97526 8.22872 0.633421 8.82938 0.633421 6.30661C0.633421 4.60293 1.95487 3.98043 3.29816 3.98043C3.95342 3.98043 4.565 4.0678 5.12197 4.25345ZM11.9876 6.11003V11.7344H10.6007V10.9699H10.5788C10.1311 11.516 9.49765 11.8654 8.73317 11.8654C7.4008 11.8654 6.82199 10.9262 6.82199 9.65937V6.11003H8.28541V9.11332C8.28541 9.80135 8.29633 10.7296 9.23554 10.7296C10.2949 10.7296 10.5242 9.58293 10.5242 8.86214V6.11003H11.9876ZM13.4983 14.0278V6.11003H14.8962V6.90727H14.9181C15.2457 6.36122 15.8027 5.97898 16.6654 5.97898C18.391 5.97898 19.0244 7.35503 19.0244 8.90582C19.0244 10.4457 18.391 11.8654 16.6327 11.8654C16.0102 11.8654 15.4969 11.7125 14.9836 11.09H14.9618V14.0278H13.4983ZM16.2832 7.11477C15.344 7.11477 14.9727 8.11951 14.9727 8.90582C14.9727 9.70306 15.2894 10.7296 16.2614 10.7296C17.2224 10.7296 17.4954 9.68122 17.4954 8.90582C17.4954 8.15227 17.2333 7.11477 16.2832 7.11477ZM20.1747 14.0278V6.11003H21.5726V6.90727H21.5944C21.9221 6.36122 22.479 5.97898 23.3418 5.97898C25.0673 5.97898 25.7007 7.35503 25.7007 8.90582C25.7007 10.4457 25.0673 11.8654 23.309 11.8654C22.6865 11.8654 22.1732 11.7125 21.6599 11.09H21.6381V14.0278H20.1747ZM22.9596 7.11477C22.0203 7.11477 21.649 8.11951 21.649 8.90582C21.649 9.70306 21.9657 10.7296 22.9377 10.7296C23.8988 10.7296 24.1718 9.68122 24.1718 8.90582C24.1718 8.15227 23.9097 7.11477 22.9596 7.11477ZM26.4906 8.96043C26.4906 7.10385 27.7684 5.97898 29.4284 5.97898C31.0993 5.97898 32.3771 7.10385 32.3771 8.96043C32.3771 10.5767 31.2959 11.8654 29.4284 11.8654C27.5718 11.8654 26.4906 10.5767 26.4906 8.96043ZM28.0196 8.78569C28.0196 9.71398 28.3144 10.7296 29.4284 10.7296C30.5533 10.7296 30.8481 9.7249 30.8481 8.78569C30.8481 7.92293 30.3894 7.11477 29.4284 7.11477C28.4783 7.11477 28.0196 7.94477 28.0196 8.78569ZM33.5601 11.7344V6.11003H34.8597V7.3878H34.8816C34.9471 6.86359 35.5478 5.97898 36.4215 5.97898C36.5634 5.97898 36.7163 5.97898 36.8692 6.02266V7.49701C36.7382 7.42056 36.4761 7.37688 36.214 7.37688C35.0236 7.37688 35.0236 8.86214 35.0236 9.6703V11.7344H33.5601ZM38.2526 10.0416V7.1803H37.1714V6.11003H38.2526V4.98516L39.716 4.51556V6.11003H41.0156V7.1803H39.716V9.80135C39.716 10.2819 39.8471 10.7296 40.4041 10.7296C40.6662 10.7296 40.9173 10.675 41.0702 10.5767L41.1139 11.7344C40.8081 11.8217 40.4696 11.8654 40.0327 11.8654C38.886 11.8654 38.2526 11.1556 38.2526 10.0416ZM43.0543 8.37069H45.5443C45.5006 7.66082 45.173 7.04924 44.3539 7.04924C43.5348 7.04924 43.1198 7.61714 43.0543 8.37069ZM46.5272 10.2273V11.4177C45.992 11.7125 45.3805 11.8654 44.5942 11.8654C42.7376 11.8654 41.6564 10.7952 41.6564 8.94951C41.6564 7.32227 42.5192 5.97898 44.2665 5.97898C46.3524 5.97898 46.9422 7.40964 46.9422 9.37543H43.0543C43.1198 10.2819 43.7532 10.7952 44.6597 10.7952C45.3695 10.7952 45.9811 10.5331 46.5272 10.2273ZM49.2538 8.90582C49.2538 9.68122 49.5268 10.7296 50.4879 10.7296C51.4598 10.7296 51.7765 9.70306 51.7765 8.90582C51.7765 8.11951 51.4052 7.11477 50.466 7.11477C49.5159 7.11477 49.2538 8.15227 49.2538 8.90582ZM51.8311 11.7344V11.101H51.8093C51.3725 11.647 50.7718 11.8654 50.0838 11.8654C48.3582 11.8654 47.7248 10.4457 47.7248 8.90582C47.7248 7.35503 48.3582 5.97898 50.0838 5.97898C50.8155 5.97898 51.3288 6.23016 51.7656 6.7653H51.7875V3.54359H53.2509V11.7344H51.8311ZM59.2755 8.90582C59.2755 9.70306 59.5922 10.7296 60.5641 10.7296C61.5252 10.7296 61.7982 9.68122 61.7982 8.90582C61.7982 8.15227 61.5361 7.11477 60.586 7.11477C59.6468 7.11477 59.2755 8.11951 59.2755 8.90582ZM57.8011 11.7344V3.54359H59.2645V6.83082H59.2864C59.6905 6.29569 60.2037 5.97898 60.9682 5.97898C62.6937 5.97898 63.3272 7.35503 63.3272 8.90582C63.3272 10.4457 62.6937 11.8654 60.9682 11.8654C60.3457 11.8654 59.6686 11.647 59.2427 11.0463H59.2209V11.7344H57.8011ZM65.4604 6.11003L66.8146 10.2163H66.8364L68.1906 6.11003H69.6759L67.5681 11.6907C67.0985 12.9357 66.76 14.1588 65.231 14.1588C64.8815 14.1588 64.5321 14.1042 64.1935 14.006L64.2918 12.9248C64.4775 12.9903 64.685 13.0231 65.0454 13.0231C65.6351 13.0231 65.9955 12.619 65.9955 12.0183L63.844 6.11003H65.4604Z" fill="black"/>
<line x1="0.546875" y1="22.1184" x2="117.402" y2="22.1184" stroke="black" stroke-width="1.63816"/>
</g>
<defs>
<clipPath id="clip0_1566_1500">
<rect width="116.855" height="83" fill="white"/>
</clipPath>
</defs>
</svg>
