<svg viewBox="0 0 189 67" fill="none" xmlns="http://www.w3.org/2000/svg">
  <path d="M7.98864 34.381C6.70099 34.381 5.5535 34.1577 4.54616 33.7109C3.53883 33.2554 2.74171 32.5853 2.15483 31.7006C1.5767 30.8072 1.28764 29.6947 1.28764 28.3633C1.28764 27.2421 1.49349 26.3004 1.90518 25.5384C2.31688 24.7763 2.87749 24.1631 3.587 23.6989C4.29652 23.2346 5.10239 22.8842 6.00462 22.6477C6.9156 22.4112 7.87038 22.2448 8.86896 22.1484C10.0427 22.0258 10.9888 21.9119 11.707 21.8068C12.4253 21.6929 12.9465 21.5265 13.2706 21.3075C13.5947 21.0885 13.7567 20.7644 13.7567 20.3352V20.2564C13.7567 19.4242 13.494 18.7804 12.9684 18.3249C12.4516 17.8694 11.7158 17.6417 10.761 17.6417C9.75367 17.6417 8.95218 17.8651 8.35653 18.3118C7.76089 18.7498 7.36671 19.3016 7.17401 19.9673L1.99716 19.5469C2.25994 18.3205 2.77675 17.2607 3.54759 16.3672C4.31842 15.465 5.31262 14.773 6.53018 14.2912C7.75651 13.8007 9.17554 13.5554 10.7873 13.5554C11.9085 13.5554 12.9815 13.6868 14.0064 13.9496C15.04 14.2124 15.9554 14.6197 16.7525 15.1715C17.5584 15.7234 18.1934 16.4329 18.6577 17.3001C19.1219 18.1585 19.354 19.1877 19.354 20.3878V34H14.0458V31.2013H13.8881C13.564 31.832 13.1304 32.3883 12.5874 32.87C12.0443 33.343 11.3917 33.7153 10.6296 33.9869C9.86754 34.2496 8.98722 34.381 7.98864 34.381ZM9.59162 30.5181C10.415 30.5181 11.142 30.3561 11.7727 30.032C12.4034 29.6991 12.8983 29.2524 13.2575 28.6918C13.6166 28.1312 13.7962 27.4961 13.7962 26.7866V24.6449C13.621 24.7588 13.3801 24.8639 13.0735 24.9602C12.7757 25.0478 12.4384 25.131 12.0618 25.2099C11.6851 25.2799 11.3085 25.3456 10.9318 25.407C10.5552 25.4595 10.2135 25.5077 9.90696 25.5515C9.25 25.6478 8.67626 25.8011 8.18572 26.0114C7.69519 26.2216 7.31416 26.5063 7.04261 26.8654C6.77107 27.2158 6.6353 27.6538 6.6353 28.1793C6.6353 28.9414 6.91122 29.5239 7.46307 29.9268C8.02367 30.321 8.73319 30.5181 9.59162 30.5181ZM23.2896 34V13.8182H28.8869V34H23.2896ZM26.1013 11.2166C25.2692 11.2166 24.5553 10.9407 23.9597 10.3888C23.3728 9.82824 23.0793 9.15814 23.0793 8.37855C23.0793 7.60772 23.3728 6.94638 23.9597 6.39453C24.5553 5.83392 25.2692 5.55362 26.1013 5.55362C26.9335 5.55362 27.643 5.83392 28.2299 6.39453C28.8255 6.94638 29.1234 7.60772 29.1234 8.37855C29.1234 9.15814 28.8255 9.82824 28.2299 10.3888C27.643 10.9407 26.9335 11.2166 26.1013 11.2166ZM32.9636 34V13.8182H38.3901V17.3395H38.6003C38.9682 16.0869 39.5858 15.1409 40.453 14.5014C41.3201 13.8532 42.3187 13.5291 43.4487 13.5291C43.729 13.5291 44.0312 13.5466 44.3553 13.5817C44.6794 13.6167 44.9641 13.6649 45.2094 13.7262V18.6928C44.9466 18.614 44.583 18.5439 44.1188 18.4826C43.6545 18.4213 43.2297 18.3906 42.8443 18.3906C42.0209 18.3906 41.2851 18.5702 40.6369 18.9293C39.9975 19.2797 39.4894 19.7702 39.1128 20.4009C38.7449 21.0316 38.5609 21.7586 38.5609 22.582V34H32.9636ZM44.6808 11.7816V7.09091H66.781V11.7816H58.5427V34H52.9191V11.7816H44.6808ZM70.0135 34V7.09091H88.1456V11.7816H75.7028V18.1935H87.2127V22.8842H75.7028V29.3093H88.1982V34H70.0135ZM97.5963 7.09091L103.023 16.2621H103.233L108.686 7.09091H115.111L106.899 20.5455L115.295 34H108.751L103.233 24.8157H103.023L97.5043 34H90.9873L99.4095 20.5455L91.145 7.09091H97.5963ZM117.279 11.7816V7.09091H139.379V11.7816H131.141V34H125.517V11.7816H117.279ZM1.82741 62H0.715808L6.93912 44.7532H8.15179L14.3751 62H13.2635L7.58756 46.1091H7.50335L1.82741 62ZM3.40219 55.5072H11.6887V56.4841H3.40219V55.5072ZM17.1585 62V49.0649H18.1775V62H17.1585ZM17.6722 46.7743C17.4477 46.7743 17.2512 46.6958 17.0827 46.5386C16.9199 46.3814 16.8385 46.1905 16.8385 45.9659C16.8385 45.7413 16.9199 45.5505 17.0827 45.3933C17.2456 45.2361 17.442 45.1575 17.6722 45.1575C17.8968 45.1575 18.0905 45.2361 18.2533 45.3933C18.4217 45.5505 18.5059 45.7413 18.5059 45.9659C18.5059 46.1905 18.4245 46.3814 18.2617 46.5386C18.0989 46.6958 17.9024 46.7743 17.6722 46.7743ZM22.2199 62V49.0649H23.222V51.086H23.3147C23.5954 50.4236 24.0698 49.893 24.7379 49.4944C25.406 49.0902 26.1667 48.8881 27.02 48.8881C27.1099 48.8881 27.1997 48.8881 27.2895 48.8881C27.3793 48.8881 27.4636 48.8909 27.5422 48.8965V49.9323C27.4748 49.9267 27.3934 49.9183 27.2979 49.9071C27.2081 49.8902 27.0958 49.8818 26.9611 49.8818C26.2425 49.8818 25.6025 50.0362 25.041 50.345C24.4852 50.6537 24.0473 51.0804 23.7273 51.625C23.4073 52.164 23.2473 52.7815 23.2473 53.4777V62H22.2199ZM45.1662 66.8506V59.1789H45.0651C44.8686 59.7403 44.5823 60.2568 44.2061 60.7284C43.83 61.1944 43.3668 61.5677 42.8166 61.8484C42.2664 62.1291 41.6236 62.2695 40.8882 62.2695C39.8552 62.2695 38.9513 61.9832 38.1765 61.4105C37.4074 60.8323 36.8067 60.0407 36.3744 59.0357C35.9477 58.0252 35.7343 56.8686 35.7343 55.5662C35.7343 54.2637 35.9477 53.1099 36.3744 52.105C36.801 51.0945 37.4018 50.3029 38.1765 49.7302C38.9513 49.1576 39.858 48.8712 40.8966 48.8712C41.6433 48.8712 42.2889 49.0144 42.8335 49.3007C43.3781 49.5814 43.8356 49.9548 44.2061 50.4208C44.5767 50.8867 44.863 51.3976 45.0651 51.9534H45.1914V49.0649H46.1851V66.8506H45.1662ZM40.9808 61.3179C41.851 61.3179 42.5977 61.068 43.2209 60.5684C43.8496 60.0631 44.3325 59.3782 44.6693 58.5136C45.0062 57.6434 45.1746 56.6581 45.1746 55.5577C45.1746 54.4574 45.009 53.4777 44.6777 52.6187C44.3465 51.7541 43.8665 51.0748 43.2377 50.5808C42.6089 50.0811 41.8566 49.8313 40.9808 49.8313C40.0881 49.8313 39.3274 50.0839 38.6986 50.5892C38.0698 51.0888 37.587 51.771 37.2502 52.6356C36.9189 53.5001 36.7533 54.4742 36.7533 55.5577C36.7533 56.6413 36.9217 57.6181 37.2586 58.4883C37.5954 59.3585 38.0783 60.0491 38.7071 60.56C39.3358 61.0652 40.0938 61.3179 40.9808 61.3179ZM58.4867 57.4104V49.0649H59.5141V62H58.4867V59.9031H58.4025C58.0993 60.5712 57.6081 61.1158 56.9288 61.5368C56.2551 61.9579 55.4579 62.1684 54.5371 62.1684C53.6894 62.1684 52.9399 61.9832 52.2887 61.6126C51.6374 61.2421 51.1265 60.7172 50.756 60.0378C50.3854 59.3529 50.2002 58.5389 50.2002 57.5957V49.0649H51.2276V57.5536C51.2276 58.6315 51.5532 59.5045 52.2044 60.1726C52.8613 60.8351 53.709 61.1663 54.7477 61.1663C55.4214 61.1663 56.0417 61.0147 56.6088 60.7115C57.1758 60.4084 57.6305 59.9761 57.973 59.4147C58.3155 58.8476 58.4867 58.1796 58.4867 57.4104ZM66.9377 62.2779C66.191 62.2779 65.506 62.1291 64.8829 61.8316C64.2653 61.534 63.7684 61.0989 63.3923 60.5263C63.0218 59.9536 62.8365 59.2575 62.8365 58.4378C62.8365 57.8988 62.9319 57.4244 63.1228 57.0146C63.3137 56.6048 63.6084 56.2511 64.0071 55.9535C64.4057 55.656 64.9165 55.4118 65.5397 55.2209C66.1629 55.0244 66.9068 54.8728 67.7714 54.7661C68.4282 54.6875 69.0149 54.6117 69.5314 54.5388C70.0479 54.4602 70.4521 54.3395 70.7441 54.1766C71.0416 54.0138 71.1904 53.7668 71.1904 53.4356V52.8966C71.1904 51.9534 70.8928 51.2039 70.2977 50.6481C69.7026 50.0923 68.883 49.8144 67.8387 49.8144C66.9124 49.8144 66.132 50.0193 65.4976 50.4292C64.8688 50.8334 64.4281 51.3555 64.1755 51.9955L63.207 51.6334C63.4541 51.0159 63.8106 50.5022 64.2765 50.0923C64.7481 49.6825 65.2871 49.3765 65.8934 49.1744C66.5054 48.9723 67.1454 48.8712 67.8135 48.8712C68.3917 48.8712 68.9419 48.9527 69.464 49.1155C69.9918 49.2783 70.4605 49.5253 70.8704 49.8565C71.2858 50.1878 71.6143 50.6116 71.8557 51.1281C72.0971 51.639 72.2178 52.251 72.2178 52.964V62H71.1904V59.6673H71.1146C70.89 60.1501 70.5813 60.5908 70.1883 60.9894C69.8009 61.3824 69.3321 61.6968 68.7819 61.9326C68.2373 62.1628 67.6226 62.2779 66.9377 62.2779ZM67.0387 61.3263C67.8471 61.3263 68.563 61.1298 69.1861 60.7368C69.8149 60.3382 70.3062 59.7936 70.6599 59.1031C71.0135 58.4125 71.1904 57.6294 71.1904 56.7536V54.8503C71.0613 54.9626 70.8732 55.0637 70.6262 55.1535C70.3848 55.2377 70.1097 55.3135 69.8009 55.3809C69.4977 55.4426 69.1777 55.4988 68.8409 55.5493C68.5096 55.5942 68.1868 55.6363 67.8724 55.6756C66.9292 55.7879 66.1601 55.962 65.565 56.1977C64.9755 56.4279 64.5432 56.7311 64.2681 57.1072C63.9986 57.4834 63.8639 57.9381 63.8639 58.4715C63.8639 59.3529 64.1671 60.0491 64.7734 60.56C65.3797 61.0709 66.1348 61.3263 67.0387 61.3263ZM77.2918 44.7532V62H76.2644V44.7532H77.2918ZM81.3342 62V49.0649H82.3532V62H81.3342ZM81.8479 46.7743C81.6233 46.7743 81.4268 46.6958 81.2584 46.5386C81.0956 46.3814 81.0142 46.1905 81.0142 45.9659C81.0142 45.7413 81.0956 45.5505 81.2584 45.3933C81.4212 45.2361 81.6177 45.1575 81.8479 45.1575C82.0725 45.1575 82.2662 45.2361 82.429 45.3933C82.5974 45.5505 82.6816 45.7413 82.6816 45.9659C82.6816 46.1905 82.6002 46.3814 82.4374 46.5386C82.2746 46.6958 82.0781 46.7743 81.8479 46.7743ZM90.9683 49.0649V49.9829H85.3177V49.0649H90.9683ZM87.2293 45.9659H88.2483V58.9431C88.2483 59.4708 88.3493 59.9031 88.5514 60.24C88.7592 60.5712 89.0286 60.8182 89.3599 60.981C89.6967 61.1382 90.056 61.2168 90.4378 61.2168C90.6231 61.2168 90.7831 61.2028 90.9178 61.1747C91.0582 61.1466 91.1901 61.1102 91.3136 61.0652L91.5663 62C91.4091 62.0561 91.235 62.1039 91.0441 62.1432C90.8533 62.1881 90.6287 62.2105 90.3704 62.2105C89.8315 62.2105 89.3206 62.0898 88.8378 61.8484C88.3606 61.607 87.9732 61.2561 87.6756 60.7958C87.3781 60.3354 87.2293 59.7796 87.2293 59.1283V45.9659ZM95.3434 66.8506C95.0851 66.8506 94.8297 66.8226 94.5771 66.7664C94.3244 66.7103 94.097 66.6373 93.8949 66.5475L94.1981 65.6464C94.7258 65.8485 95.203 65.9215 95.6297 65.8654C96.062 65.8092 96.4438 65.6127 96.775 65.2759C97.1062 64.939 97.387 64.445 97.6171 63.7937L98.2066 62.1768L93.4654 49.0649H94.5686L98.6782 60.6779H98.7624L102.872 49.0649H103.975L98.5182 64.198C98.3105 64.7818 98.0494 65.2703 97.735 65.6633C97.4206 66.0562 97.0613 66.351 96.6571 66.5475C96.2585 66.7496 95.8206 66.8506 95.3434 66.8506ZM121.553 51.8524L120.601 52.105C120.45 51.6334 120.234 51.2264 119.953 50.8839C119.672 50.5415 119.318 50.2776 118.892 50.0923C118.471 49.9014 117.965 49.806 117.376 49.806C116.427 49.806 115.65 50.0418 115.043 50.5134C114.443 50.985 114.142 51.5997 114.142 52.3576C114.142 52.9752 114.347 53.4861 114.757 53.8903C115.167 54.2889 115.793 54.5921 116.635 54.7998L118.622 55.2967C119.644 55.5493 120.413 55.9591 120.93 56.5262C121.446 57.0876 121.704 57.7866 121.704 58.6231C121.704 59.3361 121.511 59.9677 121.123 60.5179C120.736 61.068 120.2 61.4975 119.515 61.8063C118.836 62.1151 118.044 62.2695 117.14 62.2695C115.933 62.2695 114.942 61.9888 114.167 61.4274C113.393 60.8603 112.896 60.0491 112.677 58.9936L113.662 58.741C113.847 59.5831 114.232 60.2259 114.816 60.6694C115.405 61.1073 116.177 61.3263 117.132 61.3263C118.187 61.3263 119.038 61.0765 119.683 60.5768C120.335 60.0771 120.66 59.4371 120.66 58.6568C120.66 58.0617 120.469 57.5592 120.088 57.1494C119.706 56.7395 119.128 56.4392 118.353 56.2483L116.29 55.743C115.234 55.4847 114.443 55.0721 113.915 54.5051C113.387 53.9324 113.123 53.2278 113.123 52.3913C113.123 51.6952 113.306 51.0832 113.671 50.5555C114.036 50.0278 114.538 49.6151 115.178 49.3176C115.818 49.02 116.551 48.8712 117.376 48.8712C118.471 48.8712 119.363 49.1295 120.054 49.646C120.744 50.1625 121.244 50.898 121.553 51.8524ZM130.044 62.2695C128.876 62.2695 127.86 61.9804 126.995 61.4021C126.131 60.8238 125.463 60.0322 124.991 59.0273C124.519 58.0224 124.284 56.8771 124.284 55.5914C124.284 54.3002 124.519 53.1492 124.991 52.1387C125.468 51.1281 126.122 50.3309 126.953 49.7471C127.784 49.1632 128.733 48.8712 129.8 48.8712C130.524 48.8712 131.209 49.0172 131.854 49.3092C132.506 49.5955 133.078 50.0109 133.572 50.5555C134.072 51.1001 134.462 51.7569 134.743 52.5261C135.029 53.2952 135.172 54.1598 135.172 55.1198V55.7598H124.932V54.8251H134.145C134.145 53.8875 133.954 53.0426 133.572 52.2903C133.191 51.538 132.671 50.9401 132.014 50.4965C131.358 50.053 130.619 49.8313 129.8 49.8313C128.941 49.8313 128.174 50.0727 127.501 50.5555C126.833 51.0327 126.302 51.6783 125.909 52.4924C125.522 53.3064 125.319 54.2159 125.303 55.2209V55.6419C125.303 56.7199 125.491 57.6883 125.867 58.5473C126.249 59.4006 126.793 60.0771 127.501 60.5768C128.208 61.0709 129.056 61.3179 130.044 61.3179C130.751 61.3179 131.355 61.2 131.854 60.9642C132.36 60.7228 132.772 60.4308 133.092 60.0884C133.412 59.7459 133.654 59.4147 133.817 59.0947L134.751 59.4736C134.555 59.9059 134.249 60.3382 133.833 60.7705C133.424 61.1972 132.901 61.5537 132.267 61.84C131.638 62.1263 130.897 62.2695 130.044 62.2695ZM138.448 62V49.0649H139.451V51.086H139.543C139.824 50.4236 140.298 49.893 140.966 49.4944C141.634 49.0902 142.395 48.8881 143.249 48.8881C143.338 48.8881 143.428 48.8881 143.518 48.8881C143.608 48.8881 143.692 48.8909 143.771 48.8965V49.9323C143.703 49.9267 143.622 49.9183 143.526 49.9071C143.437 49.8902 143.324 49.8818 143.19 49.8818C142.471 49.8818 141.831 50.0362 141.27 50.345C140.714 50.6537 140.276 51.0804 139.956 51.625C139.636 52.164 139.476 52.7815 139.476 53.4777V62H138.448ZM156.121 49.0649L151.447 62H150.285L145.611 49.0649H146.714L150.824 60.6779H150.908L155.017 49.0649H156.121ZM159.121 62V49.0649H160.14V62H159.121ZM159.635 46.7743C159.41 46.7743 159.214 46.6958 159.045 46.5386C158.882 46.3814 158.801 46.1905 158.801 45.9659C158.801 45.7413 158.882 45.5505 159.045 45.3933C159.208 45.2361 159.404 45.1575 159.635 45.1575C159.859 45.1575 160.053 45.2361 160.216 45.3933C160.384 45.5505 160.468 45.7413 160.468 45.9659C160.468 46.1905 160.387 46.3814 160.224 46.5386C160.061 46.6958 159.865 46.7743 159.635 46.7743ZM169.033 62.2695C167.933 62.2695 166.964 61.9804 166.128 61.4021C165.291 60.8182 164.637 60.021 164.165 59.0105C163.7 57.9999 163.467 56.8546 163.467 55.5746C163.467 54.2945 163.702 53.1492 164.174 52.1387C164.646 51.1281 165.3 50.3309 166.136 49.7471C166.973 49.1632 167.935 48.8712 169.025 48.8712C169.844 48.8712 170.591 49.0397 171.265 49.3765C171.944 49.7134 172.505 50.1822 172.949 50.7829C173.398 51.3836 173.684 52.0797 173.808 52.8713H172.764C172.595 51.9955 172.174 51.2713 171.5 50.6987C170.832 50.1204 170.01 49.8313 169.033 49.8313C168.157 49.8313 167.377 50.0783 166.692 50.5723C166.007 51.0608 165.468 51.7373 165.075 52.6019C164.682 53.4608 164.486 54.4461 164.486 55.5577C164.486 56.6525 164.676 57.635 165.058 58.5052C165.44 59.3698 165.973 60.0547 166.658 60.56C167.343 61.0652 168.135 61.3179 169.033 61.3179C169.667 61.3179 170.246 61.1916 170.768 60.9389C171.296 60.6863 171.736 60.327 172.09 59.861C172.444 59.395 172.677 58.8504 172.789 58.2273H173.833C173.71 59.0245 173.429 59.7263 172.991 60.3326C172.553 60.9389 171.994 61.4133 171.315 61.7558C170.636 62.0982 169.875 62.2695 169.033 62.2695ZM182.12 62.2695C180.952 62.2695 179.936 61.9804 179.071 61.4021C178.207 60.8238 177.539 60.0322 177.067 59.0273C176.595 58.0224 176.36 56.8771 176.36 55.5914C176.36 54.3002 176.595 53.1492 177.067 52.1387C177.544 51.1281 178.198 50.3309 179.029 49.7471C179.86 49.1632 180.809 48.8712 181.876 48.8712C182.6 48.8712 183.285 49.0172 183.93 49.3092C184.582 49.5955 185.154 50.0109 185.648 50.5555C186.148 51.1001 186.538 51.7569 186.819 52.5261C187.105 53.2952 187.248 54.1598 187.248 55.1198V55.7598H177.008V54.8251H186.221C186.221 53.8875 186.03 53.0426 185.648 52.2903C185.267 51.538 184.747 50.9401 184.09 50.4965C183.434 50.053 182.695 49.8313 181.876 49.8313C181.017 49.8313 180.25 50.0727 179.577 50.5555C178.909 51.0327 178.378 51.6783 177.985 52.4924C177.598 53.3064 177.396 54.2159 177.379 55.2209V55.6419C177.379 56.7199 177.567 57.6883 177.943 58.5473C178.325 59.4006 178.869 60.0771 179.577 60.5768C180.284 61.0709 181.132 61.3179 182.12 61.3179C182.827 61.3179 183.431 61.2 183.93 60.9642C184.436 60.7228 184.848 60.4308 185.168 60.0884C185.488 59.7459 185.73 59.4147 185.893 59.0947L186.827 59.4736C186.631 59.9059 186.325 60.3382 185.909 60.7705C185.5 61.1972 184.977 61.5537 184.343 61.84C183.714 62.1263 182.973 62.2695 182.12 62.2695Z" fill="white"></path>
  <path d="M188.395 24.2735C188.395 22.384 187.655 20.5695 186.333 19.2191C185.011 17.8688 183.213 17.0901 181.324 17.0501C181.127 17.0522 180.935 16.9828 180.785 16.8546C180.635 16.7265 180.537 16.5484 180.508 16.3532C180.022 13.7965 178.764 11.4502 176.904 9.63026C175.044 7.81035 172.67 6.60434 170.104 6.17469C167.537 5.74504 164.9 6.1124 162.548 7.22728C160.197 8.34216 158.243 10.151 156.951 12.4101C156.882 12.5314 156.783 12.6336 156.665 12.7078C156.546 12.7819 156.411 12.8256 156.271 12.835C153.915 12.9988 151.708 14.0519 150.099 15.7812C148.49 17.5105 147.598 19.7867 147.603 22.149C147.603 30.3072 155.915 31.48 156.101 31.497H180.763C182.866 31.4814 184.894 30.7092 186.474 29.3214C187.122 28.6559 187.627 27.8646 187.957 26.9964C188.287 26.1282 188.436 25.2015 188.395 24.2735Z" fill="white"></path>
</svg>
