<svg width="100" height="100" viewBox="0 0 100 100" fill="none" xmlns="http://www.w3.org/2000/svg">
<g clip-path="url(#clip0_1745_16992)">
<path d="M46.3129 74.8545H50.7506C50.7506 74.8545 51.4903 74.8545 51.4903 75.5941V99.2622C51.4903 99.2622 51.4903 100.002 50.7506 100.002H46.3129C46.3129 100.002 45.5732 100.002 45.5732 99.2622V75.5941C45.5732 75.5941 45.5732 74.8545 46.3129 74.8545Z" fill="black"/>
<path d="M54.8293 99.631C55.6838 100.485 57.9446 99.8634 61.1146 97.9018C64.2846 95.9402 68.104 92.7996 71.7326 89.171C75.3612 85.5425 78.5017 81.7231 80.4633 78.5531C82.4249 75.3831 83.0469 73.1222 82.1925 72.2678C81.3381 71.4134 79.0772 72.0354 75.9072 73.997C72.7372 75.9586 68.9178 79.0991 65.2893 82.7277C61.6607 86.3563 58.5201 90.1757 56.5585 93.3457C54.5969 96.5156 53.9749 98.7765 54.8293 99.631Z" fill="black"/>
<path d="M26.1659 89.8139C27.8637 91.5117 29.626 93.1117 31.3523 94.5226C33.0786 95.9335 34.7349 97.1276 36.2268 98.0367C37.7187 98.9458 39.017 99.5522 40.0474 99.8212C41.0779 100.09 41.8203 100.017 42.2324 99.6045C42.6445 99.1924 42.7181 98.4499 42.4491 97.4195C42.1801 96.3891 41.5738 95.0908 40.6646 93.5989C39.7555 92.107 38.5614 90.4506 37.1505 88.7244C35.7397 86.9981 34.1397 85.2358 32.4419 83.538C30.7441 81.8402 28.9817 80.2402 27.2555 78.8293C25.5292 77.4184 23.8729 76.2244 22.3809 75.3152C20.889 74.4061 19.5908 73.7997 18.5604 73.5307C17.5299 73.2617 16.7875 73.3354 16.3754 73.7474C15.9633 74.1595 15.8896 74.902 16.1586 75.9324C16.4276 76.9629 17.034 78.2611 17.9432 79.753C18.8523 81.2449 20.0464 82.9013 21.4572 84.6275C22.8681 86.3538 24.4681 88.1161 26.1659 89.8139Z" fill="black"/>
<path d="M48.5316 70.4156C54.4141 70.4078 60.0534 68.0675 64.2129 63.908C68.3724 59.7485 70.7127 54.1092 70.7205 48.2268V32.162C70.7205 29.2035 68.0874 28.2864 66.1052 30.239L59.419 36.9548C59.2725 37.0858 59.0829 37.1582 58.8864 37.1582C58.69 37.1582 58.5004 37.0858 58.3539 36.9548L51.6677 30.239C50.8178 29.4423 49.6965 28.999 48.5316 28.999C47.3667 28.999 46.2455 29.4423 45.3956 30.239L38.7094 36.9548C38.5629 37.0858 38.3733 37.1582 38.1768 37.1582C37.9803 37.1582 37.7908 37.0858 37.6443 36.9548L30.9581 30.239C28.9463 28.2568 26.3428 28.9964 26.3428 32.162V48.1972C26.3428 54.0847 28.6796 59.7316 32.8399 63.8975C37.0003 68.0635 42.6441 70.4078 48.5316 70.4156Z" fill="black"/>
<path d="M81.6657 18.9583C81.6657 18.1342 81.9101 17.3287 82.3679 16.6435C82.8257 15.9583 83.4765 15.4242 84.2378 15.1088C84.9992 14.7935 85.837 14.711 86.6452 14.8717C87.4535 15.0325 88.1959 15.4293 88.7786 16.0121C89.3614 16.5948 89.7582 17.3372 89.919 18.1455C90.0797 18.9537 89.9972 19.7915 89.6819 20.5528C89.3665 21.3142 88.8324 21.965 88.1472 22.4228C87.462 22.8806 86.6564 23.125 85.8324 23.125C84.7273 23.125 83.6675 22.686 82.8861 21.9046C82.1047 21.1232 81.6657 20.0634 81.6657 18.9583Z" fill="black"/>
<path d="M76.6657 36.9593C76.6657 36.1352 76.9101 35.3296 77.3679 34.6444C77.8257 33.9592 78.4765 33.4252 79.2378 33.1098C79.9992 32.7944 80.837 32.7119 81.6452 32.8727C82.4535 33.0335 83.1959 33.4303 83.7786 34.013C84.3614 34.5958 84.7582 35.3382 84.919 36.1464C85.0797 36.9547 84.9972 37.7925 84.6819 38.5538C84.3665 39.3152 83.8324 39.9659 83.1472 40.4238C82.462 40.8816 81.6564 41.126 80.8324 41.126C79.7273 41.126 78.6675 40.687 77.8861 39.9056C77.1047 39.1242 76.6657 38.0644 76.6657 36.9593Z" fill="black"/>
<path d="M20.3333 36.9593C20.3333 36.1352 20.089 35.3296 19.6311 34.6444C19.1733 33.9592 18.5225 33.4252 17.7612 33.1098C16.9998 32.7944 16.162 32.7119 15.3538 32.8727C14.5455 33.0335 13.8031 33.4303 13.2204 34.013C12.6377 34.5958 12.2408 35.3382 12.0801 36.1464C11.9193 36.9547 12.0018 37.7925 12.3172 38.5538C12.6325 39.3152 13.1666 39.9659 13.8518 40.4238C14.537 40.8816 15.3426 41.126 16.1667 41.126C17.2717 41.126 18.3315 40.687 19.1129 39.9056C19.8943 39.1242 20.3333 38.0644 20.3333 36.9593Z" fill="black"/>
<path d="M75.792 4.16829C75.792 4.99238 75.5476 5.79796 75.0898 6.48317C74.6319 7.16837 73.9812 7.70243 73.2198 8.01779C72.4585 8.33316 71.6207 8.41567 70.8124 8.2549C70.0042 8.09413 69.2618 7.69729 68.679 7.11457C68.0963 6.53185 67.6995 5.78942 67.5387 4.98117C67.3779 4.17291 67.4605 3.33514 67.7758 2.57378C68.0912 1.81242 68.6252 1.16168 69.3104 0.703836C69.9957 0.245997 70.8012 0.00162623 71.6253 0.0016262C72.7304 0.00162615 73.7902 0.440613 74.5716 1.22201C75.353 2.00342 75.792 3.06322 75.792 4.16829Z" fill="black"/>
<path d="M63.333 21.1663C63.333 21.9904 63.0886 22.796 62.6308 23.4812C62.173 24.1664 61.5222 24.7005 60.7609 25.0158C59.9995 25.3312 59.1617 25.4137 58.3535 25.2529C57.5452 25.0922 56.8028 24.6953 56.2201 24.1126C55.6373 23.5299 55.2405 22.7875 55.0797 21.9792C54.919 21.171 55.0015 20.3332 55.3168 19.5718C55.6322 18.8105 56.1663 18.1597 56.8515 17.7019C57.5367 17.244 58.3423 16.9997 59.1663 16.9997C60.2714 16.9997 61.3312 17.4387 62.1126 18.2201C62.894 19.0015 63.333 20.0613 63.333 21.1663Z" fill="black"/>
<path d="M33.666 21.1663C33.666 21.9904 33.9104 22.796 34.3682 23.4812C34.8261 24.1664 35.4768 24.7005 36.2382 25.0158C36.9995 25.3312 37.8373 25.4137 38.6456 25.2529C39.4538 25.0922 40.1962 24.6953 40.779 24.1126C41.3617 23.5299 41.7585 22.7875 41.9193 21.9792C42.0801 21.171 41.9975 20.3332 41.6822 19.5718C41.3668 18.8105 40.8328 18.1597 40.1476 17.7019C39.4624 17.244 38.6568 16.9997 37.8327 16.9997C36.7276 16.9997 35.6678 17.4387 34.8864 18.2201C34.105 19.0015 33.666 20.0613 33.666 21.1663Z" fill="black"/>
<path d="M53.167 6.87728C53.167 7.70137 52.9226 8.50695 52.4648 9.19215C52.0069 9.87736 51.3562 10.4114 50.5948 10.7268C49.8335 11.0421 48.9957 11.1247 48.1874 10.9639C47.3792 10.8031 46.6368 10.4063 46.054 9.82356C45.4713 9.24084 45.0745 8.49841 44.9137 7.69015C44.7529 6.8819 44.8355 6.04412 45.1508 5.28276C45.4662 4.5214 46.0002 3.87066 46.6855 3.41282C47.3707 2.95498 48.1762 2.71061 49.0003 2.71061C50.1054 2.71061 51.1652 3.1496 51.9466 3.931C52.728 4.7124 53.167 5.77221 53.167 6.87728Z" fill="black"/>
<path d="M27.874 5.29329C27.874 6.11738 27.6297 6.92296 27.1718 7.60817C26.714 8.29337 26.0632 8.82743 25.3019 9.14279C24.5405 9.45816 23.7027 9.54067 22.8945 9.3799C22.0862 9.21913 21.3438 8.82229 20.7611 8.23957C20.1784 7.65685 19.7815 6.91442 19.6208 6.10617C19.46 5.29791 19.5425 4.46014 19.8579 3.69878C20.1732 2.93742 20.7073 2.28668 21.3925 1.82884C22.0777 1.371 22.8833 1.12663 23.7074 1.12663C24.8124 1.12663 25.8722 1.56561 26.6536 2.34701C27.435 3.12842 27.874 4.18822 27.874 5.29329Z" fill="black"/>
<path d="M11.333 17.7923C11.333 18.6164 11.0886 19.422 10.6308 20.1072C10.173 20.7924 9.52221 21.3264 8.76085 21.6418C7.99949 21.9572 7.16172 22.0397 6.35347 21.8789C5.54522 21.7181 4.80279 21.3213 4.22007 20.7386C3.63735 20.1559 3.24051 19.4134 3.07974 18.6052C2.91896 17.7969 3.00148 16.9592 3.31684 16.1978C3.63221 15.4364 4.16626 14.7857 4.85146 14.3279C5.53667 13.87 6.34225 13.6256 7.16634 13.6256C8.27141 13.6256 9.33122 14.0646 10.1126 14.846C10.894 15.6274 11.333 16.6872 11.333 17.7923Z" fill="black"/>
</g>
<defs>
<clipPath id="clip0_1745_16992">
<rect width="100" height="100" fill="white"/>
</clipPath>
</defs>
</svg>
