<svg viewBox="0 0 26 26" fill="none" xmlns="http://www.w3.org/2000/svg">
<path id="triangle" d="M11.4825 2.60781C11.946 2.34682 12.469 2.20972 13.001 2.20972C13.533 2.20972 14.056 2.34682 14.5195 2.60781C14.9831 2.86879 15.3715 3.24484 15.6474 3.69968L15.6501 3.70409L24.8259 19.0224C24.8285 19.0267 24.831 19.031 24.8335 19.0352C25.1037 19.5033 25.2467 20.0339 25.2482 20.5744C25.2498 21.1148 25.1097 21.6463 24.8421 22.1158C24.5745 22.5854 24.1885 22.9766 23.7227 23.2507C23.2569 23.5248 22.7275 23.6722 22.187 23.6781C22.1836 23.6781 22.1802 23.6782 22.1768 23.6782H3.82516L3.82151 23.6782L3.81496 23.6781C3.27452 23.6722 2.74507 23.5248 2.27927 23.2507C1.81346 22.9766 1.42754 22.5854 1.1599 22.1158C0.892265 21.6463 0.752237 21.1148 0.753751 20.5744C0.755264 20.0339 0.898266 19.5033 1.16853 19.0352C1.17101 19.031 1.17352 19.0267 1.17607 19.0224L10.3519 3.70409L10.3546 3.69968C10.6305 3.24484 11.0189 2.86879 11.4825 2.60781Z" fill="#000" stroke="transparent" stroke-linecap="round" stroke-linejoin="round"/>
<path id="exclamation-mark" d="M13.0007 9.74927V14.0826M13.0007 18.4159H13.0116" stroke="#fff" stroke-width="3.46667" stroke-linecap="round" stroke-linejoin="round"/>
</svg>
