<svg viewBox="0 0 135 135" fill="none" xmlns="http://www.w3.org/2000/svg">
<circle cx="67.3943" cy="67.3943" r="67.3943" fill="#3880D1"/>
<g clip-path="url(#clip0_1732_11950)">
<path d="M102.814 48.7687C102.728 48.7107 102.625 48.6797 102.521 48.6797C102.416 48.6797 102.314 48.7107 102.227 48.7687L73.6038 77.3922C72.8573 78.1413 71.9695 78.7346 70.9918 79.1378C70.0141 79.541 68.9661 79.7459 67.9085 79.7407C65.7666 79.7365 63.7116 78.8934 62.1838 77.3922L33.5898 48.8862C33.5029 48.8281 33.4007 48.7971 33.2962 48.7971C33.1917 48.7971 33.0895 48.8281 33.0026 48.8862C32.9215 48.9182 32.8495 48.9698 32.7932 49.0364C32.7368 49.103 32.6978 49.1825 32.6797 49.2678V84.4966C32.6797 86.0539 33.2983 87.5473 34.3994 88.6484C35.5005 89.7495 36.9939 90.3681 38.5512 90.3681H97.2659C98.8231 90.3681 100.317 89.7495 101.418 88.6484C102.519 87.5473 103.137 86.0539 103.137 84.4966V49.2678C103.14 49.1618 103.11 49.0576 103.053 48.9686C102.995 48.8796 102.912 48.8099 102.814 48.7687Z" fill="white"/>
<path d="M65.298 74.3959C65.9939 75.072 66.9259 75.4502 67.8961 75.4502C68.8664 75.4502 69.7984 75.072 70.4943 74.3959L98.9416 45.9486C99.133 45.7561 99.2673 45.5142 99.3295 45.2498C99.3917 44.9855 99.3794 44.7091 99.2938 44.4514C98.9709 43.3945 98.0608 43.3945 97.2682 43.3945H38.5535C37.7315 43.3945 36.8507 43.3945 36.5278 44.4514C36.4423 44.7091 36.43 44.9855 36.4921 45.2498C36.5543 45.5142 36.6886 45.7561 36.8801 45.9486L65.298 74.3959Z" fill="white"/>
</g>
<defs>
<clipPath id="clip0_1732_11950">
<rect width="70.4577" height="70.4577" fill="white" transform="translate(32.6797 31.6562)"/>
</clipPath>
</defs>
</svg>
