<svg viewBox="0 0 135 135" fill="none" xmlns="http://www.w3.org/2000/svg">
<circle cx="67.5037" cy="67.3943" r="67.3943" fill="#3880D1"/>
<g clip-path="url(#clip0_1732_11950)">
<path d="M96.6335 31.6562H39.3867C37.6348 31.6563 35.9547 32.3522 34.7159 33.5909C33.4772 34.8297 32.7812 36.5098 32.7812 38.2617V82.2977C32.7812 84.0496 33.4772 85.7297 34.7159 86.9684C35.9547 88.2072 37.6348 88.9031 39.3867 88.9031H45.9921V99.9121C45.9945 100.318 46.1079 100.716 46.3201 101.063C46.5322 101.41 46.835 101.692 47.1957 101.879C47.5083 102.026 47.8484 102.106 48.1939 102.114C48.6706 102.116 49.1348 101.961 49.5149 101.674L66.5422 88.9031H96.6335C98.3854 88.9031 100.065 88.2072 101.304 86.9684C102.543 85.7297 103.239 84.0496 103.239 82.2977V38.2617C103.239 36.5098 102.543 34.8297 101.304 33.5909C100.065 32.3522 98.3854 31.6562 96.6335 31.6562ZM43.0563 57.3439H45.9921C47.7439 57.3439 49.424 58.0399 50.6628 59.2786C51.9015 60.5174 52.5975 62.1975 52.5975 63.9493C52.5975 65.7012 51.9015 67.3813 50.6628 68.6201C49.424 69.8588 47.7439 70.5547 45.9921 70.5547H38.6527C38.0688 70.5547 37.5087 70.3228 37.0958 69.9099C36.6829 69.4969 36.4509 68.9369 36.4509 68.3529C36.4509 67.769 36.6829 67.209 37.0958 66.796C37.5087 66.3831 38.0688 66.1511 38.6527 66.1511H45.9921C46.576 66.1511 47.1361 65.9192 47.549 65.5063C47.9619 65.0933 48.1939 64.5333 48.1939 63.9493C48.1939 63.3654 47.9619 62.8054 47.549 62.3924C47.1361 61.9795 46.576 61.7475 45.9921 61.7475H43.0563C41.3045 61.7475 39.6244 61.0516 38.3856 59.8129C37.1468 58.5741 36.4509 56.894 36.4509 55.1421C36.4509 53.3903 37.1468 51.7102 38.3856 50.4714C39.6244 49.2327 41.3045 48.5367 43.0563 48.5367H50.3957C50.9796 48.5367 51.5397 48.7687 51.9526 49.1816C52.3655 49.5945 52.5975 50.1546 52.5975 50.7385C52.5975 51.3225 52.3655 51.8825 51.9526 52.2954C51.5397 52.7084 50.9796 52.9403 50.3957 52.9403H43.0563C42.4724 52.9403 41.9123 53.1723 41.4994 53.5852C41.0865 53.9981 40.8545 54.5582 40.8545 55.1421C40.8545 55.7261 41.0865 56.2861 41.4994 56.699C41.9123 57.112 42.4724 57.3439 43.0563 57.3439ZM79.0191 68.3529C79.0191 68.9369 78.7871 69.4969 78.3742 69.9099C77.9613 70.3228 77.4012 70.5547 76.8173 70.5547C76.2333 70.5547 75.6733 70.3228 75.2604 69.9099C74.8475 69.4969 74.6155 68.9369 74.6155 68.3529V55.1421C74.6155 54.5582 74.3835 53.9981 73.9706 53.5852C73.5577 53.1723 72.9976 52.9403 72.4137 52.9403C71.8297 52.9403 71.2697 53.1723 70.8568 53.5852C70.4439 53.9981 70.2119 54.5582 70.2119 55.1421V68.3529C70.2119 68.9369 69.9799 69.4969 69.567 69.9099C69.1541 70.3228 68.594 70.5547 68.0101 70.5547C67.4261 70.5547 66.8661 70.3228 66.4532 69.9099C66.0403 69.4969 65.8083 68.9369 65.8083 68.3529V55.1421C65.8083 54.5582 65.5763 53.9981 65.1634 53.5852C64.7505 53.1723 64.1904 52.9403 63.6065 52.9403C63.0225 52.9403 62.4625 53.1723 62.0496 53.5852C61.6367 53.9981 61.4047 54.5582 61.4047 55.1421V68.3529C61.4047 68.9369 61.1727 69.4969 60.7598 69.9099C60.3469 70.3228 59.7868 70.5547 59.2029 70.5547C58.6189 70.5547 58.0589 70.3228 57.646 69.9099C57.233 69.4969 57.0011 68.9369 57.0011 68.3529V55.1421C56.9994 53.8663 57.3673 52.6172 58.0602 51.5459C58.7531 50.4747 59.7415 49.627 60.9059 49.1054C62.0702 48.5837 63.3607 48.4105 64.6214 48.6065C65.8822 48.8026 67.0591 49.3595 68.0101 50.2101C68.961 49.3595 70.138 48.8026 71.3987 48.6065C72.6594 48.4105 73.9499 48.5837 75.1143 49.1054C76.2786 49.627 77.267 50.4747 77.96 51.5459C78.6529 52.6172 79.0208 53.8663 79.0191 55.1421V68.3529ZM90.0281 57.3439H92.9638C94.7157 57.3439 96.3958 58.0399 97.6346 59.2786C98.8733 60.5174 99.5692 62.1975 99.5692 63.9493C99.5692 65.7012 98.8733 67.3813 97.6346 68.6201C96.3958 69.8588 94.7157 70.5547 92.9638 70.5547H85.6245C85.0405 70.5547 84.4805 70.3228 84.0676 69.9099C83.6547 69.4969 83.4227 68.9369 83.4227 68.3529C83.4227 67.769 83.6547 67.209 84.0676 66.796C84.4805 66.3831 85.0405 66.1511 85.6245 66.1511H92.9638C93.5478 66.1511 94.1078 65.9192 94.5207 65.5063C94.9337 65.0933 95.1656 64.5333 95.1656 63.9493C95.1656 63.3654 94.9337 62.8054 94.5207 62.3924C94.1078 61.9795 93.5478 61.7475 92.9638 61.7475H90.0281C88.2762 61.7475 86.5961 61.0516 85.3574 59.8129C84.1186 58.5741 83.4227 56.894 83.4227 55.1421C83.4227 53.3903 84.1186 51.7102 85.3574 50.4714C86.5961 49.2327 88.2762 48.5367 90.0281 48.5367H97.3674C97.9514 48.5367 98.5114 48.7687 98.9243 49.1816C99.3373 49.5945 99.5692 50.1546 99.5692 50.7385C99.5692 51.3225 99.3373 51.8825 98.9243 52.2954C98.5114 52.7084 97.9514 52.9403 97.3674 52.9403H90.0281C89.4441 52.9403 88.8841 53.1723 88.4712 53.5852C88.0583 53.9981 87.8263 54.5582 87.8263 55.1421C87.8263 55.7261 88.0583 56.2861 88.4712 56.699C88.8841 57.112 89.4441 57.3439 90.0281 57.3439Z" fill="white"/>
</g>
<defs>
<clipPath id="clip0_1732_11950">
<rect width="70.4577" height="70.4577" fill="white" transform="translate(32.7812 31.6562)"/>
</clipPath>
</defs>
</svg>
