<svg viewBox="0 0 135 135" fill="none" xmlns="http://www.w3.org/2000/svg">
<circle cx="67.6052" cy="67.3943" r="67.3943" fill="#3880D1"/>
<g clip-path="url(#clip0_1732_11950)">
<path fill-rule="evenodd" clip-rule="evenodd" d="M96.7351 31.6562H39.4882C37.7364 31.6562 36.0562 32.3522 34.8175 33.5909C33.5787 34.8297 32.8828 36.5098 32.8828 38.2617V82.2977C32.8828 84.0496 33.5787 85.7297 34.8175 86.9684C36.0562 88.2072 37.7364 88.9031 39.4882 88.9031H46.0936V99.9121C46.0961 100.318 46.2095 100.716 46.4216 101.063C46.6338 101.41 46.9365 101.692 47.2973 101.879C47.6099 102.026 47.9499 102.106 48.2954 102.114C48.7722 102.116 49.2364 101.961 49.6165 101.674L66.6438 88.9031H96.7351C98.4869 88.9031 100.167 88.2072 101.406 86.9684C102.645 85.7297 103.34 84.0496 103.34 82.2977V38.2617C103.34 36.5098 102.645 34.8297 101.406 33.5909C100.167 32.3522 98.4869 31.6562 96.7351 31.6562ZM73.0965 51.1251C74.9492 49.2405 77.3539 48.0018 79.9582 47.5906C81.7408 47.3219 83.5605 47.4518 85.2874 47.9711C87.0144 48.4903 88.606 49.3861 89.9487 50.5945C91.2915 51.8029 92.3524 53.2942 93.0556 54.9619C93.7589 56.6296 94.0872 58.4328 94.0172 60.2427C93.8047 63.4795 92.3609 66.5101 89.985 68.7064C87.6092 70.9027 84.4835 72.0963 81.2556 72.0399H55.7324C52.5045 72.0963 49.3788 70.9027 47.0029 68.7064C44.6271 66.5101 43.1833 63.4795 42.9708 60.2427C42.7786 57.0499 43.833 53.9076 45.9099 51.4835C47.9868 49.0594 50.9224 47.5445 54.0932 47.2607C57.2639 46.9769 60.4198 47.9465 62.8904 49.9636C65.361 51.9806 66.9516 54.8861 67.3242 58.0627C67.6962 60.7688 67.1572 63.5221 65.7928 65.8848C65.744 65.9653 65.7173 66.0573 65.7153 66.1515C65.7133 66.2456 65.7362 66.3387 65.7815 66.4211C65.8269 66.5036 65.8931 66.5725 65.9735 66.621C66.054 66.6694 66.1457 66.6956 66.2394 66.6969H70.7485C70.8423 66.6956 70.934 66.6694 71.0144 66.621C71.0948 66.5725 71.1611 66.5036 71.2064 66.4211C71.2518 66.3387 71.2746 66.2456 71.2726 66.1515C71.2707 66.0573 71.244 65.9653 71.1952 65.8848C69.8308 63.5221 69.2917 60.7688 69.6638 58.0627C70.0409 55.441 71.244 53.0097 73.0965 51.1251ZM49.4531 55.8922C48.6935 57.0345 48.2881 58.3774 48.2881 59.7511C48.2937 61.5915 49.0238 63.355 50.3189 64.6563C51.6141 65.9577 53.369 66.6913 55.2006 66.6969C56.5678 66.6969 57.9043 66.2896 59.041 65.5264C60.1778 64.7631 61.0638 63.6784 61.587 62.4092C62.1102 61.14 62.2471 59.7434 61.9804 58.3961C61.7136 57.0487 61.0553 55.8111 60.0885 54.8397C59.1218 53.8683 57.8901 53.2068 56.5492 52.9387C55.2083 52.6707 53.8184 52.8083 52.5553 53.334C51.2922 53.8597 50.2126 54.75 49.4531 55.8922ZM77.9469 65.5264C79.0837 66.2896 80.4202 66.6969 81.7873 66.6969C83.6189 66.6913 85.3739 65.9577 86.669 64.6563C87.9642 63.355 88.6943 61.5915 88.6999 59.7511C88.6999 58.3774 88.2945 57.0345 87.5349 55.8922C86.7753 54.75 85.6957 53.8597 84.4326 53.334C83.1695 52.8083 81.7797 52.6707 80.4388 52.9387C79.0979 53.2068 77.8662 53.8683 76.8994 54.8397C75.9327 55.8111 75.2743 57.0487 75.0076 58.3961C74.7409 59.7434 74.8778 61.14 75.401 62.4092C75.9242 63.6784 76.8102 64.7631 77.9469 65.5264Z" fill="white"/>
</g>
<defs>
<clipPath id="clip0_1732_11950">
<rect width="70.4577" height="70.4577" fill="white" transform="translate(32.8828 31.6562)"/>
</clipPath>
</defs>
</svg>
